<ttFont>
    <TTGlyph name=".notdef" xMin="56" yMin="-49" xMax="1157" yMax="619">
      <contour>
        <pt x="495" y="98" on="1"/>
        <pt x="468" y="98" on="1"/>
        <pt x="467" y="93" on="0"/>
        <pt x="456" y="79" on="0"/>
        <pt x="449" y="79" on="1"/>
        <pt x="460" y="70" on="0"/>
        <pt x="460" y="64" on="1"/>
        <pt x="460" y="61" on="0"/>
        <pt x="436" y="52" on="0"/>
        <pt x="391" y="36" on="0"/>
        <pt x="373" y="26" on="1"/>
        <pt x="406" y="16" on="0"/>
        <pt x="416" y="5" on="1"/>
        <pt x="416" y="2" on="0"/>
        <pt x="414" y="0" on="0"/>
        <pt x="411" y="0" on="0"/>
        <pt x="410" y="-1" on="1"/>
        <pt x="383" y="12" on="0"/>
        <pt x="359" y="13" on="1"/>
        <pt x="328" y="14" on="0"/>
        <pt x="295" y="-19" on="1"/>
        <pt x="288" y="-17" on="0"/>
        <pt x="286" y="-13" on="1"/>
        <pt x="297" y="5" on="0"/>
        <pt x="323" y="17" on="1"/>
        <pt x="295" y="19" on="0"/>
        <pt x="265" y="4" on="1"/>
        <pt x="261" y="7" on="0"/>
        <pt x="261" y="11" on="1"/>
        <pt x="268" y="16" on="0"/>
        <pt x="285" y="24" on="0"/>
        <pt x="297" y="27" on="0"/>
        <pt x="315" y="29" on="0"/>
        <pt x="324" y="29" on="0"/>
        <pt x="342" y="29" on="0"/>
        <pt x="344" y="29" on="1"/>
        <pt x="382" y="48" on="0"/>
        <pt x="439" y="67" on="1"/>
        <pt x="427" y="79" on="1"/>
        <pt x="412" y="79" on="0"/>
        <pt x="409" y="103" on="1"/>
        <pt x="209" y="132" on="0"/>
        <pt x="197" y="311" on="1"/>
        <pt x="194" y="359" on="0"/>
        <pt x="188" y="405" on="0"/>
        <pt x="165" y="455" on="0"/>
        <pt x="144" y="467" on="1"/>
        <pt x="59" y="483" on="1"/>
        <pt x="56" y="488" on="1"/>
        <pt x="118" y="517" on="1"/>
        <pt x="118" y="556" on="0"/>
        <pt x="179" y="619" on="0"/>
        <pt x="226" y="619" on="1"/>
        <pt x="269" y="619" on="0"/>
        <pt x="332" y="573" on="0"/>
        <pt x="362" y="521" on="1"/>
        <pt x="375" y="502" on="0"/>
        <pt x="491" y="477" on="0"/>
        <pt x="736" y="442" on="0"/>
        <pt x="817" y="426" on="1"/>
        <pt x="835" y="427" on="0"/>
        <pt x="996" y="443" on="0"/>
        <pt x="1142" y="458" on="0"/>
        <pt x="1144" y="458" on="1"/>
        <pt x="1152" y="460" on="0"/>
        <pt x="1157" y="442" on="0"/>
        <pt x="1150" y="436" on="1"/>
        <pt x="1124" y="412" on="0"/>
        <pt x="1013" y="385" on="0"/>
        <pt x="910" y="363" on="0"/>
        <pt x="893" y="345" on="1"/>
        <pt x="890" y="342" on="0"/>
        <pt x="798" y="243" on="0"/>
        <pt x="752" y="199" on="0"/>
        <pt x="656" y="133" on="0"/>
        <pt x="609" y="117" on="1"/>
        <pt x="612" y="94" on="0"/>
        <pt x="602" y="85" on="1"/>
        <pt x="615" y="75" on="0"/>
        <pt x="615" y="71" on="1"/>
        <pt x="615" y="66" on="0"/>
        <pt x="593" y="51" on="0"/>
        <pt x="554" y="26" on="0"/>
        <pt x="540" y="14" on="1"/>
        <pt x="581" y="12" on="0"/>
        <pt x="597" y="2" on="1"/>
        <pt x="597" y="-2" on="0"/>
        <pt x="594" y="-6" on="1"/>
        <pt x="556" y="3" on="0"/>
        <pt x="524" y="-1" on="1"/>
        <pt x="497" y="-7" on="0"/>
        <pt x="471" y="-48" on="1"/>
        <pt x="464" y="-49" on="0"/>
        <pt x="463" y="-44" on="1"/>
        <pt x="470" y="-17" on="0"/>
        <pt x="490" y="-5" on="1"/>
        <pt x="462" y="-9" on="0"/>
        <pt x="441" y="-28" on="1"/>
        <pt x="436" y="-25" on="0"/>
        <pt x="436" y="-21" on="1"/>
        <pt x="444" y="-10" on="0"/>
        <pt x="465" y="3" on="0"/>
        <pt x="479" y="7" on="0"/>
        <pt x="504" y="11" on="0"/>
        <pt x="508" y="12" on="1"/>
        <pt x="524" y="24" on="0"/>
        <pt x="592" y="69" on="1"/>
        <pt x="590" y="71" on="0"/>
        <pt x="577" y="79" on="1"/>
        <pt x="566" y="78" on="0"/>
        <pt x="552" y="94" on="0"/>
        <pt x="550" y="102" on="1"/>
        <pt x="526" y="98" on="0"/>
      </contour>
      <contour>
        <pt x="712" y="225" on="1"/>
        <pt x="735" y="225" on="0"/>
        <pt x="750" y="270" on="0"/>
        <pt x="747" y="292" on="1"/>
        <pt x="746" y="296" on="0"/>
        <pt x="744" y="292" on="1"/>
        <pt x="737" y="252" on="0"/>
        <pt x="717" y="235" on="1"/>
        <pt x="704" y="254" on="0"/>
        <pt x="704" y="284" on="1"/>
        <pt x="719" y="290" on="0"/>
        <pt x="737" y="339" on="0"/>
        <pt x="737" y="393" on="0"/>
        <pt x="719" y="417" on="0"/>
        <pt x="694" y="421" on="1"/>
        <pt x="678" y="391" on="0"/>
        <pt x="668" y="295" on="0"/>
        <pt x="676" y="255" on="1"/>
        <pt x="677" y="252" on="1"/>
        <pt x="666" y="234" on="0"/>
        <pt x="662" y="235" on="1"/>
        <pt x="650" y="277" on="0"/>
        <pt x="661" y="341" on="1"/>
        <pt x="650" y="352" on="0"/>
        <pt x="635" y="350" on="1"/>
        <pt x="630" y="340" on="0"/>
        <pt x="630" y="330" on="1"/>
        <pt x="620" y="333" on="0"/>
        <pt x="609" y="333" on="1"/>
        <pt x="592" y="316" on="0"/>
        <pt x="590" y="279" on="1"/>
        <pt x="590" y="264" on="1"/>
        <pt x="581" y="242" on="0"/>
        <pt x="569" y="236" on="1"/>
        <pt x="563" y="241" on="0"/>
        <pt x="559" y="256" on="1"/>
        <pt x="584" y="264" on="0"/>
        <pt x="584" y="302" on="1"/>
        <pt x="584" y="342" on="0"/>
        <pt x="541" y="339" on="1"/>
        <pt x="531" y="322" on="0"/>
        <pt x="529" y="281" on="1"/>
        <pt x="527" y="228" on="0"/>
        <pt x="568" y="228" on="1"/>
        <pt x="584" y="229" on="0"/>
        <pt x="594" y="245" on="1"/>
        <pt x="600" y="227" on="0"/>
        <pt x="620" y="228" on="1"/>
        <pt x="626" y="228" on="0"/>
        <pt x="638" y="236" on="0"/>
        <pt x="639" y="242" on="1"/>
        <pt x="645" y="225" on="0"/>
        <pt x="662" y="225" on="1"/>
        <pt x="675" y="225" on="0"/>
        <pt x="681" y="242" on="1"/>
        <pt x="690" y="225" on="0"/>
      </contour>
      <contour>
        <pt x="437" y="336" on="1"/>
        <pt x="423" y="352" on="0"/>
        <pt x="403" y="350" on="1"/>
        <pt x="413" y="276" on="0"/>
        <pt x="407" y="249" on="1"/>
        <pt x="403" y="242" on="0"/>
        <pt x="401" y="241" on="1"/>
        <pt x="392" y="271" on="0"/>
        <pt x="394" y="328" on="1"/>
        <pt x="386" y="336" on="0"/>
        <pt x="367" y="339" on="1"/>
        <pt x="362" y="329" on="0"/>
        <pt x="362" y="308" on="1"/>
        <pt x="362" y="281" on="0"/>
        <pt x="366" y="264" on="1"/>
        <pt x="359" y="240" on="0"/>
        <pt x="338" y="233" on="1"/>
        <pt x="313" y="255" on="0"/>
        <pt x="317" y="377" on="0"/>
        <pt x="334" y="394" on="1"/>
        <pt x="338" y="388" on="0"/>
        <pt x="344" y="359" on="0"/>
        <pt x="343" y="348" on="1"/>
        <pt x="342" y="346" on="0"/>
        <pt x="343" y="344" on="0"/>
        <pt x="345" y="347" on="1"/>
        <pt x="364" y="363" on="0"/>
        <pt x="364" y="381" on="1"/>
        <pt x="364" y="420" on="0"/>
        <pt x="320" y="427" on="1"/>
        <pt x="276" y="390" on="0"/>
        <pt x="278" y="306" on="1"/>
        <pt x="279" y="271" on="0"/>
        <pt x="309" y="223" on="0"/>
        <pt x="340" y="223" on="1"/>
        <pt x="364" y="223" on="0"/>
        <pt x="372" y="248" on="1"/>
        <pt x="382" y="227" on="0"/>
        <pt x="402" y="227" on="1"/>
        <pt x="408" y="227" on="0"/>
        <pt x="410" y="232" on="1"/>
        <pt x="404" y="180" on="0"/>
        <pt x="394" y="165" on="1"/>
        <pt x="389" y="158" on="0"/>
        <pt x="381" y="153" on="1"/>
        <pt x="378" y="166" on="0"/>
        <pt x="382" y="190" on="1"/>
        <pt x="371" y="201" on="0"/>
        <pt x="353" y="201" on="1"/>
        <pt x="349" y="185" on="0"/>
        <pt x="349" y="175" on="1"/>
        <pt x="349" y="158" on="0"/>
        <pt x="360" y="143" on="0"/>
        <pt x="375" y="143" on="1"/>
        <pt x="414" y="143" on="0"/>
        <pt x="446" y="261" on="0"/>
      </contour>
      <contour>
        <pt x="441" y="341" on="1"/>
        <pt x="452" y="316" on="0"/>
        <pt x="457" y="226" on="1"/>
        <pt x="476" y="223" on="0"/>
        <pt x="481" y="244" on="1"/>
        <pt x="484" y="252" on="0"/>
        <pt x="484" y="278" on="1"/>
        <pt x="486" y="285" on="0"/>
        <pt x="498" y="304" on="0"/>
        <pt x="498" y="305" on="1"/>
        <pt x="501" y="281" on="0"/>
        <pt x="525" y="287" on="1"/>
        <pt x="522" y="310" on="0"/>
        <pt x="527" y="334" on="1"/>
        <pt x="519" y="345" on="0"/>
        <pt x="499" y="345" on="1"/>
        <pt x="494" y="335" on="0"/>
        <pt x="494" y="327" on="1"/>
        <pt x="492" y="318" on="0"/>
        <pt x="481" y="298" on="1"/>
        <pt x="480" y="321" on="0"/>
        <pt x="472" y="333" on="1"/>
        <pt x="468" y="338" on="0"/>
        <pt x="460" y="339" on="1"/>
        <pt x="450" y="341" on="0"/>
      </contour>
      <contour>
        <pt x="619" y="238" on="1"/>
        <pt x="614" y="256" on="0"/>
        <pt x="621" y="308" on="0"/>
        <pt x="628" y="316" on="1"/>
        <pt x="625" y="286" on="0"/>
        <pt x="633" y="258" on="1"/>
        <pt x="632" y="248" on="0"/>
      </contour>
      <contour>
        <pt x="704" y="297" on="1"/>
        <pt x="705" y="339" on="0"/>
        <pt x="717" y="385" on="1"/>
        <pt x="720" y="366" on="0"/>
        <pt x="713" y="310" on="0"/>
      </contour>
      <contour>
        <pt x="566" y="317" on="1"/>
        <pt x="572" y="311" on="0"/>
        <pt x="572" y="298" on="1"/>
        <pt x="572" y="269" on="0"/>
        <pt x="559" y="266" on="1"/>
        <pt x="559" y="296" on="0"/>
      </contour>
    </TTGlyph>
    <TTGlyph name="A" xMin="24" yMin="-21" xMax="717" yMax="643">
      <contour>
        <pt x="430" y="333" on="1"/>
        <pt x="485" y="270" on="0"/>
        <pt x="510" y="196" on="1"/>
        <pt x="586" y="347" on="0"/>
        <pt x="645" y="503" on="1"/>
        <pt x="648" y="509" on="0"/>
        <pt x="656" y="535" on="0"/>
        <pt x="664" y="570" on="0"/>
        <pt x="658" y="595" on="0"/>
        <pt x="647" y="595" on="1"/>
        <pt x="609" y="595" on="0"/>
        <pt x="486" y="442" on="0"/>
      </contour>
      <contour>
        <pt x="277" y="72" on="1"/>
        <pt x="204" y="-17" on="0"/>
        <pt x="126" y="-17" on="1"/>
        <pt x="78" y="-17" on="0"/>
        <pt x="24" y="45" on="0"/>
        <pt x="24" y="89" on="1"/>
        <pt x="24" y="160" on="0"/>
        <pt x="84" y="205" on="1"/>
        <pt x="56" y="245" on="0"/>
        <pt x="56" y="292" on="1"/>
        <pt x="56" y="359" on="0"/>
        <pt x="161" y="448" on="0"/>
        <pt x="230" y="448" on="1"/>
        <pt x="315" y="448" on="0"/>
        <pt x="401" y="370" on="1"/>
        <pt x="429" y="418" on="0"/>
        <pt x="459" y="467" on="0"/>
        <pt x="509" y="543" on="0"/>
        <pt x="545" y="583" on="0"/>
        <pt x="592" y="625" on="0"/>
        <pt x="638" y="643" on="0"/>
        <pt x="662" y="643" on="1"/>
        <pt x="695" y="643" on="0"/>
        <pt x="717" y="592" on="0"/>
        <pt x="711" y="558" on="1"/>
        <pt x="696" y="490" on="0"/>
        <pt x="615" y="318" on="0"/>
        <pt x="542" y="147" on="0"/>
        <pt x="531" y="71" on="1"/>
        <pt x="531" y="64" on="0"/>
        <pt x="533" y="35" on="0"/>
        <pt x="533" y="27" on="1"/>
        <pt x="533" y="8" on="0"/>
        <pt x="508" y="-21" on="0"/>
        <pt x="485" y="-21" on="1"/>
        <pt x="465" y="-21" on="0"/>
        <pt x="441" y="4" on="0"/>
        <pt x="441" y="24" on="1"/>
        <pt x="441" y="26" on="0"/>
        <pt x="405" y="36" on="1"/>
        <pt x="331" y="53" on="0"/>
      </contour>
      <contour>
        <pt x="112" y="171" on="1"/>
        <pt x="71" y="143" on="0"/>
        <pt x="71" y="91" on="1"/>
        <pt x="71" y="65" on="0"/>
        <pt x="102" y="31" on="0"/>
        <pt x="132" y="31" on="1"/>
        <pt x="179" y="31" on="0"/>
        <pt x="234" y="92" on="1"/>
        <pt x="158" y="125" on="0"/>
      </contour>
      <contour>
        <pt x="304" y="108" on="1"/>
        <pt x="356" y="86" on="0"/>
        <pt x="466" y="63" on="1"/>
        <pt x="485" y="92" on="0"/>
        <pt x="485" y="140" on="1"/>
        <pt x="485" y="165" on="0"/>
        <pt x="461" y="222" on="0"/>
        <pt x="435" y="261" on="0"/>
        <pt x="409" y="294" on="1"/>
        <pt x="395" y="271" on="0"/>
        <pt x="327" y="140" on="0"/>
      </contour>
      <contour>
        <pt x="260" y="128" on="1"/>
        <pt x="277" y="150" on="0"/>
        <pt x="312" y="206" on="0"/>
        <pt x="334" y="245" on="0"/>
        <pt x="372" y="316" on="0"/>
        <pt x="380" y="331" on="1"/>
        <pt x="300" y="404" on="0"/>
        <pt x="235" y="404" on="1"/>
        <pt x="185" y="404" on="0"/>
        <pt x="106" y="345" on="0"/>
        <pt x="106" y="293" on="1"/>
        <pt x="106" y="197" on="0"/>
      </contour>
    </TTGlyph>
    <TTGlyph name="AE" xMin="70" yMin="-27" xMax="957" yMax="649">
      <contour>
        <pt x="850" y="462" on="1"/>
        <pt x="829" y="462" on="0"/>
        <pt x="804" y="488" on="0"/>
        <pt x="804" y="520" on="0"/>
        <pt x="824" y="537" on="0"/>
        <pt x="839" y="537" on="1"/>
        <pt x="872" y="537" on="0"/>
        <pt x="879" y="506" on="1"/>
        <pt x="905" y="530" on="0"/>
        <pt x="905" y="555" on="1"/>
        <pt x="905" y="577" on="0"/>
        <pt x="865" y="605" on="0"/>
        <pt x="829" y="605" on="1"/>
        <pt x="769" y="605" on="0"/>
        <pt x="695" y="531" on="0"/>
        <pt x="695" y="474" on="1"/>
        <pt x="695" y="435" on="0"/>
        <pt x="740" y="353" on="0"/>
        <pt x="779" y="353" on="1"/>
        <pt x="796" y="353" on="0"/>
        <pt x="799" y="347" on="1"/>
        <pt x="802" y="341" on="0"/>
        <pt x="802" y="330" on="1"/>
        <pt x="802" y="320" on="0"/>
        <pt x="802" y="313" on="0"/>
        <pt x="800" y="305" on="0"/>
        <pt x="796" y="303" on="0"/>
        <pt x="792" y="303" on="1"/>
        <pt x="684" y="303" on="0"/>
        <pt x="584" y="226" on="0"/>
        <pt x="584" y="160" on="1"/>
        <pt x="584" y="92" on="0"/>
        <pt x="683" y="17" on="0"/>
        <pt x="751" y="17" on="1"/>
        <pt x="813" y="17" on="0"/>
        <pt x="909" y="83" on="0"/>
        <pt x="909" y="139" on="1"/>
        <pt x="909" y="166" on="0"/>
        <pt x="874" y="203" on="0"/>
        <pt x="841" y="203" on="1"/>
        <pt x="793" y="203" on="0"/>
        <pt x="779" y="162" on="1"/>
        <pt x="797" y="158" on="0"/>
        <pt x="819" y="127" on="0"/>
        <pt x="819" y="109" on="1"/>
        <pt x="819" y="92" on="0"/>
        <pt x="798" y="70" on="0"/>
        <pt x="783" y="70" on="1"/>
        <pt x="757" y="70" on="0"/>
        <pt x="728" y="108" on="0"/>
        <pt x="728" y="134" on="1"/>
        <pt x="728" y="174" on="0"/>
        <pt x="794" y="246" on="0"/>
        <pt x="837" y="246" on="1"/>
        <pt x="889" y="246" on="0"/>
        <pt x="957" y="185" on="0"/>
        <pt x="957" y="138" on="1"/>
        <pt x="957" y="72" on="0"/>
        <pt x="841" y="-27" on="0"/>
        <pt x="748" y="-27" on="1"/>
        <pt x="649" y="-27" on="0"/>
        <pt x="524" y="84" on="0"/>
        <pt x="524" y="158" on="1"/>
        <pt x="524" y="217" on="0"/>
        <pt x="561" y="260" on="1"/>
        <pt x="487" y="242" on="0"/>
        <pt x="415" y="242" on="1"/>
        <pt x="396" y="242" on="0"/>
        <pt x="387" y="243" on="1"/>
        <pt x="372" y="201" on="0"/>
        <pt x="354" y="153" on="0"/>
        <pt x="324" y="85" on="0"/>
        <pt x="296" y="46" on="0"/>
        <pt x="258" y="6" on="0"/>
        <pt x="212" y="-11" on="0"/>
        <pt x="185" y="-11" on="1"/>
        <pt x="137" y="-11" on="0"/>
        <pt x="70" y="46" on="0"/>
        <pt x="70" y="96" on="1"/>
        <pt x="70" y="149" on="0"/>
        <pt x="154" y="214" on="0"/>
        <pt x="201" y="214" on="1"/>
        <pt x="225" y="214" on="0"/>
        <pt x="257" y="192" on="0"/>
        <pt x="257" y="172" on="1"/>
        <pt x="257" y="155" on="0"/>
        <pt x="233" y="131" on="0"/>
        <pt x="199" y="131" on="0"/>
        <pt x="175" y="155" on="0"/>
        <pt x="175" y="172" on="1"/>
        <pt x="175" y="177" on="1"/>
        <pt x="151" y="175" on="0"/>
        <pt x="112" y="127" on="0"/>
        <pt x="112" y="98" on="1"/>
        <pt x="112" y="70" on="0"/>
        <pt x="146" y="33" on="0"/>
        <pt x="179" y="33" on="1"/>
        <pt x="203" y="33" on="0"/>
        <pt x="244" y="58" on="0"/>
        <pt x="273" y="92" on="0"/>
        <pt x="305" y="159" on="0"/>
        <pt x="324" y="208" on="0"/>
        <pt x="340" y="253" on="1"/>
        <pt x="300" y="266" on="0"/>
        <pt x="257" y="317" on="0"/>
        <pt x="257" y="347" on="1"/>
        <pt x="257" y="388" on="0"/>
        <pt x="336" y="449" on="0"/>
        <pt x="407" y="449" on="1"/>
        <pt x="417" y="449" on="1"/>
        <pt x="513" y="633" on="0"/>
        <pt x="682" y="633" on="1"/>
        <pt x="696" y="633" on="0"/>
        <pt x="738" y="628" on="1"/>
        <pt x="782" y="649" on="0"/>
        <pt x="830" y="649" on="1"/>
        <pt x="881" y="649" on="0"/>
        <pt x="953" y="603" on="0"/>
        <pt x="953" y="553" on="1"/>
        <pt x="953" y="513" on="0"/>
        <pt x="894" y="462" on="0"/>
      </contour>
      <contour>
        <pt x="705" y="337" on="1"/>
        <pt x="670" y="355" on="0"/>
        <pt x="530" y="398" on="0"/>
        <pt x="449" y="405" on="1"/>
        <pt x="428" y="360" on="0"/>
        <pt x="400" y="281" on="1"/>
        <pt x="419" y="281" on="1"/>
        <pt x="521" y="281" on="0"/>
        <pt x="670" y="325" on="0"/>
      </contour>
      <contour>
        <pt x="469" y="445" on="1"/>
        <pt x="559" y="434" on="0"/>
        <pt x="658" y="398" on="1"/>
        <pt x="640" y="438" on="0"/>
        <pt x="640" y="476" on="1"/>
        <pt x="640" y="546" on="0"/>
        <pt x="689" y="593" on="1"/>
        <pt x="551" y="588" on="0"/>
      </contour>
      <contour>
        <pt x="301" y="352" on="1"/>
        <pt x="301" y="313" on="0"/>
        <pt x="353" y="292" on="1"/>
        <pt x="381" y="370" on="0"/>
        <pt x="398" y="408" on="1"/>
        <pt x="396" y="408" on="1"/>
        <pt x="350" y="408" on="0"/>
        <pt x="301" y="376" on="0"/>
      </contour>
    </TTGlyph>
    <TTGlyph name="Aacute" xMin="24" yMin="-21" xMax="725" yMax="817">
      <component glyphName="A" x="0" y="0" flags="0x204"/>
      <component glyphName="acute.case" x="588" y="0" flags="0x4"/>
    </TTGlyph>
    <TTGlyph name="Acircumflex" xMin="24" yMin="-21" xMax="776" yMax="804">
      <component glyphName="A" x="0" y="0" flags="0x204"/>
      <component glyphName="circumflex.case" x="502" y="0" flags="0x4"/>
    </TTGlyph>
    <TTGlyph name="Adieresis" xMin="24" yMin="-21" xMax="780" yMax="755">
      <component glyphName="A" x="0" y="0" flags="0x204"/>
      <component glyphName="dieresis.case" x="498" y="0" flags="0x4"/>
    </TTGlyph>
    <TTGlyph name="Agrave" xMin="24" yMin="-21" xMax="717" yMax="817">
      <component glyphName="A" x="0" y="0" flags="0x204"/>
      <component glyphName="grave.case" x="563" y="0" flags="0x4"/>
    </TTGlyph>
    <TTGlyph name="Aring" xMin="24" yMin="-21" xMax="734" yMax="837">
      <component glyphName="A" x="0" y="0" flags="0x204"/>
      <component glyphName="ring" x="541" y="139" flags="0x4"/>
    </TTGlyph>
    <TTGlyph name="Atilde" xMin="24" yMin="-21" xMax="782" yMax="755">
      <component glyphName="A" x="0" y="0" flags="0x204"/>
      <component glyphName="tilde.case" x="496" y="0" flags="0x4"/>
    </TTGlyph>
    <TTGlyph name="B" xMin="30" yMin="-17" xMax="789" yMax="642">
      <contour>
        <pt x="680" y="433" on="1"/>
        <pt x="732" y="412" on="0"/>
        <pt x="789" y="327" on="0"/>
        <pt x="789" y="272" on="1"/>
        <pt x="789" y="217" on="0"/>
        <pt x="754" y="113" on="0"/>
        <pt x="690" y="32" on="0"/>
        <pt x="601" y="-17" on="0"/>
        <pt x="547" y="-17" on="1"/>
        <pt x="520" y="-17" on="0"/>
        <pt x="473" y="-4" on="0"/>
        <pt x="437" y="21" on="0"/>
        <pt x="416" y="59" on="0"/>
        <pt x="416" y="85" on="1"/>
        <pt x="416" y="127" on="0"/>
        <pt x="458" y="187" on="0"/>
        <pt x="497" y="187" on="1"/>
        <pt x="522" y="187" on="0"/>
        <pt x="551" y="155" on="0"/>
        <pt x="551" y="135" on="1"/>
        <pt x="551" y="97" on="0"/>
        <pt x="513" y="97" on="1"/>
        <pt x="482" y="97" on="0"/>
        <pt x="464" y="123" on="1"/>
        <pt x="458" y="112" on="0"/>
        <pt x="458" y="96" on="1"/>
        <pt x="458" y="65" on="0"/>
        <pt x="506" y="25" on="0"/>
        <pt x="540" y="25" on="1"/>
        <pt x="585" y="25" on="0"/>
        <pt x="659" y="67" on="0"/>
        <pt x="712" y="137" on="0"/>
        <pt x="742" y="227" on="0"/>
        <pt x="742" y="275" on="1"/>
        <pt x="742" y="313" on="0"/>
        <pt x="704" y="377" on="0"/>
        <pt x="669" y="388" on="1"/>
        <pt x="663" y="363" on="0"/>
        <pt x="627" y="310" on="0"/>
        <pt x="580" y="267" on="0"/>
        <pt x="527" y="239" on="0"/>
        <pt x="503" y="239" on="1"/>
        <pt x="450" y="239" on="0"/>
        <pt x="450" y="284" on="1"/>
        <pt x="450" y="317" on="0"/>
        <pt x="482" y="374" on="0"/>
        <pt x="533" y="416" on="0"/>
        <pt x="599" y="440" on="0"/>
        <pt x="634" y="440" on="1"/>
        <pt x="640" y="459" on="0"/>
        <pt x="640" y="481" on="1"/>
        <pt x="640" y="505" on="0"/>
        <pt x="626" y="546" on="0"/>
        <pt x="599" y="577" on="0"/>
        <pt x="559" y="595" on="0"/>
        <pt x="534" y="595" on="1"/>
        <pt x="523" y="595" on="0"/>
        <pt x="520" y="594" on="1"/>
        <pt x="413" y="292" on="0"/>
        <pt x="219" y="-13" on="0"/>
        <pt x="125" y="-13" on="1"/>
        <pt x="83" y="-13" on="0"/>
        <pt x="30" y="49" on="0"/>
        <pt x="30" y="106" on="1"/>
        <pt x="30" y="168" on="0"/>
        <pt x="78" y="296" on="0"/>
        <pt x="158" y="415" on="0"/>
        <pt x="261" y="520" on="0"/>
        <pt x="373" y="597" on="0"/>
        <pt x="484" y="642" on="0"/>
        <pt x="531" y="642" on="1"/>
        <pt x="564" y="642" on="0"/>
        <pt x="621" y="616" on="0"/>
        <pt x="662" y="571" on="0"/>
        <pt x="686" y="512" on="0"/>
        <pt x="686" y="479" on="1"/>
        <pt x="686" y="455" on="0"/>
      </contour>
      <contour>
        <pt x="509" y="280" on="1"/>
        <pt x="519" y="280" on="0"/>
        <pt x="552" y="302" on="0"/>
        <pt x="587" y="337" on="0"/>
        <pt x="616" y="378" on="0"/>
        <pt x="621" y="397" on="1"/>
        <pt x="611" y="397" on="1"/>
        <pt x="590" y="397" on="0"/>
        <pt x="548" y="376" on="0"/>
        <pt x="515" y="345" on="0"/>
        <pt x="495" y="309" on="0"/>
        <pt x="495" y="294" on="1"/>
        <pt x="495" y="280" on="0"/>
      </contour>
      <contour>
        <pt x="463" y="582" on="1"/>
        <pt x="396" y="564" on="0"/>
        <pt x="217" y="415" on="0"/>
        <pt x="77" y="200" on="0"/>
        <pt x="77" y="109" on="1"/>
        <pt x="77" y="75" on="0"/>
        <pt x="104" y="36" on="0"/>
        <pt x="127" y="36" on="1"/>
        <pt x="158" y="36" on="0"/>
        <pt x="228" y="94" on="0"/>
        <pt x="282" y="172" on="0"/>
        <pt x="343" y="290" on="0"/>
        <pt x="377" y="367" on="0"/>
      </contour>
    </TTGlyph>
    <TTGlyph name="C" xMin="41" yMin="-11" xMax="533" yMax="639">
      <contour>
        <pt x="349" y="437" on="1"/>
        <pt x="349" y="453" on="0"/>
        <pt x="370" y="476" on="0"/>
        <pt x="385" y="476" on="1"/>
        <pt x="402" y="476" on="0"/>
        <pt x="420" y="450" on="0"/>
        <pt x="426" y="425" on="0"/>
        <pt x="428" y="425" on="1"/>
        <pt x="452" y="425" on="0"/>
        <pt x="484" y="470" on="0"/>
        <pt x="484" y="499" on="1"/>
        <pt x="484" y="546" on="0"/>
        <pt x="433" y="594" on="0"/>
        <pt x="392" y="594" on="1"/>
        <pt x="339" y="594" on="0"/>
        <pt x="244" y="547" on="0"/>
        <pt x="176" y="471" on="0"/>
        <pt x="124" y="375" on="0"/>
        <pt x="99" y="274" on="0"/>
        <pt x="99" y="228" on="1"/>
        <pt x="99" y="146" on="0"/>
        <pt x="189" y="38" on="0"/>
        <pt x="281" y="38" on="1"/>
        <pt x="326" y="38" on="0"/>
        <pt x="413" y="84" on="0"/>
        <pt x="429" y="119" on="1"/>
        <pt x="414" y="123" on="0"/>
        <pt x="393" y="149" on="0"/>
        <pt x="393" y="167" on="1"/>
        <pt x="393" y="189" on="0"/>
        <pt x="422" y="215" on="0"/>
        <pt x="460" y="215" on="0"/>
        <pt x="488" y="189" on="0"/>
        <pt x="488" y="166" on="1"/>
        <pt x="488" y="109" on="0"/>
        <pt x="369" y="-11" on="0"/>
        <pt x="277" y="-11" on="1"/>
        <pt x="165" y="-11" on="0"/>
        <pt x="41" y="124" on="0"/>
        <pt x="41" y="228" on="1"/>
        <pt x="41" y="297" on="0"/>
        <pt x="89" y="440" on="0"/>
        <pt x="173" y="562" on="0"/>
        <pt x="305" y="639" on="0"/>
        <pt x="381" y="639" on="1"/>
        <pt x="445" y="639" on="0"/>
        <pt x="533" y="573" on="0"/>
        <pt x="533" y="507" on="1"/>
        <pt x="533" y="457" on="0"/>
        <pt x="465" y="384" on="0"/>
        <pt x="413" y="384" on="1"/>
        <pt x="391" y="384" on="0"/>
        <pt x="349" y="415" on="0"/>
      </contour>
    </TTGlyph>
    <TTGlyph name="Ccedilla" xMin="32" yMin="-184" xMax="524" yMax="639">
      <contour>
        <pt x="244" y="-10" on="1"/>
        <pt x="192" y="-6" on="0"/>
        <pt x="113" y="34" on="0"/>
        <pt x="59" y="97" on="0"/>
        <pt x="32" y="181" on="0"/>
        <pt x="32" y="228" on="1"/>
        <pt x="32" y="273" on="0"/>
        <pt x="53" y="369" on="0"/>
        <pt x="93" y="460" on="0"/>
        <pt x="152" y="542" on="0"/>
        <pt x="227" y="603" on="0"/>
        <pt x="319" y="639" on="0"/>
        <pt x="372" y="639" on="1"/>
        <pt x="401" y="639" on="0"/>
        <pt x="456" y="624" on="0"/>
        <pt x="498" y="592" on="0"/>
        <pt x="524" y="542" on="0"/>
        <pt x="524" y="507" on="1"/>
        <pt x="524" y="483" on="0"/>
        <pt x="506" y="438" on="0"/>
        <pt x="475" y="404" on="0"/>
        <pt x="431" y="384" on="0"/>
        <pt x="404" y="384" on="1"/>
        <pt x="394" y="384" on="0"/>
        <pt x="371" y="392" on="0"/>
        <pt x="352" y="406" on="0"/>
        <pt x="340" y="425" on="0"/>
        <pt x="340" y="437" on="1"/>
        <pt x="340" y="453" on="0"/>
        <pt x="361" y="476" on="0"/>
        <pt x="376" y="476" on="1"/>
        <pt x="391" y="476" on="0"/>
        <pt x="405" y="460" on="0"/>
        <pt x="413" y="441" on="0"/>
        <pt x="416" y="425" on="0"/>
        <pt x="419" y="425" on="1"/>
        <pt x="444" y="425" on="0"/>
        <pt x="475" y="470" on="0"/>
        <pt x="475" y="499" on="1"/>
        <pt x="475" y="549" on="0"/>
        <pt x="422" y="594" on="0"/>
        <pt x="383" y="594" on="1"/>
        <pt x="315" y="594" on="0"/>
        <pt x="206" y="522" on="0"/>
        <pt x="130" y="414" on="0"/>
        <pt x="90" y="285" on="0"/>
        <pt x="90" y="228" on="1"/>
        <pt x="90" y="190" on="0"/>
        <pt x="110" y="121" on="0"/>
        <pt x="154" y="69" on="0"/>
        <pt x="223" y="38" on="0"/>
        <pt x="272" y="38" on="1"/>
        <pt x="293" y="38" on="0"/>
        <pt x="339" y="50" on="0"/>
        <pt x="379" y="71" on="0"/>
        <pt x="412" y="101" on="0"/>
        <pt x="420" y="119" on="1"/>
        <pt x="405" y="123" on="0"/>
        <pt x="384" y="149" on="0"/>
        <pt x="384" y="167" on="1"/>
        <pt x="384" y="190" on="0"/>
        <pt x="414" y="215" on="0"/>
        <pt x="432" y="215" on="1"/>
        <pt x="449" y="215" on="0"/>
        <pt x="479" y="191" on="0"/>
        <pt x="479" y="166" on="1"/>
        <pt x="479" y="143" on="0"/>
        <pt x="454" y="85" on="0"/>
        <pt x="405" y="33" on="0"/>
        <pt x="334" y="-6" on="0"/>
        <pt x="288" y="-10" on="1"/>
        <pt x="288" y="-35" on="1"/>
        <pt x="319" y="-40" on="0"/>
        <pt x="364" y="-65" on="0"/>
        <pt x="364" y="-97" on="1"/>
        <pt x="364" y="-145" on="0"/>
        <pt x="283" y="-184" on="0"/>
        <pt x="210" y="-184" on="1"/>
        <pt x="201" y="-184" on="0"/>
        <pt x="192" y="-170" on="0"/>
        <pt x="192" y="-162" on="1"/>
        <pt x="192" y="-150" on="0"/>
        <pt x="202" y="-144" on="0"/>
        <pt x="210" y="-144" on="1"/>
        <pt x="228" y="-144" on="0"/>
        <pt x="264" y="-143" on="0"/>
        <pt x="292" y="-137" on="0"/>
        <pt x="309" y="-123" on="0"/>
        <pt x="309" y="-111" on="1"/>
        <pt x="309" y="-97" on="0"/>
        <pt x="281" y="-86" on="0"/>
        <pt x="258" y="-85" on="1"/>
        <pt x="253" y="-84" on="0"/>
        <pt x="244" y="-78" on="0"/>
        <pt x="244" y="-64" on="1"/>
      </contour>
    </TTGlyph>
    <TTGlyph name="D" xMin="34" yMin="-20" xMax="707" yMax="626">
      <contour>
        <pt x="106" y="-16" on="1"/>
        <pt x="75" y="-15" on="0"/>
        <pt x="34" y="20" on="0"/>
        <pt x="34" y="52" on="1"/>
        <pt x="34" y="122" on="0"/>
        <pt x="182" y="255" on="0"/>
        <pt x="256" y="255" on="1"/>
        <pt x="284" y="255" on="0"/>
        <pt x="309" y="241" on="1"/>
        <pt x="316" y="254" on="0"/>
        <pt x="357" y="337" on="0"/>
        <pt x="375" y="372" on="0"/>
        <pt x="415" y="442" on="0"/>
        <pt x="445" y="482" on="0"/>
        <pt x="487" y="530" on="0"/>
        <pt x="509" y="548" on="1"/>
        <pt x="444" y="582" on="0"/>
        <pt x="363" y="582" on="1"/>
        <pt x="270" y="582" on="0"/>
        <pt x="125" y="493" on="0"/>
        <pt x="125" y="418" on="1"/>
        <pt x="125" y="394" on="0"/>
        <pt x="154" y="365" on="0"/>
        <pt x="174" y="365" on="1"/>
        <pt x="192" y="365" on="0"/>
        <pt x="209" y="377" on="1"/>
        <pt x="198" y="390" on="0"/>
        <pt x="198" y="424" on="0"/>
        <pt x="221" y="449" on="0"/>
        <pt x="237" y="449" on="1"/>
        <pt x="255" y="449" on="0"/>
        <pt x="276" y="423" on="0"/>
        <pt x="276" y="404" on="1"/>
        <pt x="276" y="372" on="0"/>
        <pt x="215" y="320" on="0"/>
        <pt x="173" y="320" on="1"/>
        <pt x="133" y="320" on="0"/>
        <pt x="80" y="373" on="0"/>
        <pt x="80" y="425" on="1"/>
        <pt x="80" y="489" on="0"/>
        <pt x="162" y="583" on="0"/>
        <pt x="284" y="626" on="0"/>
        <pt x="355" y="626" on="1"/>
        <pt x="439" y="626" on="0"/>
        <pt x="576" y="566" on="0"/>
        <pt x="662" y="464" on="0"/>
        <pt x="707" y="338" on="0"/>
        <pt x="707" y="270" on="1"/>
        <pt x="707" y="209" on="0"/>
        <pt x="667" y="80" on="0"/>
        <pt x="574" y="-20" on="0"/>
        <pt x="513" y="-20" on="1"/>
        <pt x="481" y="-20" on="0"/>
        <pt x="424" y="22" on="0"/>
        <pt x="390" y="73" on="0"/>
        <pt x="341" y="149" on="0"/>
        <pt x="326" y="167" on="1"/>
        <pt x="301" y="124" on="0"/>
        <pt x="266" y="74" on="0"/>
        <pt x="210" y="13" on="0"/>
        <pt x="145" y="-16" on="0"/>
      </contour>
      <contour>
        <pt x="349" y="207" on="1"/>
        <pt x="368" y="185" on="0"/>
        <pt x="431" y="83" on="0"/>
        <pt x="485" y="25" on="0"/>
        <pt x="515" y="25" on="1"/>
        <pt x="577" y="25" on="0"/>
        <pt x="660" y="192" on="0"/>
        <pt x="660" y="271" on="1"/>
        <pt x="660" y="347" on="0"/>
        <pt x="601" y="480" on="0"/>
        <pt x="548" y="522" on="1"/>
        <pt x="520" y="498" on="0"/>
        <pt x="472" y="440" on="0"/>
        <pt x="429" y="368" on="0"/>
        <pt x="402" y="316" on="0"/>
        <pt x="359" y="227" on="0"/>
      </contour>
      <contour>
        <pt x="253" y="211" on="1"/>
        <pt x="201" y="211" on="0"/>
        <pt x="84" y="110" on="0"/>
        <pt x="84" y="60" on="1"/>
        <pt x="84" y="26" on="0"/>
        <pt x="117" y="26" on="1"/>
        <pt x="190" y="26" on="0"/>
        <pt x="288" y="202" on="1"/>
        <pt x="268" y="211" on="0"/>
      </contour>
    </TTGlyph>
    <TTGlyph name="E" xMin="25" yMin="-34" xMax="489" yMax="642">
      <contour>
        <pt x="364" y="97" on="1"/>
        <pt x="333" y="114" on="0"/>
        <pt x="333" y="152" on="1"/>
        <pt x="333" y="171" on="0"/>
        <pt x="355" y="193" on="0"/>
        <pt x="370" y="193" on="1"/>
        <pt x="388" y="193" on="0"/>
        <pt x="417" y="163" on="0"/>
        <pt x="417" y="136" on="1"/>
        <pt x="417" y="68" on="0"/>
        <pt x="276" y="-34" on="0"/>
        <pt x="203" y="-34" on="1"/>
        <pt x="117" y="-34" on="0"/>
        <pt x="25" y="63" on="0"/>
        <pt x="25" y="141" on="1"/>
        <pt x="25" y="202" on="0"/>
        <pt x="104" y="316" on="0"/>
        <pt x="175" y="346" on="1"/>
        <pt x="156" y="390" on="0"/>
        <pt x="156" y="422" on="1"/>
        <pt x="156" y="523" on="0"/>
        <pt x="280" y="642" on="0"/>
        <pt x="374" y="642" on="1"/>
        <pt x="423" y="642" on="0"/>
        <pt x="489" y="598" on="0"/>
        <pt x="489" y="548" on="1"/>
        <pt x="489" y="509" on="0"/>
        <pt x="437" y="450" on="0"/>
        <pt x="393" y="450" on="1"/>
        <pt x="368" y="450" on="0"/>
        <pt x="341" y="475" on="0"/>
        <pt x="341" y="491" on="1"/>
        <pt x="341" y="504" on="0"/>
        <pt x="356" y="522" on="0"/>
        <pt x="370" y="522" on="1"/>
        <pt x="392" y="522" on="0"/>
        <pt x="412" y="493" on="1"/>
        <pt x="439" y="515" on="0"/>
        <pt x="439" y="548" on="1"/>
        <pt x="439" y="602" on="0"/>
        <pt x="372" y="602" on="1"/>
        <pt x="303" y="602" on="0"/>
        <pt x="208" y="497" on="0"/>
        <pt x="208" y="426" on="1"/>
        <pt x="208" y="399" on="0"/>
        <pt x="215" y="374" on="1"/>
        <pt x="255" y="399" on="0"/>
        <pt x="318" y="399" on="1"/>
        <pt x="406" y="399" on="0"/>
        <pt x="406" y="334" on="1"/>
        <pt x="406" y="322" on="0"/>
        <pt x="399" y="298" on="0"/>
        <pt x="381" y="270" on="0"/>
        <pt x="342" y="251" on="0"/>
        <pt x="313" y="250" on="1"/>
        <pt x="241" y="250" on="0"/>
        <pt x="194" y="306" on="1"/>
        <pt x="140" y="284" on="0"/>
        <pt x="80" y="187" on="0"/>
        <pt x="80" y="137" on="1"/>
        <pt x="80" y="76" on="0"/>
        <pt x="143" y="10" on="0"/>
        <pt x="203" y="10" on="1"/>
        <pt x="251" y="10" on="0"/>
        <pt x="346" y="59" on="0"/>
      </contour>
      <contour>
        <pt x="304" y="291" on="1"/>
        <pt x="332" y="293" on="0"/>
        <pt x="362" y="316" on="0"/>
        <pt x="362" y="330" on="1"/>
        <pt x="362" y="358" on="0"/>
        <pt x="323" y="358" on="1"/>
        <pt x="275" y="358" on="0"/>
        <pt x="233" y="334" on="1"/>
        <pt x="260" y="291" on="0"/>
      </contour>
    </TTGlyph>
    <TTGlyph name="Eacute" xMin="29" yMin="-34" xMax="493" yMax="817">
      <component glyphName="E" x="4" y="0" flags="0x204"/>
      <component glyphName="acute.case" x="318" y="0" flags="0x4"/>
    </TTGlyph>
    <TTGlyph name="Ecircumflex" xMin="29" yMin="-34" xMax="496" yMax="804">
      <component glyphName="E" x="4" y="0" flags="0x204"/>
      <component glyphName="circumflex.case" x="222" y="0" flags="0x4"/>
    </TTGlyph>
    <TTGlyph name="Edieresis" xMin="29" yMin="-34" xMax="500" yMax="755">
      <component glyphName="E" x="4" y="0" flags="0x204"/>
      <component glyphName="dieresis.case" x="218" y="0" flags="0x4"/>
    </TTGlyph>
    <TTGlyph name="Egrave" xMin="29" yMin="-34" xMax="493" yMax="817">
      <component glyphName="E" x="4" y="0" flags="0x204"/>
      <component glyphName="grave.case" x="299" y="0" flags="0x4"/>
    </TTGlyph>
    <TTGlyph name="Eth" xMin="33" yMin="-11" xMax="749" yMax="630">
      <contour>
        <pt x="179" y="374" on="1"/>
        <pt x="179" y="390" on="0"/>
        <pt x="204" y="414" on="0"/>
        <pt x="221" y="414" on="1"/>
        <pt x="242" y="414" on="0"/>
        <pt x="264" y="385" on="0"/>
        <pt x="264" y="363" on="1"/>
        <pt x="264" y="322" on="0"/>
        <pt x="209" y="276" on="0"/>
        <pt x="174" y="276" on="1"/>
        <pt x="135" y="276" on="0"/>
        <pt x="82" y="329" on="0"/>
        <pt x="82" y="378" on="1"/>
        <pt x="82" y="436" on="0"/>
        <pt x="147" y="534" on="0"/>
        <pt x="249" y="596" on="0"/>
        <pt x="369" y="630" on="0"/>
        <pt x="427" y="630" on="1"/>
        <pt x="491" y="630" on="0"/>
        <pt x="603" y="591" on="0"/>
        <pt x="696" y="511" on="0"/>
        <pt x="749" y="374" on="0"/>
        <pt x="749" y="285" on="1"/>
        <pt x="749" y="254" on="0"/>
        <pt x="738" y="182" on="0"/>
        <pt x="708" y="99" on="0"/>
        <pt x="664" y="34" on="0"/>
        <pt x="589" y="-10" on="0"/>
        <pt x="543" y="-10" on="1"/>
        <pt x="502" y="-10" on="0"/>
        <pt x="442" y="40" on="0"/>
        <pt x="417" y="99" on="0"/>
        <pt x="389" y="149" on="0"/>
        <pt x="375" y="149" on="1"/>
        <pt x="369" y="149" on="0"/>
        <pt x="361" y="144" on="1"/>
        <pt x="283" y="-11" on="0"/>
        <pt x="160" y="-11" on="1"/>
        <pt x="107" y="-11" on="0"/>
        <pt x="33" y="52" on="0"/>
        <pt x="33" y="111" on="1"/>
        <pt x="33" y="159" on="0"/>
        <pt x="92" y="225" on="0"/>
        <pt x="144" y="225" on="1"/>
        <pt x="174" y="225" on="0"/>
        <pt x="208" y="184" on="0"/>
        <pt x="208" y="158" on="1"/>
        <pt x="208" y="140" on="0"/>
        <pt x="186" y="115" on="0"/>
        <pt x="165" y="115" on="1"/>
        <pt x="147" y="115" on="0"/>
        <pt x="119" y="141" on="0"/>
        <pt x="119" y="164" on="1"/>
        <pt x="119" y="167" on="0"/>
        <pt x="121" y="179" on="1"/>
        <pt x="104" y="178" on="0"/>
        <pt x="80" y="134" on="0"/>
        <pt x="80" y="107" on="1"/>
        <pt x="80" y="68" on="0"/>
        <pt x="119" y="31" on="0"/>
        <pt x="150" y="31" on="1"/>
        <pt x="285" y="31" on="0"/>
        <pt x="371" y="315" on="1"/>
        <pt x="303" y="315" on="1"/>
        <pt x="288" y="315" on="0"/>
        <pt x="288" y="338" on="1"/>
        <pt x="288" y="354" on="0"/>
        <pt x="291" y="363" on="0"/>
        <pt x="299" y="363" on="1"/>
        <pt x="385" y="363" on="1"/>
        <pt x="436" y="583" on="1"/>
        <pt x="321" y="583" on="0"/>
        <pt x="127" y="458" on="0"/>
        <pt x="127" y="374" on="1"/>
        <pt x="127" y="348" on="0"/>
        <pt x="158" y="315" on="0"/>
        <pt x="178" y="315" on="1"/>
        <pt x="199" y="315" on="0"/>
        <pt x="214" y="334" on="1"/>
        <pt x="199" y="336" on="0"/>
        <pt x="179" y="359" on="0"/>
      </contour>
      <contour>
        <pt x="550" y="315" on="1"/>
        <pt x="423" y="315" on="1"/>
        <pt x="405" y="244" on="0"/>
        <pt x="383" y="192" on="1"/>
        <pt x="403" y="190" on="0"/>
        <pt x="433" y="157" on="0"/>
        <pt x="453" y="113" on="0"/>
        <pt x="474" y="69" on="0"/>
        <pt x="512" y="36" on="0"/>
        <pt x="539" y="34" on="1"/>
        <pt x="586" y="34" on="0"/>
        <pt x="661" y="117" on="0"/>
        <pt x="697" y="229" on="0"/>
        <pt x="697" y="283" on="1"/>
        <pt x="697" y="416" on="0"/>
        <pt x="580" y="561" on="0"/>
        <pt x="487" y="578" on="1"/>
        <pt x="480" y="556" on="0"/>
        <pt x="444" y="395" on="0"/>
        <pt x="436" y="363" on="1"/>
        <pt x="555" y="363" on="1"/>
        <pt x="563" y="363" on="0"/>
        <pt x="566" y="354" on="0"/>
        <pt x="566" y="338" on="1"/>
        <pt x="566" y="315" on="0"/>
      </contour>
    </TTGlyph>
    <TTGlyph name="Euro" xMin="35" yMin="-11" xMax="493" yMax="639">
      <contour>
        <pt x="262" y="220" on="1"/>
        <pt x="146" y="220" on="1"/>
        <pt x="148" y="140" on="0"/>
        <pt x="220" y="38" on="0"/>
        <pt x="292" y="38" on="1"/>
        <pt x="327" y="38" on="0"/>
        <pt x="398" y="84" on="0"/>
        <pt x="410" y="119" on="1"/>
        <pt x="398" y="123" on="0"/>
        <pt x="381" y="149" on="0"/>
        <pt x="381" y="167" on="1"/>
        <pt x="381" y="189" on="0"/>
        <pt x="405" y="215" on="0"/>
        <pt x="435" y="215" on="0"/>
        <pt x="457" y="189" on="0"/>
        <pt x="457" y="166" on="1"/>
        <pt x="457" y="109" on="0"/>
        <pt x="363" y="-11" on="0"/>
        <pt x="289" y="-11" on="1"/>
        <pt x="201" y="-11" on="0"/>
        <pt x="102" y="118" on="0"/>
        <pt x="100" y="220" on="1"/>
        <pt x="50" y="220" on="1"/>
        <pt x="35" y="220" on="0"/>
        <pt x="35" y="243" on="1"/>
        <pt x="35" y="259" on="0"/>
        <pt x="38" y="268" on="0"/>
        <pt x="46" y="268" on="1"/>
        <pt x="101" y="268" on="1"/>
        <pt x="105" y="302" on="0"/>
        <pt x="108" y="320" on="1"/>
        <pt x="50" y="320" on="1"/>
        <pt x="35" y="320" on="0"/>
        <pt x="35" y="343" on="1"/>
        <pt x="35" y="359" on="0"/>
        <pt x="38" y="368" on="0"/>
        <pt x="46" y="368" on="1"/>
        <pt x="118" y="368" on="1"/>
        <pt x="148" y="483" on="0"/>
        <pt x="282" y="639" on="0"/>
        <pt x="372" y="639" on="1"/>
        <pt x="423" y="639" on="0"/>
        <pt x="493" y="573" on="0"/>
        <pt x="493" y="507" on="1"/>
        <pt x="493" y="457" on="0"/>
        <pt x="439" y="384" on="0"/>
        <pt x="397" y="384" on="1"/>
        <pt x="380" y="384" on="0"/>
        <pt x="346" y="415" on="0"/>
        <pt x="346" y="437" on="1"/>
        <pt x="346" y="453" on="0"/>
        <pt x="363" y="476" on="0"/>
        <pt x="375" y="476" on="1"/>
        <pt x="389" y="476" on="0"/>
        <pt x="403" y="450" on="0"/>
        <pt x="407" y="425" on="0"/>
        <pt x="409" y="425" on="1"/>
        <pt x="429" y="425" on="0"/>
        <pt x="454" y="469" on="0"/>
        <pt x="454" y="499" on="1"/>
        <pt x="454" y="546" on="0"/>
        <pt x="414" y="594" on="0"/>
        <pt x="381" y="594" on="1"/>
        <pt x="308" y="594" on="0"/>
        <pt x="196" y="464" on="0"/>
        <pt x="167" y="368" on="1"/>
        <pt x="297" y="368" on="1"/>
        <pt x="305" y="368" on="0"/>
        <pt x="308" y="359" on="0"/>
        <pt x="308" y="343" on="1"/>
        <pt x="308" y="320" on="0"/>
        <pt x="292" y="320" on="1"/>
        <pt x="155" y="320" on="1"/>
        <pt x="149" y="283" on="0"/>
        <pt x="148" y="268" on="1"/>
        <pt x="267" y="268" on="1"/>
        <pt x="275" y="268" on="0"/>
        <pt x="278" y="259" on="0"/>
        <pt x="278" y="243" on="1"/>
        <pt x="278" y="220" on="0"/>
      </contour>
    </TTGlyph>
    <TTGlyph name="F" xMin="30" yMin="-17" xMax="623" yMax="638">
      <contour>
        <pt x="511" y="173" on="1"/>
        <pt x="470" y="173" on="0"/>
        <pt x="411" y="208" on="0"/>
        <pt x="378" y="241" on="1"/>
        <pt x="367" y="184" on="0"/>
        <pt x="340" y="101" on="0"/>
        <pt x="299" y="24" on="0"/>
        <pt x="238" y="-17" on="0"/>
        <pt x="198" y="-17" on="1"/>
        <pt x="147" y="-17" on="0"/>
        <pt x="82" y="40" on="0"/>
        <pt x="82" y="88" on="1"/>
        <pt x="82" y="111" on="0"/>
        <pt x="111" y="158" on="0"/>
        <pt x="135" y="158" on="1"/>
        <pt x="151" y="158" on="0"/>
        <pt x="174" y="134" on="0"/>
        <pt x="174" y="117" on="1"/>
        <pt x="174" y="103" on="0"/>
        <pt x="148" y="81" on="0"/>
        <pt x="134" y="78" on="1"/>
        <pt x="134" y="58" on="0"/>
        <pt x="164" y="26" on="0"/>
        <pt x="189" y="26" on="1"/>
        <pt x="221" y="26" on="0"/>
        <pt x="271" y="67" on="0"/>
        <pt x="305" y="147" on="0"/>
        <pt x="325" y="225" on="0"/>
        <pt x="336" y="282" on="1"/>
        <pt x="290" y="321" on="0"/>
        <pt x="247" y="321" on="1"/>
        <pt x="219" y="321" on="0"/>
        <pt x="175" y="292" on="0"/>
        <pt x="175" y="244" on="0"/>
        <pt x="196" y="244" on="1"/>
        <pt x="204" y="244" on="0"/>
        <pt x="231" y="263" on="0"/>
        <pt x="234" y="263" on="1"/>
        <pt x="243" y="263" on="0"/>
        <pt x="265" y="236" on="0"/>
        <pt x="265" y="226" on="1"/>
        <pt x="265" y="192" on="0"/>
        <pt x="221" y="192" on="1"/>
        <pt x="186" y="192" on="0"/>
        <pt x="132" y="229" on="0"/>
        <pt x="132" y="266" on="1"/>
        <pt x="132" y="311" on="0"/>
        <pt x="196" y="367" on="0"/>
        <pt x="244" y="367" on="1"/>
        <pt x="296" y="367" on="0"/>
        <pt x="344" y="328" on="1"/>
        <pt x="356" y="400" on="0"/>
        <pt x="368" y="449" on="1"/>
        <pt x="331" y="462" on="0"/>
        <pt x="230" y="509" on="0"/>
        <pt x="159" y="538" on="0"/>
        <pt x="138" y="538" on="1"/>
        <pt x="111" y="538" on="0"/>
        <pt x="77" y="503" on="0"/>
        <pt x="77" y="469" on="1"/>
        <pt x="77" y="432" on="0"/>
        <pt x="108" y="432" on="1"/>
        <pt x="124" y="432" on="0"/>
        <pt x="151" y="477" on="0"/>
        <pt x="159" y="477" on="1"/>
        <pt x="169" y="477" on="0"/>
        <pt x="190" y="455" on="0"/>
        <pt x="190" y="445" on="1"/>
        <pt x="190" y="422" on="0"/>
        <pt x="146" y="390" on="0"/>
        <pt x="115" y="390" on="1"/>
        <pt x="74" y="390" on="0"/>
        <pt x="30" y="436" on="0"/>
        <pt x="30" y="474" on="1"/>
        <pt x="30" y="526" on="0"/>
        <pt x="89" y="585" on="0"/>
        <pt x="135" y="585" on="1"/>
        <pt x="173" y="585" on="0"/>
        <pt x="340" y="501" on="0"/>
        <pt x="379" y="490" on="1"/>
        <pt x="427" y="638" on="0"/>
        <pt x="519" y="638" on="1"/>
        <pt x="565" y="638" on="0"/>
        <pt x="614" y="595" on="0"/>
        <pt x="614" y="562" on="1"/>
        <pt x="614" y="516" on="0"/>
        <pt x="533" y="431" on="0"/>
        <pt x="470" y="431" on="1"/>
        <pt x="445" y="431" on="0"/>
        <pt x="415" y="436" on="1"/>
        <pt x="409" y="409" on="0"/>
        <pt x="390" y="302" on="0"/>
        <pt x="387" y="287" on="1"/>
        <pt x="410" y="264" on="0"/>
        <pt x="437" y="241" on="0"/>
        <pt x="484" y="219" on="0"/>
        <pt x="508" y="219" on="1"/>
        <pt x="536" y="219" on="0"/>
        <pt x="580" y="248" on="0"/>
        <pt x="580" y="296" on="0"/>
        <pt x="559" y="296" on="1"/>
        <pt x="551" y="296" on="0"/>
        <pt x="525" y="277" on="0"/>
        <pt x="522" y="277" on="1"/>
        <pt x="512" y="277" on="0"/>
        <pt x="490" y="304" on="0"/>
        <pt x="490" y="314" on="1"/>
        <pt x="490" y="348" on="0"/>
        <pt x="534" y="348" on="1"/>
        <pt x="569" y="348" on="0"/>
        <pt x="623" y="311" on="0"/>
        <pt x="623" y="274" on="1"/>
        <pt x="623" y="229" on="0"/>
        <pt x="559" y="173" on="0"/>
      </contour>
      <contour>
        <pt x="483" y="584" on="1"/>
        <pt x="447" y="555" on="0"/>
        <pt x="426" y="478" on="1"/>
        <pt x="447" y="475" on="0"/>
        <pt x="468" y="475" on="1"/>
        <pt x="504" y="475" on="0"/>
        <pt x="563" y="524" on="0"/>
        <pt x="563" y="565" on="1"/>
        <pt x="563" y="581" on="0"/>
        <pt x="541" y="602" on="0"/>
        <pt x="525" y="602" on="1"/>
        <pt x="504" y="602" on="0"/>
      </contour>
    </TTGlyph>
    <TTGlyph name="G" xMin="31" yMin="-323" xMax="592" yMax="644">
      <contour>
        <pt x="133" y="-165" on="1"/>
        <pt x="133" y="-145" on="0"/>
        <pt x="158" y="-118" on="0"/>
        <pt x="177" y="-118" on="1"/>
        <pt x="195" y="-118" on="0"/>
        <pt x="221" y="-145" on="0"/>
        <pt x="222" y="-164" on="1"/>
        <pt x="235" y="-152" on="0"/>
        <pt x="235" y="-134" on="1"/>
        <pt x="235" y="-108" on="0"/>
        <pt x="202" y="-77" on="0"/>
        <pt x="172" y="-77" on="1"/>
        <pt x="137" y="-77" on="0"/>
        <pt x="81" y="-125" on="0"/>
        <pt x="81" y="-165" on="1"/>
        <pt x="81" y="-209" on="0"/>
        <pt x="140" y="-278" on="0"/>
        <pt x="188" y="-278" on="1"/>
        <pt x="206" y="-278" on="0"/>
        <pt x="238" y="-266" on="0"/>
        <pt x="261" y="-240" on="0"/>
        <pt x="280" y="-213" on="0"/>
        <pt x="293" y="-171" on="0"/>
        <pt x="303" y="-140" on="0"/>
        <pt x="310" y="-91" on="0"/>
        <pt x="313" y="-66" on="0"/>
        <pt x="317" y="-21" on="0"/>
        <pt x="318" y="-16" on="1"/>
        <pt x="196" y="2" on="0"/>
        <pt x="71" y="149" on="0"/>
        <pt x="71" y="265" on="1"/>
        <pt x="71" y="431" on="0"/>
        <pt x="280" y="644" on="0"/>
        <pt x="450" y="644" on="1"/>
        <pt x="592" y="644" on="0"/>
        <pt x="592" y="533" on="1"/>
        <pt x="592" y="490" on="0"/>
        <pt x="548" y="422" on="0"/>
        <pt x="507" y="422" on="1"/>
        <pt x="486" y="422" on="0"/>
        <pt x="464" y="439" on="0"/>
        <pt x="464" y="452" on="1"/>
        <pt x="464" y="467" on="0"/>
        <pt x="490" y="489" on="0"/>
        <pt x="513" y="489" on="1"/>
        <pt x="531" y="489" on="0"/>
        <pt x="549" y="524" on="0"/>
        <pt x="549" y="544" on="1"/>
        <pt x="549" y="572" on="0"/>
        <pt x="497" y="608" on="0"/>
        <pt x="449" y="608" on="1"/>
        <pt x="316" y="608" on="0"/>
        <pt x="128" y="404" on="0"/>
        <pt x="128" y="259" on="1"/>
        <pt x="128" y="170" on="0"/>
        <pt x="224" y="45" on="0"/>
        <pt x="320" y="27" on="1"/>
        <pt x="321" y="36" on="0"/>
        <pt x="326" y="86" on="0"/>
        <pt x="330" y="113" on="0"/>
        <pt x="338" y="162" on="0"/>
        <pt x="346" y="193" on="0"/>
        <pt x="360" y="236" on="0"/>
        <pt x="376" y="262" on="0"/>
        <pt x="400" y="293" on="0"/>
        <pt x="428" y="310" on="0"/>
        <pt x="466" y="321" on="0"/>
        <pt x="488" y="321" on="1"/>
        <pt x="522" y="321" on="0"/>
        <pt x="567" y="269" on="0"/>
        <pt x="567" y="217" on="1"/>
        <pt x="567" y="128" on="0"/>
        <pt x="448" y="-2" on="0"/>
        <pt x="366" y="-11" on="1"/>
        <pt x="363" y="-28" on="0"/>
        <pt x="353" y="-103" on="0"/>
        <pt x="344" y="-150" on="0"/>
        <pt x="328" y="-218" on="0"/>
        <pt x="305" y="-260" on="0"/>
        <pt x="271" y="-303" on="0"/>
        <pt x="220" y="-323" on="0"/>
        <pt x="188" y="-323" on="1"/>
        <pt x="116" y="-323" on="0"/>
        <pt x="31" y="-230" on="0"/>
        <pt x="31" y="-169" on="1"/>
        <pt x="31" y="-115" on="0"/>
        <pt x="103" y="-37" on="0"/>
        <pt x="171" y="-37" on="1"/>
        <pt x="221" y="-37" on="0"/>
        <pt x="270" y="-94" on="0"/>
        <pt x="270" y="-134" on="1"/>
        <pt x="270" y="-167" on="0"/>
        <pt x="226" y="-215" on="0"/>
        <pt x="187" y="-215" on="1"/>
        <pt x="164" y="-215" on="0"/>
        <pt x="133" y="-189" on="0"/>
      </contour>
      <contour>
        <pt x="368" y="33" on="1"/>
        <pt x="437" y="46" on="0"/>
        <pt x="519" y="152" on="0"/>
        <pt x="519" y="219" on="1"/>
        <pt x="519" y="248" on="0"/>
        <pt x="498" y="281" on="0"/>
        <pt x="482" y="281" on="1"/>
        <pt x="451" y="281" on="0"/>
        <pt x="404" y="225" on="0"/>
        <pt x="381" y="133" on="0"/>
        <pt x="371" y="68" on="0"/>
      </contour>
    </TTGlyph>
    <TTGlyph name="H" xMin="35" yMin="-15" xMax="903" yMax="635">
      <contour>
        <pt x="789" y="146" on="1"/>
        <pt x="768" y="146" on="0"/>
        <pt x="745" y="174" on="0"/>
        <pt x="745" y="212" on="0"/>
        <pt x="773" y="242" on="0"/>
        <pt x="798" y="242" on="1"/>
        <pt x="845" y="242" on="0"/>
        <pt x="903" y="186" on="0"/>
        <pt x="903" y="133" on="1"/>
        <pt x="903" y="71" on="0"/>
        <pt x="804" y="-15" on="0"/>
        <pt x="740" y="-15" on="1"/>
        <pt x="693" y="-15" on="0"/>
        <pt x="630" y="40" on="0"/>
        <pt x="630" y="98" on="1"/>
        <pt x="630" y="157" on="0"/>
        <pt x="660" y="254" on="1"/>
        <pt x="658" y="254" on="1"/>
        <pt x="638" y="254" on="0"/>
        <pt x="569" y="201" on="0"/>
        <pt x="551" y="201" on="1"/>
        <pt x="529" y="201" on="0"/>
        <pt x="503" y="234" on="0"/>
        <pt x="494" y="274" on="0"/>
        <pt x="466" y="307" on="0"/>
        <pt x="443" y="307" on="1"/>
        <pt x="441" y="307" on="1"/>
        <pt x="435" y="290" on="1"/>
        <pt x="312" y="-15" on="0"/>
        <pt x="160" y="-15" on="1"/>
        <pt x="107" y="-15" on="0"/>
        <pt x="35" y="42" on="0"/>
        <pt x="35" y="100" on="1"/>
        <pt x="35" y="148" on="0"/>
        <pt x="103" y="214" on="0"/>
        <pt x="153" y="214" on="1"/>
        <pt x="178" y="214" on="0"/>
        <pt x="222" y="186" on="0"/>
        <pt x="222" y="164" on="1"/>
        <pt x="222" y="146" on="0"/>
        <pt x="195" y="123" on="0"/>
        <pt x="178" y="123" on="1"/>
        <pt x="159" y="123" on="0"/>
        <pt x="132" y="147" on="0"/>
        <pt x="131" y="170" on="1"/>
        <pt x="110" y="170" on="0"/>
        <pt x="81" y="123" on="0"/>
        <pt x="81" y="100" on="1"/>
        <pt x="81" y="67" on="0"/>
        <pt x="126" y="27" on="0"/>
        <pt x="157" y="27" on="1"/>
        <pt x="214" y="27" on="0"/>
        <pt x="347" y="194" on="0"/>
        <pt x="434" y="417" on="0"/>
        <pt x="434" y="499" on="1"/>
        <pt x="434" y="588" on="0"/>
        <pt x="354" y="588" on="1"/>
        <pt x="271" y="588" on="0"/>
        <pt x="114" y="464" on="0"/>
        <pt x="114" y="373" on="1"/>
        <pt x="114" y="309" on="0"/>
        <pt x="170" y="309" on="1"/>
        <pt x="204" y="309" on="0"/>
        <pt x="270" y="356" on="0"/>
        <pt x="276" y="389" on="1"/>
        <pt x="261" y="392" on="0"/>
        <pt x="239" y="415" on="0"/>
        <pt x="239" y="430" on="1"/>
        <pt x="239" y="447" on="0"/>
        <pt x="262" y="471" on="0"/>
        <pt x="279" y="471" on="1"/>
        <pt x="299" y="471" on="0"/>
        <pt x="319" y="441" on="0"/>
        <pt x="319" y="420" on="1"/>
        <pt x="319" y="359" on="0"/>
        <pt x="228" y="263" on="0"/>
        <pt x="162" y="263" on="1"/>
        <pt x="121" y="263" on="0"/>
        <pt x="69" y="318" on="0"/>
        <pt x="69" y="370" on="1"/>
        <pt x="69" y="448" on="0"/>
        <pt x="168" y="574" on="0"/>
        <pt x="300" y="635" on="0"/>
        <pt x="363" y="635" on="1"/>
        <pt x="424" y="635" on="0"/>
        <pt x="485" y="559" on="0"/>
        <pt x="485" y="501" on="1"/>
        <pt x="485" y="446" on="0"/>
        <pt x="454" y="347" on="1"/>
        <pt x="456" y="347" on="0"/>
        <pt x="462" y="348" on="0"/>
        <pt x="463" y="348" on="1"/>
        <pt x="481" y="348" on="0"/>
        <pt x="512" y="328" on="0"/>
        <pt x="531" y="299" on="0"/>
        <pt x="545" y="271" on="0"/>
        <pt x="548" y="260" on="1"/>
        <pt x="552" y="249" on="1"/>
        <pt x="558" y="254" on="1"/>
        <pt x="564" y="260" on="0"/>
        <pt x="583" y="275" on="0"/>
        <pt x="607" y="290" on="0"/>
        <pt x="637" y="301" on="0"/>
        <pt x="650" y="301" on="1"/>
        <pt x="661" y="301" on="0"/>
        <pt x="674" y="296" on="1"/>
        <pt x="691" y="345" on="0"/>
        <pt x="735" y="452" on="0"/>
        <pt x="786" y="565" on="0"/>
        <pt x="791" y="577" on="1"/>
        <pt x="795" y="588" on="0"/>
        <pt x="821" y="588" on="0"/>
        <pt x="847" y="571" on="0"/>
        <pt x="842" y="560" on="1"/>
        <pt x="832" y="541" on="1"/>
        <pt x="823" y="522" on="0"/>
        <pt x="802" y="479" on="0"/>
        <pt x="771" y="411" on="0"/>
        <pt x="743" y="345" on="0"/>
        <pt x="714" y="267" on="0"/>
        <pt x="692" y="199" on="0"/>
        <pt x="679" y="132" on="0"/>
        <pt x="679" y="108" on="1"/>
        <pt x="679" y="68" on="0"/>
        <pt x="719" y="27" on="0"/>
        <pt x="749" y="27" on="1"/>
        <pt x="790" y="27" on="0"/>
        <pt x="860" y="92" on="0"/>
        <pt x="860" y="143" on="1"/>
        <pt x="860" y="189" on="0"/>
        <pt x="837" y="189" on="1"/>
        <pt x="834" y="171" on="0"/>
        <pt x="806" y="146" on="0"/>
      </contour>
    </TTGlyph>
    <TTGlyph name="I" xMin="30" yMin="-12" xMax="444" yMax="622">
      <contour>
        <pt x="348" y="148" on="1"/>
        <pt x="348" y="170" on="0"/>
        <pt x="376" y="200" on="0"/>
        <pt x="416" y="200" on="0"/>
        <pt x="444" y="170" on="0"/>
        <pt x="444" y="148" on="1"/>
        <pt x="444" y="83" on="0"/>
        <pt x="341" y="-12" on="0"/>
        <pt x="271" y="-12" on="1"/>
        <pt x="209" y="-12" on="0"/>
        <pt x="139" y="57" on="0"/>
        <pt x="139" y="112" on="1"/>
        <pt x="139" y="152" on="0"/>
        <pt x="177" y="233" on="0"/>
        <pt x="232" y="301" on="0"/>
        <pt x="287" y="368" on="0"/>
        <pt x="325" y="449" on="0"/>
        <pt x="325" y="490" on="1"/>
        <pt x="325" y="529" on="0"/>
        <pt x="280" y="576" on="0"/>
        <pt x="233" y="576" on="1"/>
        <pt x="177" y="576" on="0"/>
        <pt x="76" y="498" on="0"/>
        <pt x="76" y="428" on="1"/>
        <pt x="76" y="403" on="0"/>
        <pt x="99" y="369" on="0"/>
        <pt x="123" y="369" on="1"/>
        <pt x="139" y="369" on="0"/>
        <pt x="168" y="393" on="0"/>
        <pt x="173" y="412" on="1"/>
        <pt x="150" y="412" on="0"/>
        <pt x="120" y="433" on="0"/>
        <pt x="120" y="465" on="0"/>
        <pt x="145" y="487" on="0"/>
        <pt x="162" y="487" on="1"/>
        <pt x="186" y="487" on="0"/>
        <pt x="209" y="447" on="0"/>
        <pt x="209" y="419" on="1"/>
        <pt x="209" y="385" on="0"/>
        <pt x="162" y="329" on="0"/>
        <pt x="123" y="329" on="1"/>
        <pt x="82" y="329" on="0"/>
        <pt x="30" y="383" on="0"/>
        <pt x="30" y="432" on="1"/>
        <pt x="30" y="519" on="0"/>
        <pt x="157" y="622" on="0"/>
        <pt x="238" y="622" on="1"/>
        <pt x="303" y="622" on="0"/>
        <pt x="384" y="556" on="0"/>
        <pt x="384" y="501" on="1"/>
        <pt x="384" y="449" on="0"/>
        <pt x="325" y="335" on="0"/>
        <pt x="255" y="251" on="0"/>
        <pt x="196" y="146" on="0"/>
        <pt x="196" y="103" on="1"/>
        <pt x="196" y="66" on="0"/>
        <pt x="234" y="30" on="0"/>
        <pt x="265" y="30" on="1"/>
        <pt x="301" y="30" on="0"/>
        <pt x="376" y="69" on="0"/>
        <pt x="390" y="99" on="1"/>
        <pt x="374" y="105" on="0"/>
        <pt x="348" y="132" on="0"/>
      </contour>
    </TTGlyph>
    <TTGlyph name="Iacute" xMin="24" yMin="-12" xMax="438" yMax="817">
      <component glyphName="I" x="-6" y="0" flags="0x204"/>
      <component glyphName="acute.case" x="181" y="0" flags="0x4"/>
    </TTGlyph>
    <TTGlyph name="Icircumflex" xMin="24" yMin="-12" xMax="438" yMax="804">
      <component glyphName="I" x="-6" y="0" flags="0x204"/>
      <component glyphName="circumflex.case" x="95" y="0" flags="0x4"/>
    </TTGlyph>
    <TTGlyph name="Idieresis" xMin="24" yMin="-12" xMax="438" yMax="755">
      <component glyphName="I" x="-6" y="0" flags="0x204"/>
      <component glyphName="dieresis.case" x="111" y="0" flags="0x4"/>
    </TTGlyph>
    <TTGlyph name="Igrave" xMin="24" yMin="-12" xMax="438" yMax="817">
      <component glyphName="I" x="-6" y="0" flags="0x204"/>
      <component glyphName="grave.case" x="172" y="0" flags="0x4"/>
    </TTGlyph>
    <TTGlyph name="J" xMin="30" yMin="-96" xMax="592" yMax="664">
      <contour>
        <pt x="162" y="51" on="1"/>
        <pt x="162" y="71" on="0"/>
        <pt x="189" y="99" on="0"/>
        <pt x="209" y="99" on="1"/>
        <pt x="212" y="99" on="0"/>
        <pt x="222" y="97" on="1"/>
        <pt x="216" y="141" on="0"/>
        <pt x="168" y="141" on="1"/>
        <pt x="126" y="141" on="0"/>
        <pt x="80" y="86" on="0"/>
        <pt x="80" y="48" on="1"/>
        <pt x="80" y="29" on="0"/>
        <pt x="93" y="-6" on="0"/>
        <pt x="118" y="-32" on="0"/>
        <pt x="153" y="-48" on="0"/>
        <pt x="174" y="-48" on="1"/>
        <pt x="225" y="-48" on="0"/>
        <pt x="294" y="10" on="0"/>
        <pt x="339" y="101" on="0"/>
        <pt x="364" y="215" on="0"/>
        <pt x="372" y="271" on="1"/>
        <pt x="384" y="356" on="1"/>
        <pt x="388" y="382" on="0"/>
        <pt x="395" y="422" on="0"/>
        <pt x="397" y="436" on="1"/>
        <pt x="372" y="445" on="0"/>
        <pt x="327" y="492" on="0"/>
        <pt x="286" y="543" on="0"/>
        <pt x="248" y="582" on="0"/>
        <pt x="229" y="582" on="1"/>
        <pt x="199" y="582" on="0"/>
        <pt x="153" y="534" on="0"/>
        <pt x="153" y="501" on="1"/>
        <pt x="153" y="474" on="0"/>
        <pt x="167" y="474" on="1"/>
        <pt x="168" y="491" on="0"/>
        <pt x="192" y="515" on="0"/>
        <pt x="208" y="515" on="1"/>
        <pt x="225" y="515" on="0"/>
        <pt x="247" y="494" on="0"/>
        <pt x="247" y="476" on="1"/>
        <pt x="247" y="456" on="0"/>
        <pt x="219" y="430" on="0"/>
        <pt x="191" y="430" on="1"/>
        <pt x="153" y="430" on="0"/>
        <pt x="114" y="474" on="0"/>
        <pt x="114" y="513" on="1"/>
        <pt x="114" y="536" on="0"/>
        <pt x="131" y="579" on="0"/>
        <pt x="161" y="612" on="0"/>
        <pt x="203" y="632" on="0"/>
        <pt x="228" y="632" on="1"/>
        <pt x="263" y="632" on="0"/>
        <pt x="308" y="592" on="0"/>
        <pt x="345" y="541" on="0"/>
        <pt x="380" y="492" on="0"/>
        <pt x="406" y="482" on="1"/>
        <pt x="424" y="569" on="0"/>
        <pt x="480" y="664" on="0"/>
        <pt x="530" y="664" on="1"/>
        <pt x="561" y="664" on="0"/>
        <pt x="592" y="615" on="0"/>
        <pt x="592" y="581" on="1"/>
        <pt x="592" y="554" on="0"/>
        <pt x="571" y="502" on="0"/>
        <pt x="533" y="461" on="0"/>
        <pt x="479" y="434" on="0"/>
        <pt x="445" y="432" on="1"/>
        <pt x="427" y="318" on="0"/>
        <pt x="393" y="125" on="0"/>
        <pt x="339" y="-16" on="0"/>
        <pt x="250" y="-96" on="0"/>
        <pt x="177" y="-96" on="1"/>
        <pt x="142" y="-96" on="0"/>
        <pt x="88" y="-73" on="0"/>
        <pt x="50" y="-33" on="0"/>
        <pt x="30" y="20" on="0"/>
        <pt x="30" y="50" on="1"/>
        <pt x="30" y="79" on="0"/>
        <pt x="48" y="130" on="0"/>
        <pt x="84" y="169" on="0"/>
        <pt x="137" y="191" on="0"/>
        <pt x="171" y="191" on="1"/>
        <pt x="193" y="191" on="0"/>
        <pt x="229" y="174" on="0"/>
        <pt x="254" y="145" on="0"/>
        <pt x="267" y="107" on="0"/>
        <pt x="267" y="86" on="1"/>
        <pt x="267" y="55" on="0"/>
        <pt x="239" y="8" on="0"/>
        <pt x="209" y="8" on="1"/>
        <pt x="189" y="8" on="0"/>
        <pt x="162" y="33" on="0"/>
      </contour>
      <contour>
        <pt x="455" y="480" on="1"/>
        <pt x="493" y="487" on="0"/>
        <pt x="548" y="549" on="0"/>
        <pt x="548" y="589" on="1"/>
        <pt x="548" y="615" on="0"/>
        <pt x="531" y="615" on="1"/>
        <pt x="508" y="615" on="0"/>
        <pt x="467" y="539" on="0"/>
      </contour>
    </TTGlyph>
    <TTGlyph name="K" xMin="35" yMin="-23" xMax="974" yMax="644">
      <contour>
        <pt x="200" y="439" on="1"/>
        <pt x="200" y="456" on="0"/>
        <pt x="223" y="481" on="0"/>
        <pt x="255" y="481" on="0"/>
        <pt x="271" y="456" on="0"/>
        <pt x="271" y="437" on="1"/>
        <pt x="271" y="394" on="0"/>
        <pt x="192" y="311" on="0"/>
        <pt x="146" y="311" on="1"/>
        <pt x="116" y="311" on="0"/>
        <pt x="77" y="356" on="0"/>
        <pt x="77" y="395" on="1"/>
        <pt x="77" y="465" on="0"/>
        <pt x="201" y="584" on="0"/>
        <pt x="361" y="644" on="0"/>
        <pt x="429" y="644" on="1"/>
        <pt x="480" y="644" on="0"/>
        <pt x="543" y="587" on="0"/>
        <pt x="543" y="536" on="1"/>
        <pt x="543" y="463" on="0"/>
        <pt x="511" y="372" on="1"/>
        <pt x="544" y="394" on="0"/>
        <pt x="584" y="394" on="1"/>
        <pt x="623" y="394" on="0"/>
        <pt x="656" y="369" on="1"/>
        <pt x="673" y="394" on="0"/>
        <pt x="713" y="479" on="0"/>
        <pt x="746" y="544" on="0"/>
        <pt x="789" y="608" on="0"/>
        <pt x="847" y="643" on="0"/>
        <pt x="883" y="643" on="1"/>
        <pt x="929" y="643" on="0"/>
        <pt x="974" y="592" on="0"/>
        <pt x="974" y="553" on="1"/>
        <pt x="974" y="512" on="0"/>
        <pt x="920" y="424" on="0"/>
        <pt x="883" y="424" on="1"/>
        <pt x="867" y="424" on="0"/>
        <pt x="844" y="447" on="0"/>
        <pt x="844" y="464" on="1"/>
        <pt x="844" y="483" on="0"/>
        <pt x="868" y="503" on="0"/>
        <pt x="886" y="503" on="1"/>
        <pt x="902" y="503" on="0"/>
        <pt x="916" y="494" on="1"/>
        <pt x="935" y="519" on="0"/>
        <pt x="935" y="554" on="1"/>
        <pt x="935" y="599" on="0"/>
        <pt x="896" y="599" on="1"/>
        <pt x="858" y="599" on="0"/>
        <pt x="796" y="543" on="0"/>
        <pt x="761" y="474" on="0"/>
        <pt x="708" y="367" on="0"/>
        <pt x="688" y="337" on="1"/>
        <pt x="712" y="303" on="0"/>
        <pt x="712" y="258" on="1"/>
        <pt x="712" y="234" on="0"/>
        <pt x="691" y="124" on="0"/>
        <pt x="691" y="99" on="1"/>
        <pt x="691" y="64" on="0"/>
        <pt x="731" y="20" on="0"/>
        <pt x="764" y="20" on="1"/>
        <pt x="822" y="20" on="0"/>
        <pt x="887" y="89" on="0"/>
        <pt x="887" y="153" on="1"/>
        <pt x="887" y="197" on="0"/>
        <pt x="852" y="197" on="1"/>
        <pt x="852" y="172" on="0"/>
        <pt x="826" y="142" on="0"/>
        <pt x="788" y="142" on="0"/>
        <pt x="764" y="167" on="0"/>
        <pt x="764" y="184" on="1"/>
        <pt x="764" y="213" on="0"/>
        <pt x="804" y="236" on="0"/>
        <pt x="847" y="236" on="1"/>
        <pt x="888" y="236" on="0"/>
        <pt x="933" y="186" on="0"/>
        <pt x="933" y="150" on="1"/>
        <pt x="933" y="77" on="0"/>
        <pt x="840" y="-23" on="0"/>
        <pt x="755" y="-23" on="1"/>
        <pt x="706" y="-23" on="0"/>
        <pt x="641" y="49" on="0"/>
        <pt x="641" y="98" on="1"/>
        <pt x="641" y="129" on="0"/>
        <pt x="663" y="246" on="0"/>
        <pt x="663" y="271" on="1"/>
        <pt x="663" y="285" on="0"/>
        <pt x="658" y="298" on="1"/>
        <pt x="606" y="246" on="0"/>
        <pt x="545" y="246" on="1"/>
        <pt x="488" y="246" on="0"/>
        <pt x="475" y="285" on="1"/>
        <pt x="414" y="160" on="0"/>
        <pt x="237" y="-18" on="0"/>
        <pt x="158" y="-22" on="1"/>
        <pt x="98" y="-22" on="0"/>
        <pt x="35" y="44" on="0"/>
        <pt x="35" y="93" on="1"/>
        <pt x="35" y="152" on="0"/>
        <pt x="115" y="247" on="0"/>
        <pt x="178" y="247" on="1"/>
        <pt x="212" y="247" on="0"/>
        <pt x="276" y="195" on="0"/>
        <pt x="276" y="161" on="1"/>
        <pt x="276" y="142" on="0"/>
        <pt x="255" y="116" on="0"/>
        <pt x="235" y="116" on="1"/>
        <pt x="216" y="116" on="0"/>
        <pt x="193" y="144" on="0"/>
        <pt x="193" y="164" on="1"/>
        <pt x="193" y="183" on="0"/>
        <pt x="202" y="198" on="1"/>
        <pt x="188" y="205" on="0"/>
        <pt x="174" y="205" on="1"/>
        <pt x="139" y="205" on="0"/>
        <pt x="89" y="132" on="0"/>
        <pt x="89" y="93" on="1"/>
        <pt x="89" y="62" on="0"/>
        <pt x="122" y="23" on="0"/>
        <pt x="157" y="23" on="1"/>
        <pt x="214" y="23" on="0"/>
        <pt x="376" y="191" on="0"/>
        <pt x="496" y="435" on="0"/>
        <pt x="496" y="531" on="1"/>
        <pt x="496" y="599" on="0"/>
        <pt x="421" y="599" on="1"/>
        <pt x="364" y="599" on="0"/>
        <pt x="226" y="539" on="0"/>
        <pt x="124" y="437" on="0"/>
        <pt x="124" y="384" on="1"/>
        <pt x="124" y="352" on="0"/>
        <pt x="146" y="352" on="1"/>
        <pt x="165" y="352" on="0"/>
        <pt x="206" y="378" on="0"/>
        <pt x="219" y="402" on="1"/>
        <pt x="200" y="416" on="0"/>
      </contour>
      <contour>
        <pt x="517" y="308" on="1"/>
        <pt x="517" y="291" on="0"/>
        <pt x="539" y="291" on="1"/>
        <pt x="588" y="291" on="0"/>
        <pt x="628" y="333" on="1"/>
        <pt x="606" y="347" on="0"/>
        <pt x="580" y="347" on="1"/>
        <pt x="556" y="347" on="0"/>
        <pt x="519" y="326" on="0"/>
      </contour>
    </TTGlyph>
    <TTGlyph name="L" xMin="6" yMin="-16" xMax="765" yMax="634">
      <contour>
        <pt x="554" y="-16" on="1"/>
        <pt x="520" y="-15" on="0"/>
        <pt x="441" y="1" on="0"/>
        <pt x="299" y="72" on="0"/>
        <pt x="296" y="74" on="1"/>
        <pt x="207" y="-10" on="0"/>
        <pt x="107" y="-10" on="1"/>
        <pt x="13" y="-10" on="0"/>
        <pt x="6" y="66" on="1"/>
        <pt x="6" y="109" on="0"/>
        <pt x="84" y="175" on="0"/>
        <pt x="142" y="175" on="1"/>
        <pt x="198" y="175" on="0"/>
        <pt x="282" y="134" on="1"/>
        <pt x="350" y="210" on="0"/>
        <pt x="439" y="428" on="0"/>
        <pt x="439" y="528" on="1"/>
        <pt x="439" y="576" on="0"/>
        <pt x="408" y="576" on="1"/>
        <pt x="373" y="576" on="0"/>
        <pt x="309" y="538" on="0"/>
        <pt x="292" y="506" on="1"/>
        <pt x="314" y="488" on="0"/>
        <pt x="314" y="448" on="0"/>
        <pt x="295" y="427" on="0"/>
        <pt x="281" y="427" on="1"/>
        <pt x="265" y="427" on="0"/>
        <pt x="241" y="456" on="0"/>
        <pt x="241" y="481" on="1"/>
        <pt x="241" y="531" on="0"/>
        <pt x="354" y="634" on="0"/>
        <pt x="403" y="634" on="1"/>
        <pt x="491" y="634" on="0"/>
        <pt x="491" y="532" on="1"/>
        <pt x="491" y="426" on="0"/>
        <pt x="403" y="192" on="0"/>
        <pt x="330" y="109" on="1"/>
        <pt x="379" y="83" on="0"/>
        <pt x="430" y="58" on="0"/>
        <pt x="516" y="31" on="0"/>
        <pt x="553" y="31" on="1"/>
        <pt x="621" y="31" on="0"/>
        <pt x="715" y="101" on="0"/>
        <pt x="715" y="172" on="1"/>
        <pt x="715" y="222" on="0"/>
        <pt x="649" y="281" on="0"/>
        <pt x="607" y="281" on="1"/>
        <pt x="568" y="281" on="0"/>
        <pt x="520" y="224" on="0"/>
        <pt x="520" y="190" on="1"/>
        <pt x="520" y="145" on="0"/>
        <pt x="559" y="136" on="1"/>
        <pt x="559" y="165" on="0"/>
        <pt x="584" y="201" on="0"/>
        <pt x="603" y="201" on="1"/>
        <pt x="624" y="201" on="0"/>
        <pt x="649" y="170" on="0"/>
        <pt x="649" y="149" on="1"/>
        <pt x="649" y="125" on="0"/>
        <pt x="617" y="91" on="0"/>
        <pt x="589" y="91" on="1"/>
        <pt x="535" y="91" on="0"/>
        <pt x="477" y="154" on="0"/>
        <pt x="477" y="200" on="1"/>
        <pt x="477" y="250" on="0"/>
        <pt x="544" y="328" on="0"/>
        <pt x="600" y="328" on="1"/>
        <pt x="662" y="328" on="0"/>
        <pt x="765" y="237" on="0"/>
        <pt x="765" y="166" on="1"/>
        <pt x="765" y="81" on="0"/>
        <pt x="641" y="-16" on="0"/>
      </contour>
      <contour>
        <pt x="54" y="69" on="1"/>
        <pt x="55" y="35" on="0"/>
        <pt x="110" y="35" on="1"/>
        <pt x="176" y="35" on="0"/>
        <pt x="246" y="99" on="1"/>
        <pt x="183" y="127" on="0"/>
        <pt x="144" y="127" on="1"/>
        <pt x="107" y="127" on="0"/>
        <pt x="54" y="98" on="0"/>
      </contour>
    </TTGlyph>
    <TTGlyph name="M" xMin="38" yMin="-14" xMax="1023" yMax="639">
      <contour>
        <pt x="962" y="106" on="1"/>
        <pt x="928" y="121" on="0"/>
        <pt x="928" y="160" on="1"/>
        <pt x="928" y="179" on="0"/>
        <pt x="951" y="205" on="0"/>
        <pt x="974" y="205" on="1"/>
        <pt x="994" y="205" on="0"/>
        <pt x="1023" y="176" on="0"/>
        <pt x="1023" y="155" on="1"/>
        <pt x="1023" y="88" on="0"/>
        <pt x="910" y="-12" on="0"/>
        <pt x="849" y="-12" on="1"/>
        <pt x="809" y="-12" on="0"/>
        <pt x="759" y="39" on="0"/>
        <pt x="759" y="90" on="1"/>
        <pt x="759" y="149" on="0"/>
        <pt x="817" y="306" on="0"/>
        <pt x="875" y="456" on="0"/>
        <pt x="875" y="507" on="1"/>
        <pt x="875" y="563" on="0"/>
        <pt x="825" y="563" on="1"/>
        <pt x="750" y="563" on="0"/>
        <pt x="665" y="459" on="1"/>
        <pt x="662" y="392" on="0"/>
        <pt x="635" y="238" on="0"/>
        <pt x="590" y="87" on="0"/>
        <pt x="519" y="-12" on="0"/>
        <pt x="478" y="-12" on="1"/>
        <pt x="477" y="-12" on="0"/>
        <pt x="472" y="-11" on="0"/>
        <pt x="471" y="-11" on="1"/>
        <pt x="436" y="-11" on="0"/>
        <pt x="436" y="49" on="1"/>
        <pt x="436" y="120" on="0"/>
        <pt x="544" y="376" on="0"/>
        <pt x="621" y="475" on="1"/>
        <pt x="621" y="483" on="1"/>
        <pt x="621" y="522" on="0"/>
        <pt x="591" y="566" on="0"/>
        <pt x="548" y="566" on="1"/>
        <pt x="506" y="566" on="0"/>
        <pt x="413" y="513" on="0"/>
        <pt x="380" y="477" on="1"/>
        <pt x="373" y="429" on="0"/>
        <pt x="350" y="316" on="0"/>
        <pt x="307" y="175" on="0"/>
        <pt x="256" y="63" on="0"/>
        <pt x="182" y="-14" on="0"/>
        <pt x="143" y="-14" on="1"/>
        <pt x="107" y="-14" on="0"/>
        <pt x="49" y="32" on="0"/>
        <pt x="49" y="74" on="1"/>
        <pt x="49" y="104" on="0"/>
        <pt x="82" y="136" on="0"/>
        <pt x="103" y="136" on="1"/>
        <pt x="120" y="136" on="0"/>
        <pt x="143" y="116" on="0"/>
        <pt x="143" y="97" on="1"/>
        <pt x="143" y="82" on="0"/>
        <pt x="118" y="52" on="0"/>
        <pt x="98" y="45" on="1"/>
        <pt x="113" y="29" on="0"/>
        <pt x="144" y="29" on="1"/>
        <pt x="190" y="29" on="0"/>
        <pt x="286" y="241" on="0"/>
        <pt x="340" y="472" on="0"/>
        <pt x="340" y="526" on="1"/>
        <pt x="340" y="592" on="0"/>
        <pt x="276" y="592" on="1"/>
        <pt x="215" y="592" on="0"/>
        <pt x="82" y="484" on="0"/>
        <pt x="82" y="415" on="1"/>
        <pt x="82" y="379" on="0"/>
        <pt x="103" y="379" on="1"/>
        <pt x="108" y="379" on="0"/>
        <pt x="114" y="408" on="0"/>
        <pt x="131" y="436" on="0"/>
        <pt x="150" y="436" on="1"/>
        <pt x="167" y="436" on="0"/>
        <pt x="190" y="410" on="0"/>
        <pt x="190" y="391" on="1"/>
        <pt x="190" y="365" on="0"/>
        <pt x="144" y="334" on="0"/>
        <pt x="114" y="334" on="1"/>
        <pt x="82" y="334" on="0"/>
        <pt x="38" y="377" on="0"/>
        <pt x="38" y="421" on="1"/>
        <pt x="38" y="507" on="0"/>
        <pt x="195" y="639" on="0"/>
        <pt x="284" y="639" on="1"/>
        <pt x="380" y="639" on="0"/>
        <pt x="385" y="535" on="1"/>
        <pt x="420" y="570" on="0"/>
        <pt x="524" y="614" on="0"/>
        <pt x="571" y="614" on="1"/>
        <pt x="651" y="614" on="0"/>
        <pt x="664" y="524" on="1"/>
        <pt x="751" y="614" on="0"/>
        <pt x="832" y="614" on="1"/>
        <pt x="873" y="614" on="0"/>
        <pt x="927" y="566" on="0"/>
        <pt x="927" y="517" on="1"/>
        <pt x="927" y="461" on="0"/>
        <pt x="867" y="300" on="0"/>
        <pt x="807" y="145" on="0"/>
        <pt x="807" y="96" on="1"/>
        <pt x="807" y="32" on="0"/>
        <pt x="858" y="32" on="1"/>
        <pt x="887" y="32" on="0"/>
        <pt x="949" y="76" on="0"/>
      </contour>
      <contour>
        <pt x="491" y="41" on="1"/>
        <pt x="521" y="41" on="0"/>
        <pt x="600" y="265" on="0"/>
        <pt x="615" y="390" on="1"/>
        <pt x="558" y="303" on="0"/>
        <pt x="482" y="108" on="0"/>
        <pt x="482" y="58" on="1"/>
        <pt x="482" y="42" on="0"/>
        <pt x="487" y="42" on="1"/>
        <pt x="487" y="41" on="1"/>
      </contour>
    </TTGlyph>
    <TTGlyph name="N" xMin="6" yMin="-11" xMax="1044" yMax="634">
      <contour>
        <pt x="107" y="-4" on="1"/>
        <pt x="58" y="-4" on="0"/>
        <pt x="6" y="53" on="0"/>
        <pt x="6" y="94" on="1"/>
        <pt x="6" y="136" on="0"/>
        <pt x="62" y="204" on="0"/>
        <pt x="105" y="204" on="1"/>
        <pt x="124" y="204" on="0"/>
        <pt x="150" y="181" on="0"/>
        <pt x="150" y="164" on="1"/>
        <pt x="150" y="148" on="0"/>
        <pt x="124" y="125" on="0"/>
        <pt x="105" y="125" on="1"/>
        <pt x="73" y="125" on="0"/>
        <pt x="64" y="141" on="1"/>
        <pt x="46" y="121" on="0"/>
        <pt x="46" y="88" on="1"/>
        <pt x="46" y="70" on="0"/>
        <pt x="75" y="39" on="0"/>
        <pt x="96" y="39" on="1"/>
        <pt x="137" y="39" on="0"/>
        <pt x="198" y="124" on="0"/>
        <pt x="231" y="251" on="0"/>
        <pt x="271" y="400" on="0"/>
        <pt x="312" y="527" on="0"/>
        <pt x="390" y="612" on="0"/>
        <pt x="443" y="612" on="1"/>
        <pt x="493" y="612" on="0"/>
        <pt x="533" y="550" on="0"/>
        <pt x="533" y="492" on="1"/>
        <pt x="533" y="436" on="0"/>
        <pt x="479" y="171" on="0"/>
        <pt x="479" y="122" on="1"/>
        <pt x="479" y="43" on="0"/>
        <pt x="512" y="43" on="1"/>
        <pt x="540" y="43" on="0"/>
        <pt x="588" y="165" on="0"/>
        <pt x="635" y="339" on="0"/>
        <pt x="698" y="512" on="0"/>
        <pt x="815" y="634" on="0"/>
        <pt x="895" y="634" on="1"/>
        <pt x="969" y="634" on="0"/>
        <pt x="1044" y="552" on="0"/>
        <pt x="1044" y="490" on="1"/>
        <pt x="1044" y="411" on="0"/>
        <pt x="936" y="269" on="0"/>
        <pt x="857" y="269" on="1"/>
        <pt x="818" y="269" on="0"/>
        <pt x="766" y="314" on="0"/>
        <pt x="766" y="361" on="1"/>
        <pt x="766" y="395" on="0"/>
        <pt x="810" y="444" on="0"/>
        <pt x="847" y="444" on="1"/>
        <pt x="868" y="444" on="0"/>
        <pt x="893" y="420" on="0"/>
        <pt x="893" y="405" on="1"/>
        <pt x="893" y="389" on="0"/>
        <pt x="869" y="370" on="0"/>
        <pt x="854" y="370" on="1"/>
        <pt x="829" y="370" on="0"/>
        <pt x="820" y="393" on="1"/>
        <pt x="807" y="380" on="0"/>
        <pt x="807" y="359" on="1"/>
        <pt x="807" y="340" on="0"/>
        <pt x="833" y="312" on="0"/>
        <pt x="856" y="312" on="1"/>
        <pt x="912" y="312" on="0"/>
        <pt x="994" y="422" on="0"/>
        <pt x="994" y="484" on="1"/>
        <pt x="994" y="529" on="0"/>
        <pt x="945" y="587" on="0"/>
        <pt x="903" y="587" on="1"/>
        <pt x="848" y="587" on="0"/>
        <pt x="762" y="521" on="0"/>
        <pt x="709" y="416" on="0"/>
        <pt x="667" y="288" on="0"/>
        <pt x="633" y="160" on="0"/>
        <pt x="596" y="55" on="0"/>
        <pt x="543" y="-11" on="0"/>
        <pt x="508" y="-11" on="1"/>
        <pt x="427" y="-11" on="0"/>
        <pt x="427" y="126" on="1"/>
        <pt x="427" y="164" on="0"/>
        <pt x="478" y="432" on="0"/>
        <pt x="478" y="485" on="1"/>
        <pt x="478" y="502" on="0"/>
        <pt x="478" y="513" on="0"/>
        <pt x="474" y="540" on="0"/>
        <pt x="465" y="551" on="0"/>
        <pt x="447" y="561" on="0"/>
        <pt x="433" y="561" on="1"/>
        <pt x="393" y="561" on="0"/>
        <pt x="333" y="445" on="0"/>
        <pt x="291" y="278" on="0"/>
        <pt x="244" y="112" on="0"/>
        <pt x="163" y="-4" on="0"/>
      </contour>
    </TTGlyph>
    <TTGlyph name="Ntilde" xMin="27" yMin="-11" xMax="1065" yMax="755">
      <component glyphName="N" x="21" y="0" flags="0x204"/>
      <component glyphName="tilde.case" x="504" y="0" flags="0x4"/>
    </TTGlyph>
    <TTGlyph name="O" xMin="33" yMin="-12" xMax="627" yMax="647">
      <contour>
        <pt x="378" y="345" on="1"/>
        <pt x="378" y="367" on="0"/>
        <pt x="404" y="398" on="0"/>
        <pt x="442" y="398" on="0"/>
        <pt x="469" y="367" on="0"/>
        <pt x="469" y="345" on="1"/>
        <pt x="469" y="295" on="0"/>
        <pt x="400" y="221" on="0"/>
        <pt x="351" y="221" on="1"/>
        <pt x="286" y="221" on="0"/>
        <pt x="215" y="309" on="0"/>
        <pt x="215" y="371" on="1"/>
        <pt x="215" y="460" on="0"/>
        <pt x="336" y="564" on="0"/>
        <pt x="422" y="564" on="1"/>
        <pt x="519" y="564" on="0"/>
        <pt x="627" y="443" on="0"/>
        <pt x="627" y="350" on="1"/>
        <pt x="627" y="269" on="0"/>
        <pt x="564" y="130" on="0"/>
        <pt x="461" y="39" on="0"/>
        <pt x="334" y="-12" on="0"/>
        <pt x="269" y="-12" on="1"/>
        <pt x="154" y="-12" on="0"/>
        <pt x="33" y="127" on="0"/>
        <pt x="33" y="234" on="1"/>
        <pt x="33" y="336" on="0"/>
        <pt x="122" y="523" on="0"/>
        <pt x="297" y="647" on="0"/>
        <pt x="406" y="647" on="1"/>
        <pt x="459" y="647" on="0"/>
        <pt x="459" y="616" on="1"/>
        <pt x="459" y="604" on="0"/>
        <pt x="439" y="598" on="0"/>
        <pt x="414" y="598" on="1"/>
        <pt x="276" y="598" on="0"/>
        <pt x="87" y="390" on="0"/>
        <pt x="87" y="241" on="1"/>
        <pt x="87" y="148" on="0"/>
        <pt x="181" y="32" on="0"/>
        <pt x="271" y="32" on="1"/>
        <pt x="384" y="32" on="0"/>
        <pt x="574" y="215" on="0"/>
        <pt x="574" y="357" on="1"/>
        <pt x="574" y="427" on="0"/>
        <pt x="499" y="515" on="0"/>
        <pt x="419" y="515" on="1"/>
        <pt x="352" y="515" on="0"/>
        <pt x="263" y="436" on="0"/>
        <pt x="263" y="367" on="1"/>
        <pt x="263" y="323" on="0"/>
        <pt x="310" y="261" on="0"/>
        <pt x="352" y="261" on="1"/>
        <pt x="385" y="261" on="0"/>
        <pt x="413" y="292" on="1"/>
        <pt x="399" y="297" on="0"/>
        <pt x="378" y="328" on="0"/>
      </contour>
    </TTGlyph>
    <TTGlyph name="OE" xMin="35" yMin="-27" xMax="822" yMax="649">
      <contour>
        <pt x="715" y="462" on="1"/>
        <pt x="694" y="462" on="0"/>
        <pt x="669" y="488" on="0"/>
        <pt x="669" y="504" on="1"/>
        <pt x="669" y="520" on="0"/>
        <pt x="690" y="537" on="0"/>
        <pt x="704" y="537" on="1"/>
        <pt x="737" y="537" on="0"/>
        <pt x="744" y="506" on="1"/>
        <pt x="770" y="530" on="0"/>
        <pt x="770" y="555" on="1"/>
        <pt x="770" y="577" on="0"/>
        <pt x="730" y="605" on="0"/>
        <pt x="694" y="605" on="1"/>
        <pt x="634" y="605" on="0"/>
        <pt x="560" y="531" on="0"/>
        <pt x="560" y="474" on="1"/>
        <pt x="560" y="456" on="0"/>
        <pt x="571" y="418" on="0"/>
        <pt x="592" y="387" on="0"/>
        <pt x="624" y="367" on="0"/>
        <pt x="644" y="367" on="1"/>
        <pt x="664" y="367" on="0"/>
        <pt x="667" y="349" on="0"/>
        <pt x="667" y="335" on="1"/>
        <pt x="667" y="324" on="0"/>
        <pt x="664" y="317" on="0"/>
        <pt x="657" y="317" on="1"/>
        <pt x="604" y="317" on="0"/>
        <pt x="526" y="294" on="0"/>
        <pt x="474" y="252" on="0"/>
        <pt x="449" y="194" on="0"/>
        <pt x="449" y="160" on="1"/>
        <pt x="449" y="125" on="0"/>
        <pt x="476" y="72" on="0"/>
        <pt x="522" y="36" on="0"/>
        <pt x="583" y="17" on="0"/>
        <pt x="616" y="17" on="1"/>
        <pt x="646" y="17" on="0"/>
        <pt x="703" y="34" on="0"/>
        <pt x="747" y="65" on="0"/>
        <pt x="774" y="110" on="0"/>
        <pt x="774" y="139" on="1"/>
        <pt x="774" y="166" on="0"/>
        <pt x="739" y="203" on="0"/>
        <pt x="706" y="203" on="1"/>
        <pt x="658" y="203" on="0"/>
        <pt x="644" y="162" on="1"/>
        <pt x="662" y="158" on="0"/>
        <pt x="684" y="127" on="0"/>
        <pt x="684" y="109" on="1"/>
        <pt x="684" y="92" on="0"/>
        <pt x="663" y="70" on="0"/>
        <pt x="648" y="70" on="1"/>
        <pt x="622" y="70" on="0"/>
        <pt x="593" y="108" on="0"/>
        <pt x="593" y="134" on="1"/>
        <pt x="593" y="153" on="0"/>
        <pt x="611" y="193" on="0"/>
        <pt x="641" y="226" on="0"/>
        <pt x="681" y="246" on="0"/>
        <pt x="702" y="246" on="1"/>
        <pt x="754" y="246" on="0"/>
        <pt x="822" y="186" on="0"/>
        <pt x="822" y="138" on="1"/>
        <pt x="822" y="105" on="0"/>
        <pt x="792" y="45" on="0"/>
        <pt x="736" y="0" on="0"/>
        <pt x="659" y="-27" on="0"/>
        <pt x="613" y="-27" on="1"/>
        <pt x="488" y="-27" on="0"/>
        <pt x="423" y="59" on="1"/>
        <pt x="334" y="-26" on="0"/>
        <pt x="232" y="-26" on="1"/>
        <pt x="187" y="-26" on="0"/>
        <pt x="114" y="12" on="0"/>
        <pt x="63" y="82" on="0"/>
        <pt x="35" y="181" on="0"/>
        <pt x="35" y="241" on="1"/>
        <pt x="35" y="313" on="0"/>
        <pt x="67" y="426" on="0"/>
        <pt x="119" y="513" on="0"/>
        <pt x="184" y="574" on="0"/>
        <pt x="250" y="612" on="0"/>
        <pt x="310" y="630" on="0"/>
        <pt x="331" y="630" on="1"/>
        <pt x="397" y="630" on="0"/>
        <pt x="463" y="572" on="0"/>
        <pt x="463" y="527" on="1"/>
        <pt x="463" y="503" on="0"/>
        <pt x="445" y="458" on="0"/>
        <pt x="413" y="423" on="0"/>
        <pt x="370" y="401" on="0"/>
        <pt x="345" y="401" on="1"/>
        <pt x="310" y="401" on="0"/>
        <pt x="262" y="445" on="0"/>
        <pt x="262" y="482" on="1"/>
        <pt x="262" y="501" on="0"/>
        <pt x="281" y="522" on="0"/>
        <pt x="294" y="522" on="1"/>
        <pt x="305" y="522" on="0"/>
        <pt x="323" y="505" on="0"/>
        <pt x="323" y="492" on="1"/>
        <pt x="323" y="477" on="0"/>
        <pt x="311" y="461" on="1"/>
        <pt x="324" y="449" on="0"/>
        <pt x="338" y="449" on="1"/>
        <pt x="353" y="449" on="0"/>
        <pt x="379" y="462" on="0"/>
        <pt x="397" y="483" on="0"/>
        <pt x="408" y="510" on="0"/>
        <pt x="408" y="525" on="1"/>
        <pt x="408" y="584" on="0"/>
        <pt x="338" y="584" on="1"/>
        <pt x="288" y="584" on="0"/>
        <pt x="198" y="528" on="0"/>
        <pt x="130" y="431" on="0"/>
        <pt x="90" y="300" on="0"/>
        <pt x="90" y="225" on="1"/>
        <pt x="90" y="183" on="0"/>
        <pt x="113" y="109" on="0"/>
        <pt x="153" y="55" on="0"/>
        <pt x="208" y="24" on="0"/>
        <pt x="240" y="24" on="1"/>
        <pt x="276" y="24" on="0"/>
        <pt x="364" y="66" on="0"/>
        <pt x="400" y="100" on="1"/>
        <pt x="389" y="127" on="0"/>
        <pt x="389" y="158" on="1"/>
        <pt x="389" y="222" on="0"/>
        <pt x="475" y="326" on="0"/>
        <pt x="570" y="351" on="1"/>
        <pt x="555" y="360" on="0"/>
        <pt x="531" y="389" on="0"/>
        <pt x="514" y="423" on="0"/>
        <pt x="505" y="459" on="0"/>
        <pt x="505" y="476" on="1"/>
        <pt x="505" y="513" on="0"/>
        <pt x="535" y="576" on="0"/>
        <pt x="587" y="622" on="0"/>
        <pt x="656" y="649" on="0"/>
        <pt x="695" y="649" on="1"/>
        <pt x="746" y="649" on="0"/>
        <pt x="818" y="603" on="0"/>
        <pt x="818" y="553" on="1"/>
        <pt x="818" y="513" on="0"/>
        <pt x="760" y="462" on="0"/>
      </contour>
    </TTGlyph>
    <TTGlyph name="Oacute" xMin="33" yMin="-12" xMax="627" yMax="817">
      <component glyphName="O" x="0" y="0" flags="0x204"/>
      <component glyphName="acute.case" x="319" y="0" flags="0x4"/>
    </TTGlyph>
    <TTGlyph name="Ocircumflex" xMin="33" yMin="-12" xMax="627" yMax="804">
      <component glyphName="O" x="0" y="0" flags="0x204"/>
      <component glyphName="circumflex.case" x="253" y="0" flags="0x4"/>
    </TTGlyph>
    <TTGlyph name="Odieresis" xMin="33" yMin="-12" xMax="627" yMax="755">
      <component glyphName="O" x="0" y="0" flags="0x204"/>
      <component glyphName="dieresis.case" x="249" y="0" flags="0x4"/>
    </TTGlyph>
    <TTGlyph name="Ograve" xMin="33" yMin="-12" xMax="627" yMax="817">
      <component glyphName="O" x="0" y="0" flags="0x204"/>
      <component glyphName="grave.case" x="330" y="0" flags="0x4"/>
    </TTGlyph>
    <TTGlyph name="Oslash" xMin="27" yMin="-99" xMax="606" yMax="716">
      <contour>
        <pt x="488" y="702" on="1"/>
        <pt x="494" y="716" on="0"/>
        <pt x="534" y="700" on="0"/>
        <pt x="532" y="686" on="1"/>
        <pt x="526" y="675" on="0"/>
        <pt x="498" y="621" on="0"/>
        <pt x="492" y="610" on="1"/>
        <pt x="547" y="582" on="0"/>
        <pt x="606" y="475" on="0"/>
        <pt x="606" y="408" on="1"/>
        <pt x="606" y="313" on="0"/>
        <pt x="520" y="122" on="0"/>
        <pt x="354" y="-12" on="0"/>
        <pt x="255" y="-12" on="1"/>
        <pt x="225" y="-12" on="0"/>
        <pt x="195" y="-7" on="1"/>
        <pt x="174" y="-54" on="0"/>
        <pt x="161" y="-86" on="1"/>
        <pt x="157" y="-99" on="0"/>
        <pt x="137" y="-87" on="1"/>
        <pt x="119" y="-76" on="0"/>
        <pt x="122" y="-62" on="1"/>
        <pt x="135" y="-29" on="0"/>
        <pt x="151" y="6" on="1"/>
        <pt x="88" y="30" on="0"/>
        <pt x="27" y="141" on="0"/>
        <pt x="27" y="214" on="1"/>
        <pt x="27" y="284" on="0"/>
        <pt x="82" y="432" on="0"/>
        <pt x="174" y="555" on="0"/>
        <pt x="309" y="634" on="0"/>
        <pt x="383" y="634" on="1"/>
        <pt x="416" y="634" on="0"/>
        <pt x="448" y="626" on="1"/>
      </contour>
      <contour>
        <pt x="81" y="221" on="1"/>
        <pt x="81" y="93" on="0"/>
        <pt x="170" y="50" on="1"/>
        <pt x="257" y="243" on="0"/>
        <pt x="426" y="582" on="1"/>
        <pt x="402" y="588" on="0"/>
        <pt x="374" y="588" on="1"/>
        <pt x="294" y="588" on="0"/>
        <pt x="155" y="471" on="0"/>
        <pt x="81" y="303" on="0"/>
      </contour>
      <contour>
        <pt x="257" y="32" on="1"/>
        <pt x="337" y="32" on="0"/>
        <pt x="478" y="154" on="0"/>
        <pt x="555" y="327" on="0"/>
        <pt x="555" y="409" on="1"/>
        <pt x="555" y="460" on="0"/>
        <pt x="510" y="543" on="0"/>
        <pt x="469" y="565" on="1"/>
        <pt x="338" y="302" on="0"/>
        <pt x="215" y="36" on="1"/>
        <pt x="232" y="32" on="0"/>
      </contour>
    </TTGlyph>
    <TTGlyph name="Otilde" xMin="33" yMin="-12" xMax="627" yMax="755">
      <component glyphName="O" x="0" y="0" flags="0x204"/>
      <component glyphName="tilde.case" x="247" y="0" flags="0x4"/>
    </TTGlyph>
    <TTGlyph name="P" xMin="6" yMin="-65" xMax="720" yMax="663">
      <contour>
        <pt x="207" y="143" on="1"/>
        <pt x="210" y="159" on="0"/>
        <pt x="223" y="251" on="0"/>
        <pt x="231" y="296" on="0"/>
        <pt x="276" y="493" on="0"/>
        <pt x="375" y="624" on="0"/>
        <pt x="494" y="663" on="0"/>
        <pt x="534" y="663" on="1"/>
        <pt x="626" y="663" on="0"/>
        <pt x="720" y="545" on="0"/>
        <pt x="720" y="458" on="1"/>
        <pt x="720" y="354" on="0"/>
        <pt x="601" y="184" on="0"/>
        <pt x="509" y="184" on="1"/>
        <pt x="452" y="184" on="0"/>
        <pt x="374" y="248" on="0"/>
        <pt x="374" y="310" on="1"/>
        <pt x="374" y="377" on="0"/>
        <pt x="463" y="462" on="0"/>
        <pt x="527" y="462" on="1"/>
        <pt x="550" y="462" on="0"/>
        <pt x="580" y="442" on="0"/>
        <pt x="580" y="423" on="1"/>
        <pt x="580" y="407" on="0"/>
        <pt x="555" y="385" on="0"/>
        <pt x="537" y="385" on="1"/>
        <pt x="520" y="385" on="0"/>
        <pt x="496" y="403" on="0"/>
        <pt x="494" y="418" on="1"/>
        <pt x="464" y="415" on="0"/>
        <pt x="423" y="343" on="0"/>
        <pt x="423" y="305" on="1"/>
        <pt x="423" y="268" on="0"/>
        <pt x="469" y="232" on="0"/>
        <pt x="504" y="232" on="1"/>
        <pt x="576" y="232" on="0"/>
        <pt x="670" y="373" on="0"/>
        <pt x="670" y="458" on="1"/>
        <pt x="670" y="525" on="0"/>
        <pt x="603" y="615" on="0"/>
        <pt x="537" y="615" on="1"/>
        <pt x="489" y="615" on="0"/>
        <pt x="410" y="579" on="0"/>
        <pt x="356" y="509" on="0"/>
        <pt x="317" y="433" on="0"/>
        <pt x="289" y="322" on="0"/>
        <pt x="274" y="236" on="0"/>
        <pt x="266" y="177" on="1"/>
        <pt x="260" y="128" on="0"/>
        <pt x="240" y="53" on="0"/>
        <pt x="203" y="-23" on="0"/>
        <pt x="141" y="-65" on="0"/>
        <pt x="99" y="-65" on="1"/>
        <pt x="63" y="-65" on="0"/>
        <pt x="6" y="-9" on="0"/>
        <pt x="6" y="43" on="1"/>
        <pt x="6" y="79" on="0"/>
        <pt x="50" y="148" on="0"/>
        <pt x="85" y="148" on="1"/>
        <pt x="106" y="148" on="0"/>
        <pt x="128" y="122" on="0"/>
        <pt x="128" y="104" on="1"/>
        <pt x="128" y="84" on="0"/>
        <pt x="103" y="54" on="0"/>
        <pt x="80" y="54" on="1"/>
        <pt x="63" y="54" on="0"/>
        <pt x="52" y="61" on="1"/>
        <pt x="48" y="52" on="0"/>
        <pt x="48" y="38" on="1"/>
        <pt x="48" y="14" on="0"/>
        <pt x="82" y="-20" on="0"/>
        <pt x="110" y="-20" on="1"/>
        <pt x="181" y="-20" on="0"/>
      </contour>
    </TTGlyph>
    <TTGlyph name="Q" xMin="29" yMin="-137" xMax="790" yMax="651">
      <contour>
        <pt x="585" y="-137" on="1"/>
        <pt x="553" y="-137" on="0"/>
        <pt x="497" y="-121" on="0"/>
        <pt x="443" y="-83" on="0"/>
        <pt x="411" y="-56" on="0"/>
        <pt x="352" y="3" on="0"/>
        <pt x="342" y="13" on="1"/>
        <pt x="273" y="-10" on="0"/>
        <pt x="190" y="-10" on="1"/>
        <pt x="33" y="-10" on="0"/>
        <pt x="29" y="75" on="1"/>
        <pt x="30" y="99" on="0"/>
        <pt x="74" y="132" on="0"/>
        <pt x="132" y="145" on="0"/>
        <pt x="165" y="145" on="1"/>
        <pt x="265" y="145" on="0"/>
        <pt x="350" y="67" on="1"/>
        <pt x="434" y="108" on="0"/>
        <pt x="525" y="267" on="0"/>
        <pt x="525" y="371" on="1"/>
        <pt x="525" y="476" on="0"/>
        <pt x="412" y="608" on="0"/>
        <pt x="315" y="608" on="1"/>
        <pt x="232" y="608" on="0"/>
        <pt x="105" y="488" on="0"/>
        <pt x="105" y="376" on="1"/>
        <pt x="105" y="311" on="0"/>
        <pt x="161" y="221" on="0"/>
        <pt x="223" y="221" on="1"/>
        <pt x="262" y="221" on="0"/>
        <pt x="331" y="279" on="0"/>
        <pt x="331" y="326" on="1"/>
        <pt x="331" y="360" on="0"/>
        <pt x="308" y="377" on="1"/>
        <pt x="304" y="364" on="0"/>
        <pt x="277" y="345" on="0"/>
        <pt x="262" y="345" on="1"/>
        <pt x="243" y="345" on="0"/>
        <pt x="221" y="367" on="0"/>
        <pt x="221" y="382" on="1"/>
        <pt x="221" y="400" on="0"/>
        <pt x="248" y="426" on="0"/>
        <pt x="275" y="426" on="1"/>
        <pt x="323" y="426" on="0"/>
        <pt x="373" y="370" on="0"/>
        <pt x="373" y="327" on="1"/>
        <pt x="373" y="257" on="0"/>
        <pt x="281" y="181" on="0"/>
        <pt x="219" y="181" on="1"/>
        <pt x="133" y="181" on="0"/>
        <pt x="49" y="292" on="0"/>
        <pt x="49" y="373" on="1"/>
        <pt x="49" y="440" on="0"/>
        <pt x="95" y="549" on="0"/>
        <pt x="171" y="616" on="0"/>
        <pt x="264" y="651" on="0"/>
        <pt x="315" y="651" on="1"/>
        <pt x="439" y="651" on="0"/>
        <pt x="583" y="488" on="0"/>
        <pt x="583" y="357" on="1"/>
        <pt x="583" y="249" on="0"/>
        <pt x="480" y="77" on="0"/>
        <pt x="386" y="32" on="1"/>
        <pt x="390" y="28" on="0"/>
        <pt x="420" y="-3" on="0"/>
        <pt x="429" y="-13" on="0"/>
        <pt x="456" y="-39" on="0"/>
        <pt x="470" y="-49" on="0"/>
        <pt x="496" y="-68" on="0"/>
        <pt x="515" y="-76" on="0"/>
        <pt x="540" y="-86" on="0"/>
        <pt x="566" y="-90" on="0"/>
        <pt x="580" y="-90" on="1"/>
        <pt x="643" y="-90" on="0"/>
        <pt x="738" y="-6" on="0"/>
        <pt x="738" y="62" on="1"/>
        <pt x="738" y="99" on="0"/>
        <pt x="694" y="141" on="0"/>
        <pt x="660" y="141" on="1"/>
        <pt x="632" y="141" on="0"/>
        <pt x="594" y="109" on="0"/>
        <pt x="594" y="82" on="1"/>
        <pt x="594" y="62" on="0"/>
        <pt x="601" y="52" on="1"/>
        <pt x="606" y="66" on="0"/>
        <pt x="633" y="84" on="0"/>
        <pt x="648" y="84" on="1"/>
        <pt x="669" y="84" on="0"/>
        <pt x="692" y="59" on="0"/>
        <pt x="692" y="25" on="0"/>
        <pt x="667" y="-1" on="0"/>
        <pt x="645" y="-1" on="1"/>
        <pt x="604" y="-1" on="0"/>
        <pt x="554" y="44" on="0"/>
        <pt x="554" y="79" on="1"/>
        <pt x="554" y="122" on="0"/>
        <pt x="613" y="190" on="0"/>
        <pt x="662" y="190" on="1"/>
        <pt x="718" y="190" on="0"/>
        <pt x="790" y="110" on="0"/>
        <pt x="790" y="54" on="1"/>
        <pt x="790" y="-29" on="0"/>
        <pt x="667" y="-137" on="0"/>
      </contour>
      <contour>
        <pt x="172" y="96" on="1"/>
        <pt x="86" y="96" on="0"/>
        <pt x="80" y="63" on="1"/>
        <pt x="93" y="32" on="0"/>
        <pt x="181" y="32" on="1"/>
        <pt x="249" y="32" on="0"/>
        <pt x="301" y="48" on="1"/>
        <pt x="239" y="96" on="0"/>
      </contour>
    </TTGlyph>
    <TTGlyph name="R" xMin="16" yMin="-30" xMax="967" yMax="632">
      <contour>
        <pt x="813" y="153" on="1"/>
        <pt x="831" y="152" on="0"/>
        <pt x="853" y="123" on="0"/>
        <pt x="853" y="106" on="1"/>
        <pt x="853" y="92" on="0"/>
        <pt x="837" y="72" on="0"/>
        <pt x="822" y="72" on="1"/>
        <pt x="803" y="72" on="0"/>
        <pt x="772" y="112" on="0"/>
        <pt x="772" y="147" on="1"/>
        <pt x="772" y="192" on="0"/>
        <pt x="826" y="242" on="0"/>
        <pt x="859" y="242" on="1"/>
        <pt x="907" y="242" on="0"/>
        <pt x="967" y="183" on="0"/>
        <pt x="967" y="126" on="1"/>
        <pt x="967" y="87" on="0"/>
        <pt x="936" y="28" on="0"/>
        <pt x="885" y="-10" on="0"/>
        <pt x="816" y="-29" on="0"/>
        <pt x="779" y="-29" on="1"/>
        <pt x="749" y="-29" on="0"/>
        <pt x="699" y="-14" on="0"/>
        <pt x="661" y="16" on="0"/>
        <pt x="640" y="60" on="0"/>
        <pt x="640" y="89" on="1"/>
        <pt x="640" y="97" on="0"/>
        <pt x="649" y="138" on="0"/>
        <pt x="660" y="183" on="0"/>
        <pt x="669" y="224" on="0"/>
        <pt x="669" y="233" on="1"/>
        <pt x="669" y="245" on="0"/>
        <pt x="668" y="248" on="1"/>
        <pt x="627" y="216" on="0"/>
        <pt x="573" y="216" on="1"/>
        <pt x="530" y="216" on="0"/>
        <pt x="470" y="254" on="0"/>
        <pt x="470" y="292" on="1"/>
        <pt x="470" y="323" on="0"/>
        <pt x="520" y="372" on="0"/>
        <pt x="568" y="372" on="1"/>
        <pt x="629" y="372" on="0"/>
        <pt x="679" y="330" on="1"/>
        <pt x="698" y="356" on="0"/>
        <pt x="728" y="437" on="0"/>
        <pt x="728" y="475" on="1"/>
        <pt x="728" y="523" on="0"/>
        <pt x="669" y="583" on="0"/>
        <pt x="612" y="583" on="1"/>
        <pt x="557" y="583" on="0"/>
        <pt x="483" y="530" on="0"/>
        <pt x="432" y="444" on="0"/>
        <pt x="398" y="334" on="0"/>
        <pt x="368" y="219" on="0"/>
        <pt x="335" y="109" on="0"/>
        <pt x="286" y="23" on="0"/>
        <pt x="214" y="-30" on="0"/>
        <pt x="160" y="-30" on="1"/>
        <pt x="127" y="-30" on="0"/>
        <pt x="74" y="-10" on="0"/>
        <pt x="37" y="24" on="0"/>
        <pt x="16" y="72" on="0"/>
        <pt x="16" y="99" on="1"/>
        <pt x="16" y="128" on="0"/>
        <pt x="33" y="183" on="0"/>
        <pt x="65" y="225" on="0"/>
        <pt x="111" y="251" on="0"/>
        <pt x="139" y="251" on="1"/>
        <pt x="167" y="251" on="0"/>
        <pt x="212" y="221" on="0"/>
        <pt x="212" y="191" on="1"/>
        <pt x="212" y="172" on="0"/>
        <pt x="190" y="145" on="0"/>
        <pt x="173" y="145" on="1"/>
        <pt x="151" y="145" on="0"/>
        <pt x="121" y="186" on="0"/>
        <pt x="121" y="209" on="1"/>
        <pt x="97" y="197" on="0"/>
        <pt x="67" y="135" on="0"/>
        <pt x="67" y="102" on="1"/>
        <pt x="67" y="60" on="0"/>
        <pt x="115" y="16" on="0"/>
        <pt x="145" y="16" on="1"/>
        <pt x="193" y="16" on="0"/>
        <pt x="254" y="69" on="0"/>
        <pt x="294" y="156" on="0"/>
        <pt x="322" y="266" on="0"/>
        <pt x="351" y="382" on="0"/>
        <pt x="389" y="492" on="0"/>
        <pt x="452" y="579" on="0"/>
        <pt x="546" y="632" on="0"/>
        <pt x="616" y="632" on="1"/>
        <pt x="654" y="632" on="0"/>
        <pt x="714" y="606" on="0"/>
        <pt x="756" y="561" on="0"/>
        <pt x="779" y="500" on="0"/>
        <pt x="779" y="466" on="1"/>
        <pt x="779" y="363" on="0"/>
        <pt x="710" y="291" on="1"/>
        <pt x="721" y="267" on="0"/>
        <pt x="721" y="244" on="1"/>
        <pt x="721" y="234" on="0"/>
        <pt x="712" y="193" on="0"/>
        <pt x="701" y="146" on="0"/>
        <pt x="692" y="102" on="0"/>
        <pt x="692" y="90" on="1"/>
        <pt x="692" y="54" on="0"/>
        <pt x="744" y="16" on="0"/>
        <pt x="783" y="16" on="1"/>
        <pt x="810" y="16" on="0"/>
        <pt x="859" y="31" on="0"/>
        <pt x="896" y="60" on="0"/>
        <pt x="918" y="103" on="0"/>
        <pt x="918" y="130" on="1"/>
        <pt x="918" y="159" on="0"/>
        <pt x="892" y="199" on="0"/>
        <pt x="865" y="199" on="1"/>
        <pt x="847" y="199" on="0"/>
        <pt x="818" y="177" on="0"/>
      </contour>
      <contour>
        <pt x="650" y="296" on="1"/>
        <pt x="642" y="307" on="0"/>
        <pt x="596" y="323" on="0"/>
        <pt x="573" y="323" on="1"/>
        <pt x="519" y="323" on="0"/>
        <pt x="519" y="287" on="1"/>
        <pt x="519" y="264" on="0"/>
        <pt x="562" y="264" on="1"/>
        <pt x="588" y="264" on="0"/>
        <pt x="643" y="283" on="0"/>
      </contour>
    </TTGlyph>
    <TTGlyph name="S" xMin="41" yMin="-13" xMax="452" yMax="647">
      <contour>
        <pt x="298" y="225" on="1"/>
        <pt x="298" y="198" on="0"/>
        <pt x="265" y="166" on="0"/>
        <pt x="245" y="166" on="1"/>
        <pt x="229" y="166" on="0"/>
        <pt x="204" y="185" on="0"/>
        <pt x="204" y="219" on="0"/>
        <pt x="225" y="248" on="0"/>
        <pt x="239" y="255" on="1"/>
        <pt x="218" y="266" on="0"/>
        <pt x="193" y="266" on="1"/>
        <pt x="151" y="266" on="0"/>
        <pt x="90" y="201" on="0"/>
        <pt x="90" y="156" on="1"/>
        <pt x="90" y="94" on="0"/>
        <pt x="170" y="30" on="0"/>
        <pt x="231" y="30" on="1"/>
        <pt x="306" y="30" on="0"/>
        <pt x="398" y="96" on="0"/>
        <pt x="398" y="166" on="1"/>
        <pt x="398" y="212" on="0"/>
        <pt x="337" y="281" on="0"/>
        <pt x="251" y="327" on="0"/>
        <pt x="165" y="375" on="0"/>
        <pt x="104" y="451" on="0"/>
        <pt x="104" y="501" on="1"/>
        <pt x="104" y="574" on="0"/>
        <pt x="209" y="647" on="0"/>
        <pt x="288" y="647" on="1"/>
        <pt x="356" y="647" on="0"/>
        <pt x="451" y="584" on="0"/>
        <pt x="451" y="518" on="1"/>
        <pt x="451" y="472" on="0"/>
        <pt x="394" y="400" on="0"/>
        <pt x="345" y="400" on="1"/>
        <pt x="320" y="400" on="0"/>
        <pt x="284" y="425" on="0"/>
        <pt x="284" y="447" on="1"/>
        <pt x="284" y="463" on="0"/>
        <pt x="307" y="482" on="0"/>
        <pt x="323" y="482" on="1"/>
        <pt x="336" y="482" on="0"/>
        <pt x="367" y="460" on="0"/>
        <pt x="376" y="444" on="1"/>
        <pt x="403" y="477" on="0"/>
        <pt x="403" y="512" on="1"/>
        <pt x="403" y="556" on="0"/>
        <pt x="335" y="605" on="0"/>
        <pt x="289" y="605" on="1"/>
        <pt x="236" y="605" on="0"/>
        <pt x="156" y="549" on="0"/>
        <pt x="156" y="501" on="1"/>
        <pt x="156" y="466" on="0"/>
        <pt x="217" y="406" on="0"/>
        <pt x="304" y="358" on="0"/>
        <pt x="391" y="306" on="0"/>
        <pt x="452" y="224" on="0"/>
        <pt x="452" y="172" on="1"/>
        <pt x="452" y="79" on="0"/>
        <pt x="338" y="-13" on="0"/>
        <pt x="240" y="-13" on="1"/>
        <pt x="155" y="-13" on="0"/>
        <pt x="41" y="70" on="0"/>
        <pt x="41" y="155" on="1"/>
        <pt x="41" y="221" on="0"/>
        <pt x="124" y="305" on="0"/>
        <pt x="199" y="305" on="1"/>
        <pt x="235" y="305" on="0"/>
        <pt x="298" y="264" on="0"/>
      </contour>
    </TTGlyph>
    <TTGlyph name="T" xMin="41" yMin="-11" xMax="652" yMax="639">
      <contour>
        <pt x="195" y="154" on="1"/>
        <pt x="196" y="172" on="0"/>
        <pt x="224" y="198" on="0"/>
        <pt x="243" y="198" on="1"/>
        <pt x="258" y="198" on="0"/>
        <pt x="284" y="180" on="0"/>
        <pt x="289" y="166" on="1"/>
        <pt x="310" y="187" on="0"/>
        <pt x="310" y="207" on="1"/>
        <pt x="310" y="233" on="0"/>
        <pt x="272" y="269" on="0"/>
        <pt x="241" y="269" on="1"/>
        <pt x="192" y="269" on="0"/>
        <pt x="141" y="204" on="0"/>
        <pt x="141" y="153" on="1"/>
        <pt x="141" y="127" on="0"/>
        <pt x="160" y="83" on="0"/>
        <pt x="191" y="52" on="0"/>
        <pt x="233" y="35" on="0"/>
        <pt x="257" y="35" on="1"/>
        <pt x="306" y="35" on="0"/>
        <pt x="357" y="93" on="0"/>
        <pt x="382" y="187" on="0"/>
        <pt x="390" y="306" on="0"/>
        <pt x="398" y="367" on="1"/>
        <pt x="406" y="430" on="0"/>
        <pt x="420" y="463" on="1"/>
        <pt x="401" y="471" on="0"/>
        <pt x="343" y="506" on="0"/>
        <pt x="301" y="534" on="1"/>
        <pt x="217" y="591" on="0"/>
        <pt x="182" y="591" on="1"/>
        <pt x="137" y="591" on="0"/>
        <pt x="90" y="535" on="0"/>
        <pt x="90" y="496" on="1"/>
        <pt x="90" y="475" on="0"/>
        <pt x="102" y="438" on="0"/>
        <pt x="125" y="409" on="0"/>
        <pt x="157" y="391" on="0"/>
        <pt x="177" y="390" on="1"/>
        <pt x="232" y="390" on="0"/>
        <pt x="253" y="423" on="1"/>
        <pt x="230" y="434" on="0"/>
        <pt x="230" y="462" on="1"/>
        <pt x="230" y="480" on="0"/>
        <pt x="253" y="505" on="0"/>
        <pt x="270" y="505" on="1"/>
        <pt x="287" y="505" on="0"/>
        <pt x="311" y="480" on="0"/>
        <pt x="311" y="462" on="1"/>
        <pt x="311" y="438" on="0"/>
        <pt x="293" y="396" on="0"/>
        <pt x="261" y="365" on="0"/>
        <pt x="217" y="347" on="0"/>
        <pt x="190" y="347" on="1"/>
        <pt x="160" y="347" on="0"/>
        <pt x="106" y="369" on="0"/>
        <pt x="65" y="408" on="0"/>
        <pt x="41" y="462" on="0"/>
        <pt x="41" y="494" on="1"/>
        <pt x="41" y="524" on="0"/>
        <pt x="60" y="577" on="0"/>
        <pt x="96" y="616" on="0"/>
        <pt x="147" y="639" on="0"/>
        <pt x="179" y="639" on="1"/>
        <pt x="226" y="639" on="0"/>
        <pt x="301" y="594" on="0"/>
        <pt x="372" y="540" on="0"/>
        <pt x="444" y="495" on="0"/>
        <pt x="488" y="495" on="1"/>
        <pt x="548" y="495" on="0"/>
        <pt x="591" y="538" on="1"/>
        <pt x="574" y="552" on="0"/>
        <pt x="574" y="574" on="1"/>
        <pt x="574" y="590" on="0"/>
        <pt x="598" y="613" on="0"/>
        <pt x="616" y="613" on="1"/>
        <pt x="652" y="613" on="0"/>
        <pt x="652" y="569" on="1"/>
        <pt x="650" y="542" on="0"/>
        <pt x="623" y="498" on="0"/>
        <pt x="578" y="466" on="0"/>
        <pt x="522" y="448" on="0"/>
        <pt x="492" y="448" on="1"/>
        <pt x="488" y="448" on="0"/>
        <pt x="476" y="449" on="0"/>
        <pt x="468" y="450" on="1"/>
        <pt x="453" y="423" on="0"/>
        <pt x="442" y="334" on="0"/>
        <pt x="434" y="231" on="0"/>
        <pt x="421" y="127" on="0"/>
        <pt x="387" y="42" on="0"/>
        <pt x="322" y="-11" on="0"/>
        <pt x="267" y="-11" on="1"/>
        <pt x="229" y="-11" on="0"/>
        <pt x="164" y="14" on="0"/>
        <pt x="118" y="57" on="0"/>
        <pt x="92" y="115" on="0"/>
        <pt x="92" y="149" on="1"/>
        <pt x="92" y="183" on="0"/>
        <pt x="115" y="244" on="0"/>
        <pt x="155" y="290" on="0"/>
        <pt x="209" y="317" on="0"/>
        <pt x="240" y="317" on="1"/>
        <pt x="297" y="317" on="0"/>
        <pt x="355" y="255" on="0"/>
        <pt x="355" y="210" on="1"/>
        <pt x="355" y="189" on="0"/>
        <pt x="339" y="151" on="0"/>
        <pt x="311" y="122" on="0"/>
        <pt x="273" y="106" on="0"/>
        <pt x="251" y="106" on="1"/>
        <pt x="195" y="106" on="0"/>
      </contour>
    </TTGlyph>
    <TTGlyph name="Thorn" xMin="33" yMin="-11" xMax="570" yMax="665">
      <contour>
        <pt x="414" y="659" on="1"/>
        <pt x="389" y="557" on="1"/>
        <pt x="570" y="529" on="0"/>
        <pt x="570" y="369" on="1"/>
        <pt x="570" y="319" on="0"/>
        <pt x="533" y="241" on="0"/>
        <pt x="469" y="187" on="0"/>
        <pt x="383" y="158" on="0"/>
        <pt x="335" y="158" on="1"/>
        <pt x="312" y="158" on="0"/>
        <pt x="288" y="161" on="1"/>
        <pt x="272" y="109" on="0"/>
        <pt x="244" y="42" on="0"/>
        <pt x="210" y="4" on="0"/>
        <pt x="168" y="-11" on="0"/>
        <pt x="138" y="-11" on="1"/>
        <pt x="95" y="-11" on="0"/>
        <pt x="33" y="33" on="0"/>
        <pt x="33" y="75" on="1"/>
        <pt x="33" y="101" on="0"/>
        <pt x="72" y="140" on="0"/>
        <pt x="104" y="140" on="1"/>
        <pt x="120" y="140" on="0"/>
        <pt x="144" y="120" on="0"/>
        <pt x="144" y="103" on="1"/>
        <pt x="144" y="89" on="0"/>
        <pt x="124" y="68" on="0"/>
        <pt x="107" y="68" on="1"/>
        <pt x="87" y="68" on="0"/>
        <pt x="78" y="80" on="1"/>
        <pt x="76" y="76" on="0"/>
        <pt x="76" y="70" on="1"/>
        <pt x="76" y="51" on="0"/>
        <pt x="113" y="27" on="0"/>
        <pt x="136" y="27" on="1"/>
        <pt x="152" y="27" on="0"/>
        <pt x="180" y="41" on="0"/>
        <pt x="208" y="85" on="0"/>
        <pt x="240" y="166" on="0"/>
        <pt x="279" y="299" on="0"/>
        <pt x="328" y="494" on="0"/>
        <pt x="359" y="629" on="1"/>
        <pt x="250" y="628" on="0"/>
        <pt x="141" y="579" on="0"/>
        <pt x="141" y="522" on="1"/>
        <pt x="141" y="508" on="0"/>
        <pt x="154" y="486" on="0"/>
        <pt x="166" y="486" on="1"/>
        <pt x="172" y="486" on="0"/>
        <pt x="174" y="487" on="1"/>
        <pt x="170" y="494" on="0"/>
        <pt x="170" y="506" on="1"/>
        <pt x="170" y="522" on="0"/>
        <pt x="192" y="545" on="0"/>
        <pt x="207" y="545" on="1"/>
        <pt x="223" y="545" on="0"/>
        <pt x="244" y="523" on="0"/>
        <pt x="244" y="506" on="1"/>
        <pt x="244" y="479" on="0"/>
        <pt x="206" y="449" on="0"/>
        <pt x="178" y="449" on="1"/>
        <pt x="145" y="449" on="0"/>
        <pt x="94" y="493" on="0"/>
        <pt x="94" y="533" on="1"/>
        <pt x="94" y="573" on="0"/>
        <pt x="139" y="625" on="0"/>
        <pt x="207" y="654" on="0"/>
        <pt x="287" y="665" on="0"/>
        <pt x="322" y="665" on="1"/>
        <pt x="370" y="665" on="0"/>
      </contour>
      <contour>
        <pt x="380" y="521" on="1"/>
        <pt x="315" y="255" on="0"/>
        <pt x="300" y="202" on="1"/>
        <pt x="312" y="201" on="0"/>
        <pt x="336" y="201" on="1"/>
        <pt x="413" y="201" on="0"/>
        <pt x="521" y="291" on="0"/>
        <pt x="521" y="374" on="1"/>
        <pt x="521" y="428" on="0"/>
        <pt x="453" y="508" on="0"/>
      </contour>
    </TTGlyph>
    <TTGlyph name="U" xMin="29" yMin="-9" xMax="823" yMax="631">
      <contour>
        <pt x="768" y="517" on="1"/>
        <pt x="773" y="532" on="0"/>
        <pt x="772" y="575" on="0"/>
        <pt x="755" y="575" on="1"/>
        <pt x="713" y="575" on="0"/>
        <pt x="595" y="335" on="0"/>
        <pt x="580" y="212" on="1"/>
        <pt x="645" y="288" on="0"/>
        <pt x="750" y="460" on="0"/>
      </contour>
      <contour>
        <pt x="166" y="442" on="1"/>
        <pt x="166" y="459" on="0"/>
        <pt x="188" y="482" on="0"/>
        <pt x="204" y="482" on="1"/>
        <pt x="221" y="482" on="0"/>
        <pt x="243" y="455" on="0"/>
        <pt x="243" y="437" on="1"/>
        <pt x="243" y="389" on="0"/>
        <pt x="166" y="305" on="0"/>
        <pt x="114" y="305" on="1"/>
        <pt x="71" y="305" on="0"/>
        <pt x="29" y="359" on="0"/>
        <pt x="29" y="402" on="1"/>
        <pt x="29" y="485" on="0"/>
        <pt x="196" y="631" on="0"/>
        <pt x="281" y="631" on="1"/>
        <pt x="406" y="631" on="0"/>
        <pt x="406" y="509" on="1"/>
        <pt x="406" y="470" on="0"/>
        <pt x="365" y="360" on="0"/>
        <pt x="316" y="266" on="0"/>
        <pt x="275" y="150" on="0"/>
        <pt x="275" y="106" on="1"/>
        <pt x="275" y="43" on="0"/>
        <pt x="333" y="43" on="1"/>
        <pt x="415" y="43" on="0"/>
        <pt x="529" y="157" on="1"/>
        <pt x="529" y="253" on="0"/>
        <pt x="599" y="474" on="0"/>
        <pt x="717" y="630" on="0"/>
        <pt x="776" y="630" on="1"/>
        <pt x="799" y="630" on="0"/>
        <pt x="823" y="595" on="0"/>
        <pt x="823" y="570" on="1"/>
        <pt x="823" y="493" on="0"/>
        <pt x="677" y="241" on="0"/>
        <pt x="576" y="139" on="1"/>
        <pt x="579" y="91" on="0"/>
        <pt x="617" y="36" on="0"/>
        <pt x="648" y="36" on="1"/>
        <pt x="684" y="36" on="0"/>
        <pt x="715" y="56" on="1"/>
        <pt x="687" y="71" on="0"/>
        <pt x="687" y="106" on="1"/>
        <pt x="687" y="129" on="0"/>
        <pt x="713" y="164" on="0"/>
        <pt x="735" y="164" on="1"/>
        <pt x="755" y="164" on="0"/>
        <pt x="783" y="133" on="0"/>
        <pt x="783" y="110" on="1"/>
        <pt x="783" y="67" on="0"/>
        <pt x="698" y="-9" on="0"/>
        <pt x="648" y="-9" on="1"/>
        <pt x="554" y="-9" on="0"/>
        <pt x="534" y="99" on="1"/>
        <pt x="413" y="-7" on="0"/>
        <pt x="326" y="-7" on="1"/>
        <pt x="278" y="-7" on="0"/>
        <pt x="222" y="55" on="0"/>
        <pt x="222" y="100" on="1"/>
        <pt x="222" y="158" on="0"/>
        <pt x="288" y="315" on="0"/>
        <pt x="354" y="464" on="0"/>
        <pt x="354" y="514" on="1"/>
        <pt x="354" y="548" on="0"/>
        <pt x="315" y="590" on="0"/>
        <pt x="278" y="590" on="1"/>
        <pt x="207" y="590" on="0"/>
        <pt x="74" y="452" on="0"/>
        <pt x="74" y="393" on="1"/>
        <pt x="74" y="348" on="0"/>
        <pt x="109" y="348" on="1"/>
        <pt x="139" y="348" on="0"/>
        <pt x="186" y="378" on="0"/>
        <pt x="196" y="403" on="1"/>
        <pt x="183" y="406" on="0"/>
        <pt x="166" y="428" on="0"/>
      </contour>
    </TTGlyph>
    <TTGlyph name="Uacute" xMin="29" yMin="-9" xMax="823" yMax="817">
      <component glyphName="U" x="0" y="0" flags="0x204"/>
      <component glyphName="acute.case" x="451" y="0" flags="0x4"/>
    </TTGlyph>
    <TTGlyph name="Ucircumflex" xMin="29" yMin="-9" xMax="823" yMax="804">
      <component glyphName="U" x="0" y="0" flags="0x204"/>
      <component glyphName="circumflex.case" x="385" y="0" flags="0x4"/>
    </TTGlyph>
    <TTGlyph name="Udieresis" xMin="29" yMin="-9" xMax="823" yMax="755">
      <component glyphName="U" x="0" y="0" flags="0x204"/>
      <component glyphName="dieresis.case" x="381" y="0" flags="0x4"/>
    </TTGlyph>
    <TTGlyph name="Ugrave" xMin="29" yMin="-9" xMax="823" yMax="817">
      <component glyphName="U" x="0" y="0" flags="0x204"/>
      <component glyphName="grave.case" x="462" y="0" flags="0x4"/>
    </TTGlyph>
    <TTGlyph name="V" xMin="-20" yMin="-2" xMax="816" yMax="635">
      <contour>
        <pt x="720" y="507" on="1"/>
        <pt x="731" y="507" on="0"/>
        <pt x="758" y="493" on="0"/>
        <pt x="764" y="485" on="1"/>
        <pt x="777" y="492" on="0"/>
        <pt x="777" y="517" on="1"/>
        <pt x="777" y="539" on="0"/>
        <pt x="748" y="573" on="0"/>
        <pt x="722" y="573" on="1"/>
        <pt x="682" y="573" on="0"/>
        <pt x="626" y="524" on="0"/>
        <pt x="581" y="443" on="0"/>
        <pt x="545" y="339" on="0"/>
        <pt x="510" y="232" on="0"/>
        <pt x="470" y="128" on="0"/>
        <pt x="417" y="47" on="0"/>
        <pt x="346" y="-2" on="0"/>
        <pt x="297" y="-2" on="1"/>
        <pt x="184" y="-2" on="0"/>
        <pt x="184" y="131" on="1"/>
        <pt x="184" y="166" on="0"/>
        <pt x="206" y="273" on="0"/>
        <pt x="233" y="385" on="0"/>
        <pt x="255" y="472" on="0"/>
        <pt x="256" y="513" on="1"/>
        <pt x="256" y="552" on="0"/>
        <pt x="214" y="591" on="0"/>
        <pt x="181" y="591" on="1"/>
        <pt x="154" y="591" on="0"/>
        <pt x="99" y="574" on="0"/>
        <pt x="56" y="539" on="0"/>
        <pt x="28" y="484" on="0"/>
        <pt x="28" y="447" on="1"/>
        <pt x="28" y="420" on="0"/>
        <pt x="55" y="380" on="0"/>
        <pt x="82" y="380" on="1"/>
        <pt x="113" y="380" on="0"/>
        <pt x="125" y="396" on="1"/>
        <pt x="105" y="408" on="0"/>
        <pt x="105" y="434" on="1"/>
        <pt x="105" y="451" on="0"/>
        <pt x="126" y="476" on="0"/>
        <pt x="141" y="476" on="1"/>
        <pt x="156" y="476" on="0"/>
        <pt x="177" y="451" on="0"/>
        <pt x="177" y="434" on="1"/>
        <pt x="177" y="416" on="0"/>
        <pt x="164" y="381" on="0"/>
        <pt x="141" y="354" on="0"/>
        <pt x="109" y="338" on="0"/>
        <pt x="89" y="338" on="1"/>
        <pt x="37" y="338" on="0"/>
        <pt x="-20" y="408" on="0"/>
        <pt x="-20" y="460" on="1"/>
        <pt x="-20" y="503" on="0"/>
        <pt x="16" y="568" on="0"/>
        <pt x="74" y="612" on="0"/>
        <pt x="146" y="635" on="0"/>
        <pt x="183" y="635" on="1"/>
        <pt x="237" y="635" on="0"/>
        <pt x="306" y="570" on="0"/>
        <pt x="306" y="504" on="1"/>
        <pt x="306" y="442" on="0"/>
        <pt x="270" y="324" on="1"/>
        <pt x="234" y="205" on="0"/>
        <pt x="234" y="140" on="1"/>
        <pt x="234" y="43" on="0"/>
        <pt x="298" y="43" on="1"/>
        <pt x="335" y="43" on="0"/>
        <pt x="392" y="92" on="0"/>
        <pt x="437" y="173" on="0"/>
        <pt x="474" y="277" on="0"/>
        <pt x="511" y="385" on="0"/>
        <pt x="550" y="488" on="0"/>
        <pt x="600" y="569" on="0"/>
        <pt x="664" y="619" on="0"/>
        <pt x="706" y="619" on="1"/>
        <pt x="757" y="619" on="0"/>
        <pt x="816" y="566" on="0"/>
        <pt x="816" y="524" on="1"/>
        <pt x="816" y="478" on="0"/>
        <pt x="765" y="423" on="0"/>
        <pt x="718" y="423" on="1"/>
        <pt x="697" y="423" on="0"/>
        <pt x="676" y="449" on="0"/>
        <pt x="676" y="465" on="1"/>
        <pt x="676" y="482" on="0"/>
        <pt x="698" y="507" on="0"/>
      </contour>
    </TTGlyph>
    <TTGlyph name="W" xMin="29" yMin="-4" xMax="877" yMax="652">
      <contour>
        <pt x="739" y="485" on="1"/>
        <pt x="760" y="485" on="0"/>
        <pt x="783" y="452" on="0"/>
        <pt x="783" y="430" on="1"/>
        <pt x="783" y="383" on="0"/>
        <pt x="728" y="331" on="0"/>
        <pt x="687" y="331" on="1"/>
        <pt x="625" y="331" on="0"/>
        <pt x="554" y="422" on="0"/>
        <pt x="554" y="485" on="1"/>
        <pt x="554" y="552" on="0"/>
        <pt x="639" y="652" on="0"/>
        <pt x="716" y="652" on="1"/>
        <pt x="792" y="652" on="0"/>
        <pt x="877" y="550" on="0"/>
        <pt x="877" y="446" on="1"/>
        <pt x="877" y="335" on="0"/>
        <pt x="809" y="135" on="0"/>
        <pt x="666" y="-1" on="0"/>
        <pt x="571" y="-1" on="1"/>
        <pt x="490" y="-1" on="0"/>
        <pt x="439" y="47" on="1"/>
        <pt x="372" y="-4" on="0"/>
        <pt x="292" y="-4" on="1"/>
        <pt x="152" y="-4" on="0"/>
        <pt x="152" y="135" on="1"/>
        <pt x="152" y="191" on="0"/>
        <pt x="224" y="430" on="0"/>
        <pt x="224" y="492" on="1"/>
        <pt x="224" y="550" on="0"/>
        <pt x="173" y="550" on="1"/>
        <pt x="146" y="550" on="0"/>
        <pt x="89" y="514" on="0"/>
        <pt x="77" y="489" on="1"/>
        <pt x="104" y="472" on="0"/>
        <pt x="104" y="447" on="1"/>
        <pt x="104" y="434" on="0"/>
        <pt x="82" y="410" on="0"/>
        <pt x="67" y="410" on="1"/>
        <pt x="51" y="410" on="0"/>
        <pt x="29" y="437" on="0"/>
        <pt x="29" y="460" on="1"/>
        <pt x="29" y="516" on="0"/>
        <pt x="126" y="593" on="0"/>
        <pt x="182" y="593" on="1"/>
        <pt x="223" y="593" on="0"/>
        <pt x="277" y="545" on="0"/>
        <pt x="277" y="497" on="1"/>
        <pt x="277" y="443" on="0"/>
        <pt x="204" y="202" on="0"/>
        <pt x="204" y="149" on="1"/>
        <pt x="204" y="97" on="0"/>
        <pt x="240" y="41" on="0"/>
        <pt x="287" y="41" on="1"/>
        <pt x="346" y="41" on="0"/>
        <pt x="407" y="89" on="1"/>
        <pt x="387" y="127" on="0"/>
        <pt x="387" y="180" on="1"/>
        <pt x="387" y="244" on="0"/>
        <pt x="456" y="330" on="0"/>
        <pt x="495" y="330" on="1"/>
        <pt x="550" y="330" on="0"/>
        <pt x="550" y="260" on="1"/>
        <pt x="550" y="160" on="0"/>
        <pt x="476" y="81" on="1"/>
        <pt x="513" y="44" on="0"/>
        <pt x="573" y="44" on="1"/>
        <pt x="651" y="44" on="0"/>
        <pt x="774" y="175" on="0"/>
        <pt x="832" y="353" on="0"/>
        <pt x="832" y="441" on="1"/>
        <pt x="832" y="527" on="0"/>
        <pt x="771" y="611" on="0"/>
        <pt x="720" y="611" on="1"/>
        <pt x="666" y="611" on="0"/>
        <pt x="599" y="526" on="0"/>
        <pt x="599" y="473" on="1"/>
        <pt x="599" y="430" on="0"/>
        <pt x="648" y="371" on="0"/>
        <pt x="694" y="371" on="1"/>
        <pt x="709" y="371" on="0"/>
        <pt x="734" y="390" on="0"/>
        <pt x="739" y="403" on="1"/>
        <pt x="720" y="403" on="0"/>
        <pt x="695" y="427" on="0"/>
        <pt x="695" y="461" on="0"/>
        <pt x="720" y="485" on="0"/>
      </contour>
      <contour>
        <pt x="436" y="180" on="1"/>
        <pt x="436" y="150" on="0"/>
        <pt x="445" y="126" on="1"/>
        <pt x="504" y="192" on="0"/>
        <pt x="504" y="256" on="1"/>
        <pt x="504" y="284" on="0"/>
        <pt x="487" y="284" on="1"/>
        <pt x="463" y="277" on="0"/>
        <pt x="436" y="211" on="0"/>
      </contour>
    </TTGlyph>
    <TTGlyph name="X" xMin="35" yMin="-13" xMax="721" yMax="638">
      <contour>
        <pt x="192" y="461" on="1"/>
        <pt x="192" y="478" on="0"/>
        <pt x="212" y="501" on="0"/>
        <pt x="242" y="501" on="0"/>
        <pt x="263" y="478" on="0"/>
        <pt x="263" y="461" on="1"/>
        <pt x="263" y="412" on="0"/>
        <pt x="200" y="358" on="0"/>
        <pt x="158" y="358" on="1"/>
        <pt x="115" y="358" on="0"/>
        <pt x="74" y="407" on="0"/>
        <pt x="74" y="445" on="1"/>
        <pt x="74" y="532" on="0"/>
        <pt x="212" y="638" on="0"/>
        <pt x="294" y="638" on="1"/>
        <pt x="360" y="638" on="0"/>
        <pt x="431" y="556" on="0"/>
        <pt x="437" y="485" on="1"/>
        <pt x="517" y="622" on="0"/>
        <pt x="620" y="622" on="1"/>
        <pt x="655" y="622" on="0"/>
        <pt x="714" y="575" on="0"/>
        <pt x="714" y="530" on="1"/>
        <pt x="714" y="501" on="0"/>
        <pt x="669" y="450" on="0"/>
        <pt x="635" y="450" on="1"/>
        <pt x="621" y="450" on="0"/>
        <pt x="598" y="471" on="0"/>
        <pt x="598" y="491" on="1"/>
        <pt x="598" y="510" on="0"/>
        <pt x="631" y="535" on="0"/>
        <pt x="652" y="535" on="1"/>
        <pt x="661" y="535" on="0"/>
        <pt x="670" y="532" on="1"/>
        <pt x="670" y="554" on="0"/>
        <pt x="645" y="582" on="0"/>
        <pt x="621" y="582" on="1"/>
        <pt x="556" y="582" on="0"/>
        <pt x="456" y="438" on="0"/>
        <pt x="427" y="336" on="1"/>
        <pt x="406" y="269" on="0"/>
        <pt x="404" y="195" on="1"/>
        <pt x="404" y="123" on="0"/>
        <pt x="463" y="32" on="0"/>
        <pt x="530" y="32" on="1"/>
        <pt x="580" y="32" on="0"/>
        <pt x="671" y="100" on="0"/>
        <pt x="671" y="162" on="1"/>
        <pt x="671" y="195" on="0"/>
        <pt x="630" y="233" on="0"/>
        <pt x="602" y="233" on="1"/>
        <pt x="577" y="233" on="0"/>
        <pt x="540" y="202" on="0"/>
        <pt x="540" y="175" on="1"/>
        <pt x="562" y="175" on="0"/>
        <pt x="592" y="152" on="0"/>
        <pt x="592" y="118" on="0"/>
        <pt x="570" y="98" on="0"/>
        <pt x="555" y="98" on="1"/>
        <pt x="529" y="98" on="0"/>
        <pt x="502" y="145" on="0"/>
        <pt x="502" y="179" on="1"/>
        <pt x="502" y="228" on="0"/>
        <pt x="559" y="278" on="0"/>
        <pt x="604" y="278" on="1"/>
        <pt x="659" y="278" on="0"/>
        <pt x="721" y="211" on="0"/>
        <pt x="721" y="159" on="1"/>
        <pt x="721" y="94" on="0"/>
        <pt x="610" y="-13" on="0"/>
        <pt x="533" y="-13" on="1"/>
        <pt x="372" y="-13" on="0"/>
        <pt x="356" y="145" on="1"/>
        <pt x="314" y="72" on="0"/>
        <pt x="203" y="-13" on="0"/>
        <pt x="145" y="-13" on="1"/>
        <pt x="98" y="-13" on="0"/>
        <pt x="35" y="37" on="0"/>
        <pt x="35" y="86" on="1"/>
        <pt x="35" y="119" on="0"/>
        <pt x="83" y="166" on="0"/>
        <pt x="119" y="166" on="1"/>
        <pt x="164" y="166" on="0"/>
        <pt x="164" y="127" on="1"/>
        <pt x="164" y="109" on="0"/>
        <pt x="140" y="83" on="0"/>
        <pt x="118" y="83" on="1"/>
        <pt x="91" y="83" on="0"/>
        <pt x="80" y="97" on="1"/>
        <pt x="76" y="88" on="0"/>
        <pt x="76" y="78" on="1"/>
        <pt x="76" y="58" on="0"/>
        <pt x="109" y="31" on="0"/>
        <pt x="134" y="31" on="1"/>
        <pt x="205" y="31" on="0"/>
        <pt x="326" y="169" on="0"/>
        <pt x="391" y="371" on="0"/>
        <pt x="391" y="473" on="1"/>
        <pt x="391" y="534" on="0"/>
        <pt x="333" y="594" on="0"/>
        <pt x="288" y="594" on="1"/>
        <pt x="222" y="594" on="0"/>
        <pt x="122" y="517" on="0"/>
        <pt x="122" y="445" on="1"/>
        <pt x="122" y="396" on="0"/>
        <pt x="164" y="396" on="1"/>
        <pt x="195" y="396" on="0"/>
        <pt x="213" y="425" on="1"/>
        <pt x="192" y="435" on="0"/>
      </contour>
    </TTGlyph>
    <TTGlyph name="Y" xMin="29" yMin="-19" xMax="665" yMax="659">
      <contour>
        <pt x="315" y="21" on="1"/>
        <pt x="349" y="21" on="0"/>
        <pt x="408" y="62" on="0"/>
        <pt x="456" y="140" on="0"/>
        <pt x="493" y="227" on="0"/>
        <pt x="511" y="284" on="1"/>
        <pt x="482" y="260" on="0"/>
        <pt x="398" y="228" on="0"/>
        <pt x="362" y="228" on="1"/>
        <pt x="317" y="228" on="0"/>
        <pt x="260" y="274" on="0"/>
        <pt x="260" y="325" on="1"/>
        <pt x="260" y="366" on="0"/>
        <pt x="311" y="532" on="0"/>
        <pt x="311" y="555" on="1"/>
        <pt x="311" y="616" on="0"/>
        <pt x="250" y="616" on="1"/>
        <pt x="183" y="616" on="0"/>
        <pt x="74" y="514" on="0"/>
        <pt x="74" y="436" on="1"/>
        <pt x="74" y="414" on="0"/>
        <pt x="102" y="388" on="0"/>
        <pt x="121" y="388" on="1"/>
        <pt x="141" y="388" on="0"/>
        <pt x="163" y="402" on="1"/>
        <pt x="150" y="418" on="0"/>
        <pt x="150" y="439" on="1"/>
        <pt x="150" y="456" on="0"/>
        <pt x="168" y="475" on="0"/>
        <pt x="182" y="475" on="1"/>
        <pt x="197" y="475" on="0"/>
        <pt x="220" y="454" on="0"/>
        <pt x="220" y="434" on="1"/>
        <pt x="220" y="399" on="0"/>
        <pt x="152" y="350" on="0"/>
        <pt x="117" y="350" on="1"/>
        <pt x="74" y="350" on="0"/>
        <pt x="29" y="404" on="0"/>
        <pt x="29" y="444" on="1"/>
        <pt x="29" y="528" on="0"/>
        <pt x="155" y="659" on="0"/>
        <pt x="247" y="659" on="1"/>
        <pt x="296" y="659" on="0"/>
        <pt x="365" y="614" on="0"/>
        <pt x="365" y="566" on="1"/>
        <pt x="365" y="534" on="0"/>
        <pt x="313" y="375" on="0"/>
        <pt x="313" y="338" on="1"/>
        <pt x="313" y="273" on="0"/>
        <pt x="373" y="273" on="1"/>
        <pt x="410" y="273" on="0"/>
        <pt x="503" y="320" on="0"/>
        <pt x="530" y="349" on="1"/>
        <pt x="536" y="372" on="0"/>
        <pt x="566" y="481" on="0"/>
        <pt x="581" y="534" on="0"/>
        <pt x="604" y="602" on="0"/>
        <pt x="614" y="622" on="1"/>
        <pt x="621" y="636" on="0"/>
        <pt x="638" y="636" on="1"/>
        <pt x="649" y="636" on="0"/>
        <pt x="665" y="623" on="0"/>
        <pt x="665" y="613" on="1"/>
        <pt x="665" y="610" on="0"/>
        <pt x="660" y="597" on="1"/>
        <pt x="638" y="549" on="0"/>
        <pt x="593" y="401" on="0"/>
        <pt x="561" y="274" on="0"/>
        <pt x="512" y="138" on="0"/>
        <pt x="459" y="43" on="0"/>
        <pt x="375" y="-19" on="0"/>
        <pt x="322" y="-19" on="1"/>
        <pt x="262" y="-19" on="0"/>
        <pt x="199" y="37" on="0"/>
        <pt x="199" y="85" on="1"/>
        <pt x="199" y="115" on="0"/>
        <pt x="227" y="157" on="0"/>
        <pt x="256" y="157" on="1"/>
        <pt x="274" y="157" on="0"/>
        <pt x="297" y="134" on="0"/>
        <pt x="297" y="112" on="1"/>
        <pt x="297" y="93" on="0"/>
        <pt x="267" y="66" on="0"/>
        <pt x="244" y="66" on="1"/>
        <pt x="254" y="22" on="0"/>
      </contour>
    </TTGlyph>
    <TTGlyph name="Yacute" xMin="29" yMin="-19" xMax="665" yMax="817">
      <component glyphName="Y" x="0" y="0" flags="0x204"/>
      <component glyphName="acute.case" x="417" y="0" flags="0x4"/>
    </TTGlyph>
    <TTGlyph name="Z" xMin="27" yMin="-66" xMax="668" yMax="635">
      <contour>
        <pt x="470" y="130" on="1"/>
        <pt x="470" y="151" on="0"/>
        <pt x="495" y="180" on="0"/>
        <pt x="514" y="180" on="1"/>
        <pt x="533" y="180" on="0"/>
        <pt x="559" y="151" on="0"/>
        <pt x="559" y="130" on="1"/>
        <pt x="559" y="100" on="0"/>
        <pt x="509" y="62" on="0"/>
        <pt x="476" y="62" on="1"/>
        <pt x="441" y="62" on="0"/>
        <pt x="404" y="108" on="0"/>
        <pt x="404" y="142" on="1"/>
        <pt x="404" y="170" on="0"/>
        <pt x="424" y="214" on="0"/>
        <pt x="458" y="246" on="0"/>
        <pt x="502" y="263" on="0"/>
        <pt x="526" y="263" on="1"/>
        <pt x="553" y="263" on="0"/>
        <pt x="605" y="242" on="0"/>
        <pt x="644" y="202" on="0"/>
        <pt x="668" y="146" on="0"/>
        <pt x="668" y="110" on="1"/>
        <pt x="668" y="72" on="0"/>
        <pt x="636" y="8" on="0"/>
        <pt x="582" y="-39" on="0"/>
        <pt x="512" y="-66" on="0"/>
        <pt x="475" y="-66" on="1"/>
        <pt x="451" y="-66" on="0"/>
        <pt x="410" y="-58" on="0"/>
        <pt x="373" y="-39" on="0"/>
        <pt x="335" y="-9" on="0"/>
        <pt x="313" y="13" on="1"/>
        <pt x="269" y="56" on="0"/>
        <pt x="259" y="64" on="1"/>
        <pt x="191" y="-16" on="0"/>
        <pt x="100" y="-16" on="1"/>
        <pt x="64" y="-16" on="0"/>
        <pt x="27" y="15" on="0"/>
        <pt x="27" y="39" on="1"/>
        <pt x="27" y="62" on="0"/>
        <pt x="49" y="102" on="0"/>
        <pt x="85" y="132" on="0"/>
        <pt x="132" y="149" on="0"/>
        <pt x="158" y="149" on="1"/>
        <pt x="205" y="149" on="0"/>
        <pt x="248" y="129" on="1"/>
        <pt x="256" y="143" on="0"/>
        <pt x="282" y="203" on="0"/>
        <pt x="311" y="276" on="0"/>
        <pt x="341" y="356" on="0"/>
        <pt x="367" y="425" on="0"/>
        <pt x="385" y="474" on="0"/>
        <pt x="388" y="481" on="1"/>
        <pt x="365" y="491" on="0"/>
        <pt x="324" y="517" on="0"/>
        <pt x="285" y="540" on="0"/>
        <pt x="247" y="555" on="0"/>
        <pt x="226" y="555" on="1"/>
        <pt x="188" y="555" on="0"/>
        <pt x="144" y="518" on="0"/>
        <pt x="140" y="492" on="1"/>
        <pt x="176" y="475" on="0"/>
        <pt x="176" y="442" on="1"/>
        <pt x="176" y="426" on="0"/>
        <pt x="158" y="410" on="0"/>
        <pt x="144" y="410" on="1"/>
        <pt x="119" y="410" on="0"/>
        <pt x="94" y="454" on="0"/>
        <pt x="94" y="482" on="1"/>
        <pt x="94" y="506" on="0"/>
        <pt x="118" y="550" on="0"/>
        <pt x="157" y="584" on="0"/>
        <pt x="206" y="605" on="0"/>
        <pt x="231" y="605" on="1"/>
        <pt x="248" y="605" on="0"/>
        <pt x="300" y="582" on="0"/>
        <pt x="353" y="552" on="0"/>
        <pt x="398" y="526" on="0"/>
        <pt x="408" y="523" on="1"/>
        <pt x="466" y="635" on="0"/>
        <pt x="549" y="635" on="1"/>
        <pt x="578" y="635" on="0"/>
        <pt x="620" y="591" on="0"/>
        <pt x="620" y="561" on="1"/>
        <pt x="618" y="539" on="0"/>
        <pt x="588" y="504" on="0"/>
        <pt x="542" y="480" on="0"/>
        <pt x="485" y="467" on="0"/>
        <pt x="455" y="467" on="1"/>
        <pt x="439" y="467" on="1"/>
        <pt x="439" y="468" on="0"/>
        <pt x="423" y="424" on="0"/>
        <pt x="396" y="354" on="0"/>
        <pt x="363" y="268" on="0"/>
        <pt x="329" y="187" on="0"/>
        <pt x="298" y="120" on="0"/>
        <pt x="288" y="104" on="1"/>
        <pt x="297" y="97" on="0"/>
        <pt x="323" y="72" on="0"/>
        <pt x="341" y="53" on="1"/>
        <pt x="376" y="16" on="0"/>
        <pt x="436" y="-19" on="0"/>
        <pt x="472" y="-19" on="1"/>
        <pt x="505" y="-19" on="0"/>
        <pt x="560" y="1" on="0"/>
        <pt x="601" y="39" on="0"/>
        <pt x="624" y="91" on="0"/>
        <pt x="624" y="124" on="1"/>
        <pt x="624" y="172" on="0"/>
        <pt x="571" y="221" on="0"/>
        <pt x="533" y="221" on="1"/>
        <pt x="496" y="221" on="0"/>
        <pt x="442" y="175" on="0"/>
        <pt x="442" y="133" on="1"/>
        <pt x="442" y="105" on="0"/>
        <pt x="466" y="105" on="1"/>
        <pt x="473" y="105" on="0"/>
        <pt x="475" y="106" on="1"/>
        <pt x="470" y="116" on="0"/>
      </contour>
      <contour>
        <pt x="103" y="29" on="1"/>
        <pt x="170" y="29" on="0"/>
        <pt x="220" y="89" on="1"/>
        <pt x="190" y="103" on="0"/>
        <pt x="157" y="103" on="1"/>
        <pt x="125" y="103" on="0"/>
        <pt x="75" y="75" on="0"/>
        <pt x="75" y="47" on="1"/>
        <pt x="75" y="40" on="0"/>
        <pt x="92" y="29" on="0"/>
      </contour>
      <contour>
        <pt x="556" y="590" on="1"/>
        <pt x="506" y="590" on="0"/>
        <pt x="463" y="517" on="1"/>
        <pt x="568" y="518" on="0"/>
        <pt x="579" y="573" on="1"/>
        <pt x="579" y="590" on="0"/>
      </contour>
      <contour>
        <pt x="617" y="561" on="1"/>
        <pt x="614" y="561" on="0"/>
        <pt x="613" y="562" on="1"/>
        <pt x="614" y="561" on="0"/>
      </contour>
    </TTGlyph>
    <TTGlyph name="a" xMin="36" yMin="-12" xMax="626" yMax="494">
      <contour>
        <pt x="230" y="193" on="1"/>
        <pt x="219" y="167" on="0"/>
        <pt x="196" y="167" on="1"/>
        <pt x="184" y="167" on="0"/>
        <pt x="167" y="182" on="0"/>
        <pt x="167" y="193" on="1"/>
        <pt x="167" y="205" on="0"/>
        <pt x="180" y="217" on="1"/>
        <pt x="154" y="228" on="0"/>
        <pt x="154" y="246" on="1"/>
        <pt x="154" y="257" on="0"/>
        <pt x="173" y="273" on="0"/>
        <pt x="189" y="273" on="1"/>
        <pt x="196" y="273" on="0"/>
        <pt x="200" y="272" on="1"/>
        <pt x="202" y="291" on="0"/>
        <pt x="220" y="313" on="0"/>
        <pt x="230" y="313" on="1"/>
        <pt x="241" y="313" on="0"/>
        <pt x="259" y="291" on="0"/>
        <pt x="260" y="272" on="1"/>
        <pt x="263" y="273" on="0"/>
        <pt x="272" y="273" on="1"/>
        <pt x="307" y="273" on="0"/>
        <pt x="307" y="249" on="1"/>
        <pt x="307" y="228" on="0"/>
        <pt x="281" y="217" on="1"/>
        <pt x="294" y="205" on="0"/>
        <pt x="294" y="193" on="1"/>
        <pt x="294" y="182" on="0"/>
        <pt x="277" y="167" on="0"/>
        <pt x="265" y="167" on="1"/>
        <pt x="241" y="167" on="0"/>
      </contour>
      <contour>
        <pt x="229" y="210" on="1"/>
        <pt x="233" y="203" on="0"/>
        <pt x="259" y="187" on="0"/>
        <pt x="265" y="187" on="1"/>
        <pt x="274" y="187" on="0"/>
        <pt x="274" y="193" on="1"/>
        <pt x="274" y="210" on="0"/>
        <pt x="249" y="226" on="1"/>
        <pt x="287" y="241" on="0"/>
        <pt x="287" y="246" on="1"/>
        <pt x="287" y="253" on="0"/>
        <pt x="272" y="253" on="1"/>
        <pt x="241" y="252" on="1"/>
        <pt x="238" y="293" on="0"/>
        <pt x="230" y="293" on="1"/>
        <pt x="223" y="293" on="0"/>
        <pt x="218" y="252" on="1"/>
        <pt x="213" y="252" on="0"/>
        <pt x="203" y="253" on="0"/>
        <pt x="199" y="253" on="1"/>
        <pt x="174" y="253" on="0"/>
        <pt x="174" y="246" on="1"/>
        <pt x="174" y="241" on="0"/>
        <pt x="212" y="226" on="1"/>
        <pt x="187" y="204" on="0"/>
        <pt x="187" y="193" on="1"/>
        <pt x="187" y="187" on="0"/>
        <pt x="196" y="187" on="1"/>
        <pt x="206" y="187" on="0"/>
        <pt x="226" y="202" on="0"/>
      </contour>
      <contour>
        <pt x="209" y="-11" on="1"/>
        <pt x="126" y="-11" on="0"/>
        <pt x="36" y="105" on="0"/>
        <pt x="36" y="199" on="1"/>
        <pt x="36" y="242" on="0"/>
        <pt x="60" y="338" on="0"/>
        <pt x="108" y="433" on="0"/>
        <pt x="196" y="494" on="0"/>
        <pt x="253" y="494" on="1"/>
        <pt x="336" y="494" on="0"/>
        <pt x="426" y="378" on="0"/>
        <pt x="426" y="284" on="1"/>
        <pt x="426" y="238" on="0"/>
        <pt x="411" y="185" on="1"/>
        <pt x="406" y="151" on="0"/>
        <pt x="403" y="82" on="0"/>
        <pt x="444" y="30" on="0"/>
        <pt x="486" y="30" on="1"/>
        <pt x="529" y="30" on="0"/>
        <pt x="580" y="86" on="0"/>
        <pt x="580" y="123" on="1"/>
        <pt x="580" y="146" on="0"/>
        <pt x="553" y="174" on="0"/>
        <pt x="535" y="174" on="1"/>
        <pt x="506" y="174" on="0"/>
        <pt x="494" y="144" on="1"/>
        <pt x="511" y="144" on="0"/>
        <pt x="534" y="120" on="0"/>
        <pt x="534" y="103" on="1"/>
        <pt x="534" y="83" on="0"/>
        <pt x="512" y="61" on="0"/>
        <pt x="497" y="61" on="1"/>
        <pt x="477" y="61" on="0"/>
        <pt x="449" y="91" on="0"/>
        <pt x="449" y="119" on="1"/>
        <pt x="449" y="154" on="0"/>
        <pt x="495" y="211" on="0"/>
        <pt x="533" y="211" on="1"/>
        <pt x="573" y="211" on="0"/>
        <pt x="626" y="161" on="0"/>
        <pt x="626" y="116" on="1"/>
        <pt x="626" y="60" on="0"/>
        <pt x="540" y="-12" on="0"/>
        <pt x="482" y="-12" on="1"/>
        <pt x="383" y="-12" on="0"/>
        <pt x="363" y="74" on="1"/>
        <pt x="304" y="-11" on="0"/>
      </contour>
      <contour>
        <pt x="209" y="36" on="1"/>
        <pt x="284" y="36" on="0"/>
        <pt x="377" y="187" on="0"/>
        <pt x="377" y="276" on="1"/>
        <pt x="377" y="306" on="0"/>
        <pt x="365" y="363" on="0"/>
        <pt x="338" y="415" on="0"/>
        <pt x="288" y="447" on="0"/>
        <pt x="254" y="447" on="1"/>
        <pt x="178" y="447" on="0"/>
        <pt x="84" y="296" on="0"/>
        <pt x="84" y="207" on="1"/>
        <pt x="84" y="139" on="0"/>
        <pt x="144" y="36" on="0"/>
      </contour>
    </TTGlyph>
    <TTGlyph name="aacute" xMin="36" yMin="-12" xMax="626" yMax="679">
      <component glyphName="a" x="0" y="0" flags="0x204"/>
      <component glyphName="acute" x="216" y="0" flags="0x4"/>
    </TTGlyph>
    <TTGlyph name="acircumflex" xMin="36" yMin="-12" xMax="626" yMax="677">
      <component glyphName="a" x="0" y="0" flags="0x204"/>
      <component glyphName="circumflex" x="110" y="0" flags="0x4"/>
    </TTGlyph>
    <TTGlyph name="acute" xMin="27" yMin="529" xMax="128" yMax="679">
      <contour>
        <pt x="96" y="679" on="1"/>
        <pt x="128" y="679" on="0"/>
        <pt x="128" y="650" on="1"/>
        <pt x="122" y="620" on="0"/>
        <pt x="56" y="529" on="0"/>
        <pt x="45" y="529" on="1"/>
        <pt x="39" y="529" on="0"/>
        <pt x="27" y="537" on="0"/>
        <pt x="27" y="544" on="1"/>
        <pt x="27" y="572" on="0"/>
        <pt x="77" y="679" on="0"/>
      </contour>
    </TTGlyph>
    <TTGlyph name="acute.case" xMin="28" yMin="667" xMax="137" yMax="817">
      <contour>
        <pt x="97" y="817" on="1"/>
        <pt x="112" y="817" on="0"/>
        <pt x="137" y="795" on="0"/>
        <pt x="137" y="781" on="1"/>
        <pt x="134" y="764" on="0"/>
        <pt x="108" y="725" on="0"/>
        <pt x="78" y="690" on="0"/>
        <pt x="51" y="667" on="0"/>
        <pt x="46" y="667" on="1"/>
        <pt x="41" y="667" on="0"/>
        <pt x="28" y="674" on="0"/>
        <pt x="28" y="682" on="1"/>
        <pt x="28" y="694" on="0"/>
        <pt x="42" y="740" on="0"/>
        <pt x="63" y="784" on="0"/>
        <pt x="87" y="817" on="0"/>
      </contour>
    </TTGlyph>
    <TTGlyph name="adieresis" xMin="36" yMin="-12" xMax="626" yMax="615">
      <component glyphName="a" x="0" y="0" flags="0x204"/>
      <component glyphName="dieresis" x="105" y="0" flags="0x4"/>
    </TTGlyph>
    <TTGlyph name="ae" xMin="36" yMin="-14" xMax="655" yMax="485">
      <contour>
        <pt x="393" y="241" on="1"/>
        <pt x="381" y="199" on="0"/>
        <pt x="381" y="141" on="1"/>
        <pt x="381" y="87" on="0"/>
        <pt x="433" y="29" on="0"/>
        <pt x="471" y="29" on="1"/>
        <pt x="499" y="29" on="0"/>
        <pt x="548" y="70" on="0"/>
        <pt x="590" y="110" on="0"/>
        <pt x="606" y="110" on="1"/>
        <pt x="624" y="110" on="0"/>
        <pt x="624" y="86" on="1"/>
        <pt x="624" y="41" on="0"/>
        <pt x="532" y="-14" on="0"/>
        <pt x="476" y="-14" on="1"/>
        <pt x="410" y="-14" on="0"/>
        <pt x="332" y="86" on="0"/>
        <pt x="332" y="142" on="1"/>
        <pt x="303" y="69" on="0"/>
        <pt x="199" y="-12" on="0"/>
        <pt x="147" y="-12" on="1"/>
        <pt x="93" y="-12" on="0"/>
        <pt x="36" y="44" on="0"/>
        <pt x="36" y="86" on="1"/>
        <pt x="36" y="154" on="0"/>
        <pt x="164" y="250" on="0"/>
        <pt x="248" y="250" on="1"/>
        <pt x="282" y="250" on="0"/>
        <pt x="315" y="241" on="1"/>
        <pt x="322" y="281" on="0"/>
        <pt x="322" y="312" on="1"/>
        <pt x="322" y="363" on="0"/>
        <pt x="265" y="442" on="0"/>
        <pt x="205" y="442" on="1"/>
        <pt x="164" y="442" on="0"/>
        <pt x="113" y="389" on="0"/>
        <pt x="113" y="363" on="1"/>
        <pt x="113" y="345" on="0"/>
        <pt x="124" y="345" on="1"/>
        <pt x="133" y="345" on="0"/>
        <pt x="169" y="366" on="0"/>
        <pt x="178" y="366" on="1"/>
        <pt x="202" y="366" on="0"/>
        <pt x="202" y="347" on="1"/>
        <pt x="202" y="323" on="0"/>
        <pt x="168" y="297" on="0"/>
        <pt x="144" y="297" on="1"/>
        <pt x="109" y="297" on="0"/>
        <pt x="73" y="337" on="0"/>
        <pt x="73" y="368" on="1"/>
        <pt x="73" y="423" on="0"/>
        <pt x="144" y="484" on="0"/>
        <pt x="195" y="484" on="1"/>
        <pt x="265" y="484" on="0"/>
        <pt x="363" y="391" on="0"/>
        <pt x="363" y="322" on="1"/>
        <pt x="363" y="310" on="0"/>
        <pt x="362" y="305" on="1"/>
        <pt x="382" y="380" on="0"/>
        <pt x="485" y="485" on="0"/>
        <pt x="540" y="485" on="1"/>
        <pt x="599" y="485" on="0"/>
        <pt x="655" y="423" on="0"/>
        <pt x="655" y="375" on="1"/>
        <pt x="655" y="323" on="0"/>
        <pt x="605" y="260" on="0"/>
        <pt x="507" y="236" on="0"/>
      </contour>
      <contour>
        <pt x="300" y="205" on="1"/>
        <pt x="274" y="213" on="0"/>
        <pt x="253" y="213" on="1"/>
        <pt x="188" y="213" on="0"/>
        <pt x="85" y="132" on="0"/>
        <pt x="85" y="77" on="1"/>
        <pt x="85" y="31" on="0"/>
        <pt x="130" y="31" on="1"/>
        <pt x="200" y="31" on="0"/>
        <pt x="300" y="161" on="0"/>
      </contour>
      <contour>
        <pt x="398" y="279" on="1"/>
        <pt x="505" y="274" on="0"/>
        <pt x="581" y="308" on="0"/>
        <pt x="607" y="348" on="0"/>
        <pt x="607" y="377" on="1"/>
        <pt x="607" y="440" on="0"/>
        <pt x="546" y="440" on="1"/>
        <pt x="501" y="440" on="0"/>
        <pt x="405" y="336" on="0"/>
      </contour>
    </TTGlyph>
    <TTGlyph name="agrave" xMin="36" yMin="-12" xMax="626" yMax="679">
      <component glyphName="a" x="0" y="0" flags="0x204"/>
      <component glyphName="grave" x="167" y="0" flags="0x4"/>
    </TTGlyph>
    <TTGlyph name="ampersand" xMin="35" yMin="-10" xMax="1048" yMax="645">
      <contour>
        <pt x="589" y="583" on="1"/>
        <pt x="589" y="564" on="0"/>
        <pt x="572" y="533" on="0"/>
        <pt x="542" y="512" on="0"/>
        <pt x="502" y="501" on="0"/>
        <pt x="480" y="501" on="1"/>
        <pt x="440" y="501" on="0"/>
        <pt x="395" y="517" on="1"/>
        <pt x="391" y="502" on="0"/>
        <pt x="391" y="480" on="1"/>
        <pt x="391" y="451" on="0"/>
        <pt x="398" y="431" on="1"/>
        <pt x="441" y="448" on="0"/>
        <pt x="482" y="448" on="1"/>
        <pt x="520" y="448" on="0"/>
        <pt x="564" y="418" on="0"/>
        <pt x="564" y="387" on="1"/>
        <pt x="564" y="357" on="0"/>
        <pt x="516" y="324" on="0"/>
        <pt x="482" y="324" on="1"/>
        <pt x="418" y="324" on="0"/>
        <pt x="380" y="374" on="1"/>
        <pt x="310" y="316" on="0"/>
        <pt x="310" y="216" on="1"/>
        <pt x="310" y="177" on="0"/>
        <pt x="335" y="110" on="0"/>
        <pt x="386" y="62" on="0"/>
        <pt x="460" y="34" on="0"/>
        <pt x="510" y="34" on="1"/>
        <pt x="570" y="34" on="0"/>
        <pt x="653" y="89" on="0"/>
        <pt x="706" y="181" on="0"/>
        <pt x="731" y="298" on="0"/>
        <pt x="734" y="361" on="1"/>
        <pt x="696" y="377" on="0"/>
        <pt x="670" y="377" on="1"/>
        <pt x="654" y="377" on="0"/>
        <pt x="625" y="363" on="0"/>
        <pt x="625" y="348" on="1"/>
        <pt x="636" y="348" on="0"/>
        <pt x="661" y="322" on="0"/>
        <pt x="661" y="302" on="1"/>
        <pt x="661" y="282" on="0"/>
        <pt x="639" y="262" on="0"/>
        <pt x="623" y="262" on="1"/>
        <pt x="604" y="262" on="0"/>
        <pt x="574" y="292" on="0"/>
        <pt x="574" y="316" on="1"/>
        <pt x="574" y="337" on="0"/>
        <pt x="593" y="374" on="0"/>
        <pt x="624" y="402" on="0"/>
        <pt x="663" y="418" on="0"/>
        <pt x="684" y="418" on="1"/>
        <pt x="726" y="418" on="0"/>
        <pt x="789" y="379" on="1"/>
        <pt x="852" y="340" on="0"/>
        <pt x="904" y="340" on="1"/>
        <pt x="946" y="340" on="0"/>
        <pt x="1003" y="382" on="0"/>
        <pt x="1003" y="428" on="1"/>
        <pt x="1003" y="467" on="0"/>
        <pt x="964" y="522" on="0"/>
        <pt x="927" y="522" on="1"/>
        <pt x="898" y="522" on="0"/>
        <pt x="862" y="488" on="0"/>
        <pt x="862" y="461" on="1"/>
        <pt x="862" y="451" on="0"/>
        <pt x="863" y="448" on="1"/>
        <pt x="879" y="461" on="0"/>
        <pt x="905" y="461" on="1"/>
        <pt x="942" y="461" on="0"/>
        <pt x="942" y="426" on="1"/>
        <pt x="942" y="409" on="0"/>
        <pt x="918" y="383" on="0"/>
        <pt x="895" y="383" on="1"/>
        <pt x="867" y="383" on="0"/>
        <pt x="821" y="421" on="0"/>
        <pt x="821" y="457" on="1"/>
        <pt x="821" y="502" on="0"/>
        <pt x="882" y="558" on="0"/>
        <pt x="924" y="558" on="1"/>
        <pt x="949" y="558" on="0"/>
        <pt x="995" y="537" on="0"/>
        <pt x="1028" y="501" on="0"/>
        <pt x="1048" y="454" on="0"/>
        <pt x="1048" y="428" on="1"/>
        <pt x="1048" y="364" on="0"/>
        <pt x="970" y="294" on="0"/>
        <pt x="913" y="294" on="1"/>
        <pt x="864" y="294" on="0"/>
        <pt x="779" y="339" on="1"/>
        <pt x="771" y="343" on="1"/>
        <pt x="770" y="265" on="0"/>
        <pt x="737" y="135" on="0"/>
        <pt x="672" y="42" on="0"/>
        <pt x="574" y="-10" on="0"/>
        <pt x="508" y="-10" on="1"/>
        <pt x="449" y="-10" on="0"/>
        <pt x="356" y="24" on="0"/>
        <pt x="292" y="83" on="0"/>
        <pt x="258" y="163" on="0"/>
        <pt x="258" y="209" on="1"/>
        <pt x="258" y="269" on="0"/>
        <pt x="311" y="377" on="0"/>
        <pt x="359" y="410" on="1"/>
        <pt x="345" y="443" on="0"/>
        <pt x="345" y="480" on="1"/>
        <pt x="345" y="508" on="0"/>
        <pt x="353" y="534" on="1"/>
        <pt x="308" y="550" on="0"/>
        <pt x="269" y="550" on="1"/>
        <pt x="227" y="550" on="0"/>
        <pt x="159" y="531" on="0"/>
        <pt x="109" y="493" on="0"/>
        <pt x="82" y="436" on="0"/>
        <pt x="82" y="399" on="1"/>
        <pt x="82" y="373" on="0"/>
        <pt x="103" y="337" on="0"/>
        <pt x="124" y="337" on="1"/>
        <pt x="126" y="337" on="1"/>
        <pt x="115" y="351" on="0"/>
        <pt x="115" y="369" on="1"/>
        <pt x="115" y="390" on="0"/>
        <pt x="141" y="419" on="0"/>
        <pt x="160" y="419" on="1"/>
        <pt x="179" y="419" on="0"/>
        <pt x="205" y="390" on="0"/>
        <pt x="205" y="369" on="1"/>
        <pt x="205" y="339" on="0"/>
        <pt x="158" y="298" on="0"/>
        <pt x="127" y="298" on="1"/>
        <pt x="88" y="298" on="0"/>
        <pt x="35" y="352" on="0"/>
        <pt x="35" y="407" on="1"/>
        <pt x="35" y="447" on="0"/>
        <pt x="73" y="515" on="0"/>
        <pt x="137" y="564" on="0"/>
        <pt x="220" y="592" on="0"/>
        <pt x="266" y="592" on="1"/>
        <pt x="310" y="592" on="0"/>
        <pt x="370" y="570" on="1"/>
        <pt x="417" y="645" on="0"/>
        <pt x="501" y="645" on="1"/>
        <pt x="542" y="645" on="0"/>
        <pt x="589" y="609" on="0"/>
      </contour>
      <contour>
        <pt x="548" y="581" on="1"/>
        <pt x="548" y="610" on="0"/>
        <pt x="507" y="610" on="1"/>
        <pt x="444" y="610" on="0"/>
        <pt x="411" y="555" on="1"/>
        <pt x="452" y="542" on="0"/>
        <pt x="480" y="542" on="1"/>
        <pt x="548" y="542" on="0"/>
      </contour>
      <contour>
        <pt x="477" y="409" on="1"/>
        <pt x="445" y="409" on="0"/>
        <pt x="416" y="396" on="1"/>
        <pt x="439" y="366" on="0"/>
        <pt x="482" y="366" on="1"/>
        <pt x="495" y="366" on="0"/>
        <pt x="526" y="379" on="0"/>
        <pt x="526" y="389" on="1"/>
        <pt x="522" y="409" on="0"/>
      </contour>
    </TTGlyph>
    <TTGlyph name="ampersand.salt" xMin="75" yMin="-43" xMax="619" yMax="683">
      <contour>
        <pt x="306" y="390" on="1"/>
        <pt x="306" y="382" on="0"/>
        <pt x="308" y="371" on="1"/>
        <pt x="319" y="374" on="0"/>
        <pt x="343" y="379" on="0"/>
        <pt x="356" y="379" on="1"/>
        <pt x="402" y="379" on="0"/>
        <pt x="470" y="354" on="0"/>
        <pt x="515" y="312" on="0"/>
        <pt x="538" y="256" on="0"/>
        <pt x="538" y="225" on="1"/>
        <pt x="538" y="179" on="0"/>
        <pt x="493" y="91" on="0"/>
        <pt x="445" y="55" on="1"/>
        <pt x="462" y="29" on="0"/>
        <pt x="509" y="-6" on="0"/>
        <pt x="530" y="-6" on="1"/>
        <pt x="556" y="-6" on="0"/>
        <pt x="569" y="7" on="1"/>
        <pt x="554" y="10" on="0"/>
        <pt x="535" y="33" on="0"/>
        <pt x="535" y="50" on="1"/>
        <pt x="535" y="71" on="0"/>
        <pt x="560" y="92" on="0"/>
        <pt x="575" y="92" on="1"/>
        <pt x="592" y="92" on="0"/>
        <pt x="619" y="68" on="0"/>
        <pt x="619" y="44" on="1"/>
        <pt x="619" y="-1" on="0"/>
        <pt x="566" y="-43" on="0"/>
        <pt x="530" y="-43" on="1"/>
        <pt x="499" y="-43" on="0"/>
        <pt x="438" y="-9" on="0"/>
        <pt x="411" y="23" on="1"/>
        <pt x="372" y="0" on="0"/>
        <pt x="312" y="-12" on="0"/>
        <pt x="280" y="-12" on="1"/>
        <pt x="227" y="-12" on="0"/>
        <pt x="150" y="20" on="0"/>
        <pt x="100" y="73" on="0"/>
        <pt x="75" y="142" on="0"/>
        <pt x="75" y="179" on="1"/>
        <pt x="75" y="216" on="0"/>
        <pt x="99" y="292" on="0"/>
        <pt x="147" y="357" on="0"/>
        <pt x="217" y="406" on="0"/>
        <pt x="260" y="417" on="1"/>
        <pt x="258" y="467" on="0"/>
        <pt x="278" y="547" on="0"/>
        <pt x="329" y="628" on="0"/>
        <pt x="405" y="683" on="0"/>
        <pt x="450" y="683" on="1"/>
        <pt x="483" y="683" on="0"/>
        <pt x="510" y="636" on="0"/>
        <pt x="510" y="607" on="1"/>
        <pt x="510" y="575" on="0"/>
        <pt x="477" y="508" on="0"/>
        <pt x="422" y="448" on="0"/>
        <pt x="348" y="401" on="0"/>
      </contour>
      <contour>
        <pt x="266" y="351" on="1"/>
        <pt x="265" y="357" on="0"/>
        <pt x="263" y="375" on="1"/>
        <pt x="233" y="364" on="0"/>
        <pt x="182" y="322" on="0"/>
        <pt x="147" y="268" on="0"/>
        <pt x="128" y="206" on="0"/>
        <pt x="128" y="175" on="1"/>
        <pt x="128" y="146" on="0"/>
        <pt x="146" y="93" on="0"/>
        <pt x="183" y="52" on="0"/>
        <pt x="241" y="28" on="0"/>
        <pt x="281" y="28" on="1"/>
        <pt x="307" y="28" on="0"/>
        <pt x="360" y="45" on="0"/>
        <pt x="385" y="60" on="1"/>
        <pt x="368" y="84" on="0"/>
        <pt x="353" y="110" on="1"/>
        <pt x="342" y="104" on="0"/>
        <pt x="318" y="99" on="0"/>
        <pt x="308" y="99" on="1"/>
        <pt x="282" y="99" on="0"/>
        <pt x="242" y="120" on="0"/>
        <pt x="215" y="155" on="0"/>
        <pt x="200" y="201" on="0"/>
        <pt x="200" y="226" on="1"/>
        <pt x="200" y="263" on="0"/>
        <pt x="235" y="329" on="0"/>
      </contour>
      <contour>
        <pt x="314" y="328" on="1"/>
        <pt x="320" y="299" on="0"/>
        <pt x="341" y="237" on="0"/>
        <pt x="369" y="174" on="0"/>
        <pt x="403" y="113" on="0"/>
        <pt x="421" y="86" on="1"/>
        <pt x="453" y="113" on="0"/>
        <pt x="492" y="184" on="0"/>
        <pt x="492" y="224" on="1"/>
        <pt x="492" y="246" on="0"/>
        <pt x="476" y="287" on="0"/>
        <pt x="444" y="318" on="0"/>
        <pt x="395" y="337" on="0"/>
        <pt x="363" y="337" on="1"/>
        <pt x="336" y="337" on="0"/>
      </contour>
      <contour>
        <pt x="304" y="432" on="1"/>
        <pt x="337" y="444" on="0"/>
        <pt x="394" y="483" on="0"/>
        <pt x="435" y="532" on="0"/>
        <pt x="459" y="585" on="0"/>
        <pt x="459" y="606" on="1"/>
        <pt x="459" y="638" on="0"/>
        <pt x="435" y="638" on="1"/>
        <pt x="420" y="638" on="0"/>
        <pt x="379" y="613" on="0"/>
        <pt x="340" y="562" on="0"/>
        <pt x="309" y="487" on="0"/>
      </contour>
      <contour>
        <pt x="333" y="146" on="1"/>
        <pt x="313" y="184" on="0"/>
        <pt x="283" y="266" on="0"/>
        <pt x="274" y="304" on="1"/>
        <pt x="242" y="274" on="0"/>
        <pt x="242" y="228" on="1"/>
        <pt x="242" y="193" on="0"/>
        <pt x="278" y="143" on="0"/>
        <pt x="310" y="143" on="1"/>
        <pt x="321" y="143" on="0"/>
      </contour>
    </TTGlyph>
    <TTGlyph name="aring" xMin="36" yMin="-12" xMax="626" yMax="698">
      <component glyphName="a" x="0" y="0" flags="0x204"/>
      <component glyphName="ring" x="139" y="0" flags="0x4"/>
    </TTGlyph>
    <TTGlyph name="asciicircum" xMin="30" yMin="475" xMax="425" yMax="775">
      <contour>
        <pt x="371" y="492" on="1"/>
        <pt x="223" y="691" on="1"/>
        <pt x="83" y="486" on="1"/>
        <pt x="77" y="476" on="0"/>
        <pt x="67" y="475" on="0"/>
        <pt x="53" y="481" on="1"/>
        <pt x="30" y="489" on="0"/>
        <pt x="39" y="503" on="1"/>
        <pt x="196" y="742" on="1"/>
        <pt x="219" y="775" on="0"/>
        <pt x="244" y="744" on="1"/>
        <pt x="415" y="511" on="1"/>
        <pt x="425" y="497" on="0"/>
        <pt x="401" y="488" on="1"/>
        <pt x="387" y="482" on="0"/>
        <pt x="378" y="483" on="0"/>
      </contour>
    </TTGlyph>
    <TTGlyph name="asciitilde" xMin="45" yMin="414" xMax="554" yMax="562">
      <contour>
        <pt x="455" y="414" on="1"/>
        <pt x="398" y="414" on="0"/>
        <pt x="181" y="522" on="0"/>
        <pt x="138" y="523" on="1"/>
        <pt x="122" y="523" on="0"/>
        <pt x="105" y="512" on="1"/>
        <pt x="112" y="496" on="0"/>
        <pt x="112" y="479" on="1"/>
        <pt x="112" y="442" on="0"/>
        <pt x="80" y="442" on="1"/>
        <pt x="65" y="442" on="0"/>
        <pt x="45" y="465" on="0"/>
        <pt x="45" y="483" on="1"/>
        <pt x="45" y="562" on="0"/>
        <pt x="144" y="562" on="1"/>
        <pt x="201" y="562" on="0"/>
        <pt x="418" y="454" on="0"/>
        <pt x="461" y="453" on="1"/>
        <pt x="478" y="453" on="0"/>
        <pt x="494" y="464" on="1"/>
        <pt x="487" y="480" on="0"/>
        <pt x="487" y="497" on="1"/>
        <pt x="487" y="534" on="0"/>
        <pt x="519" y="534" on="1"/>
        <pt x="534" y="534" on="0"/>
        <pt x="554" y="511" on="0"/>
        <pt x="554" y="493" on="1"/>
        <pt x="554" y="414" on="0"/>
      </contour>
    </TTGlyph>
    <TTGlyph name="asterisk" xMin="25" yMin="484" xMax="281" yMax="751">
      <contour>
        <pt x="132" y="643" on="1"/>
        <pt x="134" y="649" on="0"/>
        <pt x="149" y="705" on="0"/>
        <pt x="164" y="750" on="0"/>
        <pt x="168" y="750" on="1"/>
        <pt x="172" y="751" on="0"/>
        <pt x="203" y="734" on="0"/>
        <pt x="204" y="728" on="1"/>
        <pt x="205" y="717" on="0"/>
        <pt x="191" y="680" on="0"/>
        <pt x="170" y="640" on="0"/>
        <pt x="169" y="636" on="1"/>
        <pt x="174" y="637" on="0"/>
        <pt x="221" y="648" on="0"/>
        <pt x="251" y="653" on="0"/>
        <pt x="268" y="650" on="1"/>
        <pt x="273" y="648" on="0"/>
        <pt x="281" y="614" on="0"/>
        <pt x="280" y="610" on="1"/>
        <pt x="278" y="605" on="0"/>
        <pt x="230" y="602" on="0"/>
        <pt x="183" y="604" on="0"/>
        <pt x="171" y="603" on="1"/>
        <pt x="173" y="595" on="0"/>
        <pt x="217" y="520" on="0"/>
        <pt x="217" y="508" on="1"/>
        <pt x="215" y="501" on="0"/>
        <pt x="192" y="484" on="0"/>
        <pt x="183" y="484" on="1"/>
        <pt x="176" y="484" on="0"/>
        <pt x="157" y="526" on="0"/>
        <pt x="138" y="580" on="0"/>
        <pt x="135" y="585" on="1"/>
        <pt x="134" y="584" on="0"/>
        <pt x="91" y="538" on="0"/>
        <pt x="58" y="507" on="0"/>
        <pt x="53" y="507" on="1"/>
        <pt x="49" y="507" on="0"/>
        <pt x="27" y="532" on="0"/>
        <pt x="27" y="539" on="1"/>
        <pt x="27" y="548" on="0"/>
        <pt x="61" y="579" on="0"/>
        <pt x="102" y="610" on="0"/>
        <pt x="106" y="614" on="1"/>
        <pt x="101" y="617" on="0"/>
        <pt x="57" y="634" on="0"/>
        <pt x="25" y="649" on="0"/>
        <pt x="25" y="659" on="0"/>
        <pt x="46" y="687" on="0"/>
        <pt x="51" y="687" on="1"/>
        <pt x="62" y="687" on="0"/>
        <pt x="94" y="669" on="0"/>
        <pt x="127" y="645" on="0"/>
      </contour>
    </TTGlyph>
    <TTGlyph name="at" xMin="35" yMin="-74" xMax="698" yMax="699">
      <contour>
        <pt x="533" y="472" on="1"/>
        <pt x="499" y="296" on="1"/>
        <pt x="499" y="277" on="0"/>
        <pt x="527" y="252" on="0"/>
        <pt x="546" y="252" on="1"/>
        <pt x="587" y="252" on="0"/>
        <pt x="651" y="347" on="0"/>
        <pt x="651" y="423" on="1"/>
        <pt x="651" y="522" on="0"/>
        <pt x="522" y="654" on="0"/>
        <pt x="426" y="654" on="1"/>
        <pt x="347" y="654" on="0"/>
        <pt x="222" y="592" on="0"/>
        <pt x="150" y="504" on="0"/>
        <pt x="102" y="396" on="0"/>
        <pt x="86" y="313" on="0"/>
        <pt x="86" y="283" on="1"/>
        <pt x="86" y="142" on="0"/>
        <pt x="240" y="-32" on="0"/>
        <pt x="353" y="-32" on="1"/>
        <pt x="412" y="-32" on="0"/>
        <pt x="483" y="20" on="0"/>
        <pt x="483" y="68" on="1"/>
        <pt x="483" y="98" on="0"/>
        <pt x="443" y="140" on="0"/>
        <pt x="407" y="140" on="1"/>
        <pt x="384" y="140" on="0"/>
        <pt x="352" y="116" on="0"/>
        <pt x="352" y="94" on="1"/>
        <pt x="352" y="78" on="0"/>
        <pt x="363" y="74" on="1"/>
        <pt x="365" y="88" on="0"/>
        <pt x="384" y="105" on="0"/>
        <pt x="397" y="105" on="1"/>
        <pt x="411" y="105" on="0"/>
        <pt x="432" y="84" on="0"/>
        <pt x="432" y="69" on="1"/>
        <pt x="432" y="32" on="0"/>
        <pt x="380" y="32" on="1"/>
        <pt x="349" y="32" on="0"/>
        <pt x="314" y="69" on="0"/>
        <pt x="314" y="96" on="1"/>
        <pt x="314" y="129" on="0"/>
        <pt x="363" y="182" on="0"/>
        <pt x="403" y="182" on="1"/>
        <pt x="461" y="182" on="0"/>
        <pt x="528" y="110" on="0"/>
        <pt x="528" y="61" on="1"/>
        <pt x="528" y="2" on="0"/>
        <pt x="435" y="-74" on="0"/>
        <pt x="356" y="-74" on="1"/>
        <pt x="212" y="-74" on="0"/>
        <pt x="35" y="137" on="0"/>
        <pt x="35" y="279" on="1"/>
        <pt x="35" y="359" on="0"/>
        <pt x="87" y="509" on="0"/>
        <pt x="181" y="627" on="0"/>
        <pt x="324" y="699" on="0"/>
        <pt x="409" y="699" on="1"/>
        <pt x="534" y="699" on="0"/>
        <pt x="698" y="540" on="0"/>
        <pt x="698" y="419" on="1"/>
        <pt x="698" y="343" on="0"/>
        <pt x="614" y="212" on="0"/>
        <pt x="546" y="212" on="1"/>
        <pt x="481" y="212" on="0"/>
        <pt x="461" y="273" on="1"/>
        <pt x="437" y="242" on="0"/>
        <pt x="365" y="206" on="0"/>
        <pt x="332" y="206" on="1"/>
        <pt x="277" y="206" on="0"/>
        <pt x="221" y="270" on="0"/>
        <pt x="221" y="319" on="1"/>
        <pt x="221" y="393" on="0"/>
        <pt x="319" y="503" on="0"/>
        <pt x="385" y="503" on="1"/>
        <pt x="435" y="503" on="0"/>
        <pt x="481" y="467" on="1"/>
        <pt x="483" y="479" on="1"/>
        <pt x="484" y="487" on="0"/>
        <pt x="493" y="491" on="0"/>
        <pt x="505" y="491" on="1"/>
        <pt x="513" y="491" on="0"/>
        <pt x="523" y="490" on="0"/>
        <pt x="535" y="481" on="0"/>
      </contour>
      <contour>
        <pt x="452" y="323" on="1"/>
        <pt x="471" y="430" on="1"/>
        <pt x="436" y="461" on="0"/>
        <pt x="395" y="461" on="1"/>
        <pt x="346" y="461" on="0"/>
        <pt x="272" y="379" on="0"/>
        <pt x="272" y="323" on="1"/>
        <pt x="272" y="293" on="0"/>
        <pt x="306" y="250" on="0"/>
        <pt x="341" y="250" on="1"/>
        <pt x="363" y="250" on="0"/>
        <pt x="430" y="294" on="0"/>
      </contour>
    </TTGlyph>
    <TTGlyph name="atilde" xMin="36" yMin="-12" xMax="626" yMax="618">
      <component glyphName="a" x="0" y="0" flags="0x204"/>
      <component glyphName="tilde" x="106" y="0" flags="0x4"/>
    </TTGlyph>
    <TTGlyph name="b" xMin="34" yMin="-11" xMax="495" yMax="753">
      <contour>
        <pt x="34" y="662" on="1"/>
        <pt x="34" y="707" on="0"/>
        <pt x="88" y="753" on="0"/>
        <pt x="123" y="753" on="1"/>
        <pt x="156" y="753" on="0"/>
        <pt x="211" y="706" on="0"/>
        <pt x="211" y="659" on="1"/>
        <pt x="211" y="637" on="0"/>
        <pt x="206" y="596" on="0"/>
        <pt x="195" y="549" on="0"/>
        <pt x="180" y="495" on="0"/>
        <pt x="170" y="461" on="1"/>
        <pt x="160" y="429" on="0"/>
        <pt x="144" y="369" on="0"/>
        <pt x="138" y="341" on="1"/>
        <pt x="167" y="416" on="0"/>
        <pt x="273" y="494" on="0"/>
        <pt x="336" y="494" on="1"/>
        <pt x="372" y="494" on="0"/>
        <pt x="431" y="463" on="0"/>
        <pt x="473" y="411" on="0"/>
        <pt x="495" y="340" on="0"/>
        <pt x="495" y="300" on="1"/>
        <pt x="495" y="245" on="0"/>
        <pt x="458" y="134" on="0"/>
        <pt x="390" y="45" on="0"/>
        <pt x="293" y="-11" on="0"/>
        <pt x="233" y="-11" on="1"/>
        <pt x="161" y="-11" on="0"/>
        <pt x="72" y="95" on="0"/>
        <pt x="72" y="198" on="1"/>
        <pt x="72" y="290" on="0"/>
        <pt x="117" y="446" on="1"/>
        <pt x="162" y="602" on="0"/>
        <pt x="162" y="655" on="1"/>
        <pt x="162" y="678" on="0"/>
        <pt x="142" y="709" on="0"/>
        <pt x="126" y="709" on="1"/>
        <pt x="112" y="709" on="0"/>
        <pt x="96" y="695" on="1"/>
        <pt x="109" y="682" on="0"/>
        <pt x="109" y="662" on="1"/>
        <pt x="109" y="644" on="0"/>
        <pt x="87" y="619" on="0"/>
        <pt x="71" y="619" on="1"/>
        <pt x="55" y="619" on="0"/>
        <pt x="34" y="644" on="0"/>
      </contour>
      <contour>
        <pt x="260" y="173" on="1"/>
        <pt x="237" y="193" on="0"/>
        <pt x="237" y="224" on="1"/>
        <pt x="237" y="245" on="0"/>
        <pt x="262" y="269" on="0"/>
        <pt x="278" y="269" on="1"/>
        <pt x="296" y="269" on="0"/>
        <pt x="320" y="243" on="0"/>
        <pt x="320" y="218" on="1"/>
        <pt x="320" y="181" on="0"/>
        <pt x="280" y="136" on="0"/>
        <pt x="242" y="136" on="1"/>
        <pt x="188" y="136" on="0"/>
        <pt x="133" y="219" on="0"/>
        <pt x="133" y="292" on="1"/>
        <pt x="121" y="238" on="0"/>
        <pt x="121" y="191" on="1"/>
        <pt x="121" y="122" on="0"/>
        <pt x="180" y="37" on="0"/>
        <pt x="241" y="37" on="1"/>
        <pt x="283" y="37" on="0"/>
        <pt x="358" y="81" on="0"/>
        <pt x="415" y="153" on="0"/>
        <pt x="448" y="246" on="0"/>
        <pt x="448" y="295" on="1"/>
        <pt x="448" y="370" on="0"/>
        <pt x="381" y="446" on="0"/>
        <pt x="335" y="446" on="1"/>
        <pt x="305" y="446" on="0"/>
        <pt x="249" y="420" on="0"/>
        <pt x="204" y="375" on="0"/>
        <pt x="177" y="314" on="0"/>
        <pt x="177" y="278" on="1"/>
        <pt x="177" y="260" on="0"/>
        <pt x="188" y="223" on="0"/>
        <pt x="209" y="193" on="0"/>
        <pt x="240" y="174" on="0"/>
      </contour>
    </TTGlyph>
    <TTGlyph name="backslash" xMin="-21" yMin="-31" xMax="357" yMax="782">
      <contour>
        <pt x="25" y="768" on="1"/>
        <pt x="71" y="682" on="0"/>
        <pt x="294" y="156" on="0"/>
        <pt x="354" y="4" on="1"/>
        <pt x="357" y="-12" on="0"/>
        <pt x="336" y="-23" on="1"/>
        <pt x="318" y="-31" on="0"/>
        <pt x="315" y="-20" on="1"/>
        <pt x="42" y="640" on="0"/>
        <pt x="-19" y="752" on="1"/>
        <pt x="-21" y="766" on="0"/>
        <pt x="19" y="782" on="0"/>
      </contour>
    </TTGlyph>
    <TTGlyph name="bar" xMin="75" yMin="-24" xMax="123" yMax="818">
      <contour>
        <pt x="75" y="-8" on="1"/>
        <pt x="75" y="803" on="1"/>
        <pt x="75" y="818" on="0"/>
        <pt x="98" y="818" on="1"/>
        <pt x="114" y="818" on="0"/>
        <pt x="123" y="815" on="0"/>
        <pt x="123" y="807" on="1"/>
        <pt x="123" y="-13" on="1"/>
        <pt x="123" y="-21" on="0"/>
        <pt x="114" y="-24" on="0"/>
        <pt x="98" y="-24" on="1"/>
        <pt x="75" y="-24" on="0"/>
      </contour>
    </TTGlyph>
    <TTGlyph name="braceleft" xMin="55" yMin="-96" xMax="392" yMax="832">
      <contour>
        <pt x="55" y="350" on="1"/>
        <pt x="55" y="361" on="0"/>
        <pt x="80" y="376" on="0"/>
        <pt x="98" y="376" on="1"/>
        <pt x="134" y="376" on="0"/>
        <pt x="174" y="444" on="0"/>
        <pt x="185" y="545" on="0"/>
        <pt x="200" y="663" on="0"/>
        <pt x="219" y="764" on="0"/>
        <pt x="277" y="832" on="0"/>
        <pt x="324" y="832" on="1"/>
        <pt x="357" y="832" on="0"/>
        <pt x="392" y="783" on="0"/>
        <pt x="392" y="750" on="1"/>
        <pt x="392" y="722" on="0"/>
        <pt x="367" y="681" on="0"/>
        <pt x="346" y="681" on="1"/>
        <pt x="336" y="681" on="0"/>
        <pt x="316" y="698" on="0"/>
        <pt x="316" y="708" on="1"/>
        <pt x="316" y="713" on="0"/>
        <pt x="348" y="757" on="0"/>
        <pt x="348" y="772" on="1"/>
        <pt x="348" y="782" on="0"/>
        <pt x="337" y="782" on="1"/>
        <pt x="311" y="782" on="0"/>
        <pt x="276" y="754" on="0"/>
        <pt x="261" y="701" on="0"/>
        <pt x="254" y="651" on="0"/>
        <pt x="248" y="580" on="0"/>
        <pt x="244" y="562" on="1"/>
        <pt x="243" y="559" on="0"/>
        <pt x="228" y="464" on="0"/>
        <pt x="218" y="426" on="0"/>
        <pt x="187" y="367" on="0"/>
        <pt x="165" y="354" on="1"/>
        <pt x="210" y="328" on="0"/>
        <pt x="210" y="266" on="1"/>
        <pt x="210" y="252" on="0"/>
        <pt x="180" y="94" on="0"/>
        <pt x="180" y="49" on="1"/>
        <pt x="180" y="-1" on="0"/>
        <pt x="215" y="-53" on="0"/>
        <pt x="259" y="-53" on="1"/>
        <pt x="286" y="-53" on="0"/>
        <pt x="330" y="-10" on="0"/>
        <pt x="330" y="8" on="1"/>
        <pt x="330" y="12" on="0"/>
        <pt x="317" y="51" on="0"/>
        <pt x="317" y="62" on="1"/>
        <pt x="317" y="81" on="0"/>
        <pt x="333" y="81" on="1"/>
        <pt x="348" y="81" on="0"/>
        <pt x="378" y="46" on="0"/>
        <pt x="378" y="22" on="1"/>
        <pt x="378" y="-30" on="0"/>
        <pt x="299" y="-96" on="0"/>
        <pt x="248" y="-96" on="1"/>
        <pt x="187" y="-96" on="0"/>
        <pt x="133" y="-12" on="0"/>
        <pt x="133" y="54" on="1"/>
        <pt x="133" y="96" on="0"/>
        <pt x="157" y="250" on="0"/>
        <pt x="157" y="274" on="1"/>
        <pt x="157" y="293" on="0"/>
        <pt x="125" y="316" on="0"/>
        <pt x="87" y="322" on="0"/>
        <pt x="55" y="337" on="0"/>
      </contour>
    </TTGlyph>
    <TTGlyph name="braceright" xMin="35" yMin="-96" xMax="440" yMax="827">
      <contour>
        <pt x="198" y="709" on="1"/>
        <pt x="186" y="721" on="0"/>
        <pt x="186" y="739" on="1"/>
        <pt x="186" y="770" on="0"/>
        <pt x="216" y="770" on="1"/>
        <pt x="230" y="770" on="0"/>
        <pt x="248" y="752" on="0"/>
        <pt x="248" y="738" on="1"/>
        <pt x="248" y="713" on="0"/>
        <pt x="203" y="674" on="0"/>
        <pt x="178" y="674" on="1"/>
        <pt x="150" y="674" on="0"/>
        <pt x="110" y="707" on="0"/>
        <pt x="110" y="737" on="1"/>
        <pt x="110" y="780" on="0"/>
        <pt x="181" y="827" on="0"/>
        <pt x="226" y="827" on="1"/>
        <pt x="260" y="827" on="0"/>
        <pt x="305" y="787" on="0"/>
        <pt x="305" y="746" on="1"/>
        <pt x="305" y="698" on="0"/>
        <pt x="259" y="532" on="0"/>
        <pt x="259" y="494" on="1"/>
        <pt x="259" y="444" on="0"/>
        <pt x="282" y="399" on="1"/>
        <pt x="309" y="434" on="0"/>
        <pt x="359" y="434" on="1"/>
        <pt x="396" y="434" on="0"/>
        <pt x="440" y="396" on="0"/>
        <pt x="440" y="370" on="1"/>
        <pt x="440" y="337" on="0"/>
        <pt x="387" y="303" on="0"/>
        <pt x="350" y="303" on="1"/>
        <pt x="310" y="303" on="0"/>
        <pt x="276" y="321" on="1"/>
        <pt x="265" y="294" on="0"/>
        <pt x="261" y="181" on="0"/>
        <pt x="259" y="73" on="0"/>
        <pt x="243" y="-32" on="0"/>
        <pt x="181" y="-96" on="0"/>
        <pt x="127" y="-96" on="1"/>
        <pt x="89" y="-96" on="0"/>
        <pt x="35" y="-43" on="0"/>
        <pt x="35" y="3" on="1"/>
        <pt x="35" y="48" on="0"/>
        <pt x="99" y="108" on="0"/>
        <pt x="133" y="108" on="1"/>
        <pt x="152" y="108" on="0"/>
        <pt x="173" y="83" on="0"/>
        <pt x="173" y="66" on="1"/>
        <pt x="173" y="50" on="0"/>
        <pt x="153" y="28" on="0"/>
        <pt x="135" y="28" on="1"/>
        <pt x="120" y="28" on="0"/>
        <pt x="98" y="47" on="0"/>
        <pt x="96" y="61" on="1"/>
        <pt x="77" y="42" on="0"/>
        <pt x="77" y="7" on="1"/>
        <pt x="77" y="-19" on="0"/>
        <pt x="104" y="-56" on="0"/>
        <pt x="156" y="-56" on="0"/>
        <pt x="192" y="-19" on="0"/>
        <pt x="210" y="43" on="0"/>
        <pt x="218" y="106" on="0"/>
        <pt x="218" y="141" on="1"/>
        <pt x="218" y="151" on="0"/>
        <pt x="216" y="205" on="0"/>
        <pt x="216" y="221" on="1"/>
        <pt x="216" y="311" on="0"/>
        <pt x="244" y="358" on="1"/>
        <pt x="211" y="417" on="0"/>
        <pt x="211" y="499" on="1"/>
        <pt x="211" y="537" on="0"/>
        <pt x="260" y="700" on="0"/>
        <pt x="260" y="740" on="1"/>
        <pt x="260" y="763" on="0"/>
        <pt x="231" y="788" on="0"/>
        <pt x="211" y="788" on="1"/>
        <pt x="188" y="788" on="0"/>
        <pt x="151" y="758" on="0"/>
        <pt x="151" y="733" on="1"/>
        <pt x="151" y="719" on="0"/>
        <pt x="169" y="705" on="0"/>
        <pt x="180" y="705" on="1"/>
        <pt x="192" y="705" on="0"/>
      </contour>
      <contour>
        <pt x="365" y="391" on="1"/>
        <pt x="324" y="391" on="0"/>
        <pt x="303" y="362" on="1"/>
        <pt x="316" y="344" on="0"/>
        <pt x="353" y="344" on="1"/>
        <pt x="394" y="344" on="0"/>
        <pt x="394" y="372" on="1"/>
        <pt x="394" y="391" on="0"/>
      </contour>
    </TTGlyph>
    <TTGlyph name="bracketleft" xMin="55" yMin="-21" xMax="314" yMax="845">
      <contour>
        <pt x="175" y="793" on="1"/>
        <pt x="155" y="730" on="0"/>
        <pt x="131" y="560" on="0"/>
        <pt x="124" y="417" on="0"/>
        <pt x="111" y="134" on="0"/>
        <pt x="105" y="34" on="1"/>
        <pt x="239" y="34" on="1"/>
        <pt x="265" y="34" on="0"/>
        <pt x="279" y="26" on="0"/>
        <pt x="279" y="13" on="1"/>
        <pt x="279" y="-9" on="0"/>
        <pt x="177" y="-21" on="0"/>
        <pt x="86" y="-21" on="1"/>
        <pt x="66" y="-21" on="0"/>
        <pt x="55" y="3" on="0"/>
        <pt x="55" y="35" on="1"/>
        <pt x="56" y="57" on="0"/>
        <pt x="65" y="241" on="0"/>
        <pt x="67" y="274" on="0"/>
        <pt x="74" y="415" on="0"/>
        <pt x="78" y="457" on="0"/>
        <pt x="87" y="568" on="0"/>
        <pt x="96" y="634" on="0"/>
        <pt x="108" y="729" on="0"/>
        <pt x="116" y="777" on="1"/>
        <pt x="123" y="823" on="0"/>
        <pt x="165" y="845" on="0"/>
        <pt x="228" y="845" on="1"/>
        <pt x="271" y="845" on="0"/>
        <pt x="314" y="825" on="0"/>
        <pt x="314" y="813" on="1"/>
        <pt x="314" y="796" on="0"/>
        <pt x="289" y="793" on="1"/>
      </contour>
    </TTGlyph>
    <TTGlyph name="bracketright" xMin="25" yMin="-25" xMax="276" yMax="831">
      <contour>
        <pt x="219" y="782" on="1"/>
        <pt x="218" y="782" on="0"/>
        <pt x="185" y="781" on="0"/>
        <pt x="173" y="781" on="1"/>
        <pt x="92" y="781" on="0"/>
        <pt x="92" y="804" on="1"/>
        <pt x="92" y="820" on="0"/>
        <pt x="123" y="831" on="0"/>
        <pt x="158" y="831" on="1"/>
        <pt x="224" y="831" on="0"/>
        <pt x="276" y="811" on="0"/>
        <pt x="276" y="781" on="1"/>
        <pt x="276" y="775" on="0"/>
        <pt x="274" y="763" on="1"/>
        <pt x="272" y="746" on="0"/>
        <pt x="240" y="517" on="0"/>
        <pt x="220" y="360" on="0"/>
        <pt x="201" y="114" on="0"/>
        <pt x="201" y="15" on="1"/>
        <pt x="201" y="-25" on="0"/>
        <pt x="126" y="-25" on="1"/>
        <pt x="74" y="-25" on="0"/>
        <pt x="25" y="-11" on="0"/>
        <pt x="25" y="8" on="1"/>
        <pt x="25" y="29" on="0"/>
        <pt x="70" y="29" on="1"/>
        <pt x="82" y="29" on="0"/>
        <pt x="140" y="24" on="1"/>
        <pt x="147" y="65" on="0"/>
        <pt x="176" y="350" on="0"/>
        <pt x="210" y="702" on="0"/>
      </contour>
    </TTGlyph>
    <TTGlyph name="brokenbar" xMin="75" yMin="-150" xMax="123" yMax="634">
      <contour>
        <pt x="75" y="308" on="1"/>
        <pt x="75" y="619" on="1"/>
        <pt x="75" y="634" on="0"/>
        <pt x="98" y="634" on="1"/>
        <pt x="114" y="634" on="0"/>
        <pt x="123" y="631" on="0"/>
        <pt x="123" y="623" on="1"/>
        <pt x="123" y="303" on="1"/>
        <pt x="123" y="295" on="0"/>
        <pt x="114" y="292" on="0"/>
        <pt x="98" y="292" on="1"/>
        <pt x="75" y="292" on="0"/>
      </contour>
      <contour>
        <pt x="75" y="-134" on="1"/>
        <pt x="75" y="177" on="1"/>
        <pt x="75" y="192" on="0"/>
        <pt x="98" y="192" on="1"/>
        <pt x="114" y="192" on="0"/>
        <pt x="123" y="189" on="0"/>
        <pt x="123" y="181" on="1"/>
        <pt x="123" y="-139" on="1"/>
        <pt x="123" y="-147" on="0"/>
        <pt x="114" y="-150" on="0"/>
        <pt x="98" y="-150" on="1"/>
        <pt x="75" y="-150" on="0"/>
      </contour>
    </TTGlyph>
    <TTGlyph name="bullet" xMin="55" yMin="421" xMax="308" yMax="660">
      <contour>
        <pt x="187" y="421" on="1"/>
        <pt x="161" y="421" on="0"/>
        <pt x="113" y="437" on="0"/>
        <pt x="77" y="466" on="0"/>
        <pt x="55" y="507" on="0"/>
        <pt x="55" y="533" on="1"/>
        <pt x="55" y="558" on="0"/>
        <pt x="71" y="604" on="0"/>
        <pt x="100" y="639" on="0"/>
        <pt x="140" y="660" on="0"/>
        <pt x="165" y="660" on="1"/>
        <pt x="194" y="660" on="0"/>
        <pt x="246" y="640" on="0"/>
        <pt x="285" y="606" on="0"/>
        <pt x="308" y="560" on="0"/>
        <pt x="308" y="533" on="1"/>
        <pt x="308" y="479" on="0"/>
        <pt x="238" y="421" on="0"/>
      </contour>
    </TTGlyph>
    <TTGlyph name="c" xMin="41" yMin="-11" xMax="424" yMax="494">
      <contour>
        <pt x="285" y="167" on="1"/>
        <pt x="285" y="188" on="0"/>
        <pt x="318" y="217" on="0"/>
        <pt x="344" y="217" on="1"/>
        <pt x="417" y="217" on="0"/>
        <pt x="417" y="126" on="1"/>
        <pt x="417" y="72" on="0"/>
        <pt x="325" y="-11" on="0"/>
        <pt x="237" y="-11" on="1"/>
        <pt x="143" y="-11" on="0"/>
        <pt x="41" y="103" on="0"/>
        <pt x="41" y="194" on="1"/>
        <pt x="41" y="315" on="0"/>
        <pt x="168" y="494" on="0"/>
        <pt x="285" y="494" on="1"/>
        <pt x="350" y="494" on="0"/>
        <pt x="424" y="426" on="0"/>
        <pt x="424" y="380" on="1"/>
        <pt x="424" y="339" on="0"/>
        <pt x="372" y="293" on="0"/>
        <pt x="337" y="293" on="1"/>
        <pt x="313" y="293" on="0"/>
        <pt x="280" y="316" on="0"/>
        <pt x="280" y="337" on="1"/>
        <pt x="280" y="349" on="0"/>
        <pt x="303" y="370" on="0"/>
        <pt x="322" y="370" on="1"/>
        <pt x="352" y="370" on="0"/>
        <pt x="366" y="339" on="1"/>
        <pt x="382" y="356" on="0"/>
        <pt x="382" y="380" on="1"/>
        <pt x="382" y="408" on="0"/>
        <pt x="331" y="450" on="0"/>
        <pt x="291" y="450" on="1"/>
        <pt x="207" y="450" on="0"/>
        <pt x="96" y="294" on="0"/>
        <pt x="96" y="202" on="1"/>
        <pt x="96" y="134" on="0"/>
        <pt x="174" y="31" on="0"/>
        <pt x="245" y="31" on="1"/>
        <pt x="297" y="31" on="0"/>
        <pt x="379" y="84" on="0"/>
        <pt x="379" y="134" on="1"/>
        <pt x="379" y="147" on="0"/>
        <pt x="375" y="160" on="1"/>
        <pt x="365" y="126" on="0"/>
        <pt x="332" y="126" on="1"/>
        <pt x="314" y="126" on="0"/>
        <pt x="285" y="150" on="0"/>
      </contour>
    </TTGlyph>
    <TTGlyph name="caron" xMin="29" yMin="520" xMax="254" yMax="671">
      <contour>
        <pt x="165" y="544" on="1"/>
        <pt x="139" y="520" on="0"/>
        <pt x="117" y="544" on="1"/>
        <pt x="33" y="631" on="1"/>
        <pt x="29" y="635" on="0"/>
        <pt x="46" y="657" on="0"/>
        <pt x="70" y="671" on="0"/>
        <pt x="74" y="666" on="1"/>
        <pt x="140" y="591" on="1"/>
        <pt x="145" y="596" on="0"/>
        <pt x="163" y="615" on="0"/>
        <pt x="182" y="635" on="0"/>
        <pt x="199" y="653" on="0"/>
        <pt x="204" y="659" on="1"/>
        <pt x="210" y="665" on="1"/>
        <pt x="217" y="671" on="0"/>
        <pt x="241" y="658" on="0"/>
        <pt x="254" y="636" on="0"/>
        <pt x="249" y="631" on="1"/>
      </contour>
    </TTGlyph>
    <TTGlyph name="caron.case" xMin="30" yMin="667" xMax="275" yMax="807">
      <contour>
        <pt x="176" y="681" on="1"/>
        <pt x="164" y="670" on="0"/>
        <pt x="143" y="667" on="0"/>
        <pt x="128" y="681" on="1"/>
        <pt x="33" y="768" on="1"/>
        <pt x="30" y="771" on="0"/>
        <pt x="40" y="786" on="0"/>
        <pt x="55" y="800" on="0"/>
        <pt x="71" y="807" on="0"/>
        <pt x="74" y="803" on="1"/>
        <pt x="151" y="728" on="1"/>
        <pt x="158" y="735" on="0"/>
        <pt x="185" y="760" on="0"/>
        <pt x="212" y="784" on="0"/>
        <pt x="232" y="802" on="0"/>
        <pt x="232" y="802" on="1"/>
        <pt x="238" y="806" on="0"/>
        <pt x="255" y="800" on="0"/>
        <pt x="268" y="787" on="0"/>
        <pt x="275" y="772" on="0"/>
        <pt x="271" y="768" on="1"/>
      </contour>
    </TTGlyph>
    <TTGlyph name="ccedilla" xMin="33" yMin="-184" xMax="416" yMax="494">
      <contour>
        <pt x="191" y="-8" on="1"/>
        <pt x="152" y="-2" on="0"/>
        <pt x="92" y="33" on="0"/>
        <pt x="53" y="86" on="0"/>
        <pt x="33" y="155" on="0"/>
        <pt x="33" y="194" on="1"/>
        <pt x="33" y="249" on="0"/>
        <pt x="62" y="357" on="0"/>
        <pt x="122" y="442" on="0"/>
        <pt x="214" y="494" on="0"/>
        <pt x="277" y="494" on="1"/>
        <pt x="311" y="494" on="0"/>
        <pt x="364" y="474" on="0"/>
        <pt x="398" y="442" on="0"/>
        <pt x="416" y="401" on="0"/>
        <pt x="416" y="380" on="1"/>
        <pt x="416" y="358" on="0"/>
        <pt x="401" y="326" on="0"/>
        <pt x="376" y="304" on="0"/>
        <pt x="345" y="293" on="0"/>
        <pt x="329" y="293" on="1"/>
        <pt x="306" y="293" on="0"/>
        <pt x="272" y="315" on="0"/>
        <pt x="272" y="337" on="1"/>
        <pt x="272" y="348" on="0"/>
        <pt x="294" y="370" on="0"/>
        <pt x="314" y="370" on="1"/>
        <pt x="330" y="370" on="0"/>
        <pt x="353" y="351" on="0"/>
        <pt x="358" y="339" on="1"/>
        <pt x="366" y="348" on="0"/>
        <pt x="374" y="369" on="0"/>
        <pt x="374" y="380" on="1"/>
        <pt x="374" y="406" on="0"/>
        <pt x="324" y="450" on="0"/>
        <pt x="283" y="450" on="1"/>
        <pt x="238" y="450" on="0"/>
        <pt x="166" y="405" on="0"/>
        <pt x="115" y="333" on="0"/>
        <pt x="88" y="245" on="0"/>
        <pt x="88" y="202" on="1"/>
        <pt x="88" y="171" on="0"/>
        <pt x="106" y="110" on="0"/>
        <pt x="143" y="61" on="0"/>
        <pt x="199" y="31" on="0"/>
        <pt x="237" y="31" on="1"/>
        <pt x="260" y="31" on="0"/>
        <pt x="307" y="43" on="0"/>
        <pt x="346" y="68" on="0"/>
        <pt x="371" y="107" on="0"/>
        <pt x="371" y="134" on="1"/>
        <pt x="371" y="147" on="0"/>
        <pt x="367" y="160" on="1"/>
        <pt x="362" y="142" on="0"/>
        <pt x="338" y="126" on="0"/>
        <pt x="324" y="126" on="1"/>
        <pt x="307" y="126" on="0"/>
        <pt x="277" y="149" on="0"/>
        <pt x="277" y="167" on="1"/>
        <pt x="277" y="187" on="0"/>
        <pt x="309" y="217" on="0"/>
        <pt x="336" y="217" on="1"/>
        <pt x="357" y="217" on="0"/>
        <pt x="386" y="202" on="0"/>
        <pt x="402" y="176" on="0"/>
        <pt x="409" y="144" on="0"/>
        <pt x="409" y="126" on="1"/>
        <pt x="409" y="69" on="0"/>
        <pt x="324" y="-9" on="0"/>
        <pt x="235" y="-11" on="1"/>
        <pt x="235" y="-35" on="1"/>
        <pt x="266" y="-40" on="0"/>
        <pt x="311" y="-65" on="0"/>
        <pt x="311" y="-97" on="1"/>
        <pt x="311" y="-145" on="0"/>
        <pt x="230" y="-184" on="0"/>
        <pt x="157" y="-184" on="1"/>
        <pt x="148" y="-184" on="0"/>
        <pt x="139" y="-170" on="0"/>
        <pt x="139" y="-162" on="1"/>
        <pt x="139" y="-150" on="0"/>
        <pt x="149" y="-144" on="0"/>
        <pt x="157" y="-144" on="1"/>
        <pt x="175" y="-144" on="0"/>
        <pt x="211" y="-143" on="0"/>
        <pt x="239" y="-137" on="0"/>
        <pt x="256" y="-123" on="0"/>
        <pt x="256" y="-111" on="1"/>
        <pt x="256" y="-97" on="0"/>
        <pt x="228" y="-86" on="0"/>
        <pt x="205" y="-85" on="1"/>
        <pt x="200" y="-84" on="0"/>
        <pt x="191" y="-78" on="0"/>
        <pt x="191" y="-64" on="1"/>
      </contour>
    </TTGlyph>
    <TTGlyph name="cedilla" xMin="28" yMin="-184" xMax="200" yMax="11">
      <contour>
        <pt x="80" y="-64" on="1"/>
        <pt x="80" y="1" on="1"/>
        <pt x="80" y="11" on="0"/>
        <pt x="102" y="11" on="1"/>
        <pt x="124" y="11" on="0"/>
        <pt x="124" y="1" on="1"/>
        <pt x="124" y="-35" on="1"/>
        <pt x="200" y="-45" on="0"/>
        <pt x="200" y="-97" on="1"/>
        <pt x="200" y="-184" on="0"/>
        <pt x="46" y="-184" on="1"/>
        <pt x="28" y="-184" on="0"/>
        <pt x="28" y="-162" on="1"/>
        <pt x="28" y="-144" on="0"/>
        <pt x="46" y="-144" on="1"/>
        <pt x="91" y="-144" on="0"/>
        <pt x="145" y="-134" on="0"/>
        <pt x="145" y="-111" on="1"/>
        <pt x="145" y="-99" on="0"/>
        <pt x="125" y="-92" on="0"/>
        <pt x="100" y="-87" on="0"/>
        <pt x="80" y="-78" on="0"/>
      </contour>
    </TTGlyph>
    <TTGlyph name="cent" xMin="35" yMin="-134" xMax="418" yMax="638">
      <contour>
        <pt x="190" y="-118" on="1"/>
        <pt x="190" y="-8" on="1"/>
        <pt x="115" y="4" on="0"/>
        <pt x="35" y="114" on="0"/>
        <pt x="35" y="194" on="1"/>
        <pt x="35" y="288" on="0"/>
        <pt x="114" y="446" on="0"/>
        <pt x="190" y="477" on="1"/>
        <pt x="190" y="623" on="1"/>
        <pt x="190" y="638" on="0"/>
        <pt x="213" y="638" on="1"/>
        <pt x="229" y="638" on="0"/>
        <pt x="238" y="635" on="0"/>
        <pt x="238" y="627" on="1"/>
        <pt x="238" y="490" on="1"/>
        <pt x="264" y="494" on="0"/>
        <pt x="279" y="494" on="1"/>
        <pt x="344" y="494" on="0"/>
        <pt x="418" y="426" on="0"/>
        <pt x="418" y="380" on="1"/>
        <pt x="418" y="339" on="0"/>
        <pt x="366" y="293" on="0"/>
        <pt x="331" y="293" on="1"/>
        <pt x="307" y="293" on="0"/>
        <pt x="274" y="316" on="0"/>
        <pt x="274" y="337" on="1"/>
        <pt x="274" y="349" on="0"/>
        <pt x="297" y="370" on="0"/>
        <pt x="316" y="370" on="1"/>
        <pt x="346" y="370" on="0"/>
        <pt x="360" y="339" on="1"/>
        <pt x="376" y="356" on="0"/>
        <pt x="376" y="380" on="1"/>
        <pt x="376" y="408" on="0"/>
        <pt x="325" y="450" on="0"/>
        <pt x="285" y="450" on="1"/>
        <pt x="262" y="450" on="0"/>
        <pt x="238" y="442" on="1"/>
        <pt x="238" y="31" on="1"/>
        <pt x="239" y="31" on="1"/>
        <pt x="291" y="31" on="0"/>
        <pt x="373" y="84" on="0"/>
        <pt x="373" y="134" on="1"/>
        <pt x="373" y="147" on="0"/>
        <pt x="369" y="160" on="1"/>
        <pt x="359" y="126" on="0"/>
        <pt x="326" y="126" on="1"/>
        <pt x="308" y="126" on="0"/>
        <pt x="279" y="150" on="0"/>
        <pt x="279" y="167" on="1"/>
        <pt x="279" y="188" on="0"/>
        <pt x="312" y="217" on="0"/>
        <pt x="338" y="217" on="1"/>
        <pt x="411" y="217" on="0"/>
        <pt x="411" y="126" on="1"/>
        <pt x="411" y="67" on="0"/>
        <pt x="322" y="-9" on="0"/>
        <pt x="238" y="-11" on="1"/>
        <pt x="238" y="-123" on="1"/>
        <pt x="238" y="-131" on="0"/>
        <pt x="229" y="-134" on="0"/>
        <pt x="213" y="-134" on="1"/>
        <pt x="190" y="-134" on="0"/>
      </contour>
      <contour>
        <pt x="90" y="202" on="1"/>
        <pt x="90" y="147" on="0"/>
        <pt x="142" y="55" on="0"/>
        <pt x="190" y="39" on="1"/>
        <pt x="190" y="417" on="1"/>
        <pt x="144" y="383" on="0"/>
        <pt x="90" y="263" on="0"/>
      </contour>
    </TTGlyph>
    <TTGlyph name="circumflex" xMin="30" yMin="526" xMax="255" yMax="677">
      <contour>
        <pt x="119" y="653" on="1"/>
        <pt x="145" y="677" on="0"/>
        <pt x="167" y="653" on="1"/>
        <pt x="251" y="566" on="1"/>
        <pt x="255" y="562" on="0"/>
        <pt x="238" y="540" on="0"/>
        <pt x="214" y="526" on="0"/>
        <pt x="210" y="531" on="1"/>
        <pt x="144" y="606" on="1"/>
        <pt x="139" y="601" on="0"/>
        <pt x="121" y="582" on="0"/>
        <pt x="102" y="562" on="0"/>
        <pt x="85" y="544" on="0"/>
        <pt x="80" y="538" on="1"/>
        <pt x="74" y="532" on="1"/>
        <pt x="67" y="526" on="0"/>
        <pt x="43" y="539" on="0"/>
        <pt x="30" y="561" on="0"/>
        <pt x="35" y="566" on="1"/>
      </contour>
    </TTGlyph>
    <TTGlyph name="circumflex.case" xMin="33" yMin="667" xMax="274" yMax="804">
      <contour>
        <pt x="130" y="791" on="1"/>
        <pt x="143" y="804" on="0"/>
        <pt x="154" y="804" on="1"/>
        <pt x="164" y="804" on="0"/>
        <pt x="178" y="791" on="1"/>
        <pt x="273" y="704" on="1"/>
        <pt x="274" y="703" on="0"/>
        <pt x="274" y="701" on="1"/>
        <pt x="274" y="697" on="0"/>
        <pt x="266" y="686" on="0"/>
        <pt x="254" y="675" on="0"/>
        <pt x="241" y="667" on="0"/>
        <pt x="237" y="667" on="1"/>
        <pt x="233" y="667" on="0"/>
        <pt x="232" y="669" on="1"/>
        <pt x="155" y="744" on="1"/>
        <pt x="74" y="670" on="1"/>
        <pt x="71" y="667" on="0"/>
        <pt x="66" y="667" on="1"/>
        <pt x="61" y="667" on="0"/>
        <pt x="49" y="674" on="0"/>
        <pt x="39" y="684" on="0"/>
        <pt x="33" y="695" on="0"/>
        <pt x="33" y="699" on="1"/>
        <pt x="33" y="702" on="0"/>
        <pt x="35" y="704" on="1"/>
      </contour>
    </TTGlyph>
    <TTGlyph name="colon" xMin="55" yMin="-11" xMax="234" yMax="527">
      <contour>
        <pt x="142" y="172" on="1"/>
        <pt x="183" y="172" on="0"/>
        <pt x="231" y="115" on="0"/>
        <pt x="231" y="77" on="1"/>
        <pt x="231" y="41" on="0"/>
        <pt x="187" y="-11" on="0"/>
        <pt x="147" y="-11" on="1"/>
        <pt x="129" y="-11" on="0"/>
        <pt x="96" y="2" on="0"/>
        <pt x="70" y="26" on="0"/>
        <pt x="55" y="58" on="0"/>
        <pt x="55" y="76" on="1"/>
        <pt x="55" y="95" on="0"/>
        <pt x="70" y="129" on="0"/>
        <pt x="94" y="156" on="0"/>
        <pt x="125" y="172" on="0"/>
      </contour>
      <contour>
        <pt x="144" y="38" on="1"/>
        <pt x="163" y="38" on="0"/>
        <pt x="185" y="63" on="0"/>
        <pt x="185" y="81" on="1"/>
        <pt x="185" y="98" on="0"/>
        <pt x="163" y="124" on="0"/>
        <pt x="144" y="124" on="1"/>
        <pt x="124" y="124" on="0"/>
        <pt x="102" y="98" on="0"/>
        <pt x="102" y="64" on="0"/>
        <pt x="124" y="38" on="0"/>
      </contour>
      <contour>
        <pt x="143" y="394" on="1"/>
        <pt x="160" y="394" on="0"/>
        <pt x="185" y="417" on="0"/>
        <pt x="185" y="451" on="0"/>
        <pt x="160" y="480" on="0"/>
        <pt x="142" y="480" on="1"/>
        <pt x="123" y="480" on="0"/>
        <pt x="101" y="454" on="0"/>
        <pt x="101" y="439" on="1"/>
        <pt x="101" y="421" on="0"/>
        <pt x="125" y="394" on="0"/>
      </contour>
      <contour>
        <pt x="56" y="438" on="1"/>
        <pt x="56" y="474" on="0"/>
        <pt x="103" y="527" on="0"/>
        <pt x="139" y="527" on="1"/>
        <pt x="177" y="527" on="0"/>
        <pt x="234" y="467" on="0"/>
        <pt x="234" y="429" on="1"/>
        <pt x="234" y="398" on="0"/>
        <pt x="186" y="346" on="0"/>
        <pt x="144" y="346" on="1"/>
        <pt x="109" y="346" on="0"/>
        <pt x="56" y="397" on="0"/>
      </contour>
    </TTGlyph>
    <TTGlyph name="comma" xMin="55" yMin="-203" xMax="256" yMax="99">
      <contour>
        <pt x="101" y="-201" on="1"/>
        <pt x="95" y="-203" on="0"/>
        <pt x="93" y="-203" on="1"/>
        <pt x="83" y="-203" on="0"/>
        <pt x="64" y="-187" on="0"/>
        <pt x="64" y="-178" on="1"/>
        <pt x="64" y="-170" on="0"/>
        <pt x="70" y="-167" on="1"/>
        <pt x="91" y="-154" on="0"/>
        <pt x="108" y="-143" on="0"/>
        <pt x="150" y="-114" on="0"/>
        <pt x="170" y="-92" on="0"/>
        <pt x="197" y="-59" on="0"/>
        <pt x="208" y="-23" on="0"/>
        <pt x="208" y="-4" on="1"/>
        <pt x="208" y="23" on="0"/>
        <pt x="175" y="54" on="0"/>
        <pt x="151" y="54" on="1"/>
        <pt x="126" y="54" on="0"/>
        <pt x="107" y="38" on="1"/>
        <pt x="153" y="26" on="0"/>
        <pt x="153" y="-12" on="1"/>
        <pt x="153" y="-28" on="0"/>
        <pt x="130" y="-51" on="0"/>
        <pt x="113" y="-51" on="1"/>
        <pt x="90" y="-51" on="0"/>
        <pt x="55" y="-13" on="0"/>
        <pt x="55" y="15" on="1"/>
        <pt x="55" y="55" on="0"/>
        <pt x="116" y="99" on="0"/>
        <pt x="147" y="99" on="1"/>
        <pt x="196" y="99" on="0"/>
        <pt x="256" y="35" on="0"/>
        <pt x="256" y="-6" on="1"/>
        <pt x="256" y="-73" on="0"/>
        <pt x="174" y="-163" on="0"/>
      </contour>
    </TTGlyph>
</ttFont>
